<?xml version="1.0" encoding="UTF-8"?><svg xmlns="http://www.w3.org/2000/svg" viewBox="0 0 1920.9 792"><defs><style>.d{fill:#191919;}</style></defs><g id="a"/><g id="b"><g id="c"><g><path class="d" d="M905.61,0c-1.82,1.98-2.86,4.55-3.77,7.33-1.72,5.24-2.33,10.97-4.76,15.81-3.55,7.07-10.59,10.5-17.54,13.76-5,2.35-8.29,6.15-9.62,11.77-2.36,10.03-.43,19.87,1.58,29.52,2.22,10.71-.35,18.25-9.73,22.25-10.86,4.64-22.09,7.87-34.06,8.36-3.97,.16-8.22,1.02-11.75,2.75-7.02,3.44-8.36,5.97-7.8,13.04,.56,6.99,7.53,16.59,16.35,19.57,12.7,4.3,25.94,5.33,39.12,6.15,7.2,.45,14.56-.8,21.8-1.69,9.68-1.18,13.71,1.17,17.29,10.51,4.73,12.31,9.08,24.76,17.19,35.51,6.95,9.22,12.11,19.78,21.85,26.82,10.52,7.61,21.56,13.16,35.04,11.77,3.32-.34,6.67-.52,9.99-.94,6.68-.84,13.31-2.11,20.01-2.6,5.24-.38,6.5-3.83,7.75-7.82,1.39-4.43,2.85-8.86,4.55-13.18,5.82-14.82,18.53-20,32.71-22.63,5.44-1.01,9.02,2.8,8.14,7.61-.29,1.55-.81,3.06-1.35,4.55-5.77,16.03-17.69,25.12-33.63,29.51-5.35,1.48-10.93,2.52-12.21,9.14-.61,3.12-.95,6.36-.9,9.53,.1,6.52,.77,13.04,.78,19.55,0,6.36-.41,12.74-.87,19.09-.84,11.39-4.98,21.36-13.65,29.05-3.48,3.1-7.81,3.62-12.23,2.29-9.45-2.83-15.25-10.34-21.26-17.34-2.49-2.91-4.59-6.7-5.36-10.4-1.1-5.29-.49-10.91-1.22-16.31-.51-3.86-1.35-7.97-3.22-11.3-3.41-6.07-9.29-8.29-16.21-8.83-7.14-.55-15.55,1.93-19.12,8.74-3,5.72-3.87,11.88-4.05,18.19-.14,4.94-1.66,9.32-3.98,13.7-2.25,4.24-4.47,8.92-4.95,13.59-1.94,18.73-11.53,32.63-26.11,43.58-5.61,4.22-9.93,3.38-14.05-2.24-1.61-2.21-3.14-4.48-4.55-6.82-4.74-7.85-9.12-15.94-14.18-23.58-5.57-8.4-11.92-16.29-17.58-24.64-3.28-4.84-6.44-9.7-11.92-12.16-4.09-1.84-8.37-3.42-12.71-4.55-15.97-4.18-22.02-17.19-21.82-30.06,.09-6.21,.26-12.44-.09-18.63-.17-3.06-.91-6.31-2.26-9.05-3.73-7.57-11.16-9.66-18.56-10.33-9.2-.84-18.45-.47-27.3,3.37-5.67,2.46-10.87,5.29-12.58,11.49-1.97,7.15-3.02,14.54-4.68,21.78-1.34,5.8-2.19,11.9-4.67,17.21-6.21,13.28-16.81,21.82-31.23,24.98-6.55,1.43-13.3,1.98-19.98,2.78-2.89,.35-4.75-1.09-4.97-4.06-.73-9.73,.66-18.75,7.64-26.41,6.29-6.91,12.13-14.17,14.67-23.57,2.51-9.29,9.6-12.82,18.56-14.21,6.44-.99,12.83-2.64,19.07-4.56,3.05-.94,5.8-2.96,7.34-6.23,2.68-5.68,2.71-11.67,2.72-17.74,.03-14.03-5.88-24.56-18.7-30.37-14.22-6.44-29.55-8.25-44.96-9.13-4.63-.27-5.92,1.35-7.35,5.84-1.81,5.62-.3,10.99,.59,16.38,1.23,7.41,4.32,14.21,7.59,20.95,1.66,3.42,3.08,7.16,3.56,10.89,.58,4.48-2.38,7.34-6.18,9.58-11.19,6.55-23.37,7.73-35.94,7.23-9.1-.36-12.87,5.07-13.95,11.38-.97,5.64-.85,11.49-1.02,17.25-.25,8.35-2.46,15.75-9.58,20.9-9.85,7.12-15.81,16.39-17.89,28.61-1.58,9.26-.06,17.06,6.05,24.15,4.81,5.6,11.52,8.24,17.83,11.18,8.06,3.76,13.66,9.59,18.13,16.96,3.53,5.83,6.71,11.97,11.02,17.17,5.28,6.38,12.88,7.12,18.1-1.21,4.92-7.86,6.57-16.61,7.07-25.5,.42-7.38-.11-14.87-.86-22.25-.68-6.56-2.7-12.68-9.41-16-1.76-.86-3.29-2.47-4.51-4.06-1.09-1.42-2.64-4.25-2.15-4.78,1.71-1.86,2.74-4.76,6.17-4.79,4.29-.02,5.68,.69,7.22,6,1.26,4.38,3.34,8.29,7.81,9.42,10.44,2.64,20.19,.63,28.58-6.29,7.06-5.83,14.81-8,23.66-5.4,9.26,2.73,16.3,7.89,19.12,17.7,2.15,7.48,1.6,15.12,1.83,22.73,.37,12.95,5.27,19.29,16.76,23.23,11.74,4.02,23.78,4.17,35.93,3.56,2.43-.12,4.87-.43,7.27-.9,7.28-1.43,14.52-1.35,21.83-.02,6.02,1.1,12.08,2.27,18.18,2.68,9.67,.65,19.38,.66,29.08,1.03,1.52,.06,3.03,.59,4.55,.87,11.36,2.13,22.65,5,34.11,6.17,12.72,1.3,25.05,3.92,37.24,7.5,11.46,3.37,22.74,7.13,32.79,13.99,6.38,4.35,13.17,8.16,19.98,11.83,5.44,2.93,10.41,6.31,14.52,10.96,6.03,6.81,6.65,19.47,1.37,26.84-3.53,4.93-9.14,6.53-14.14,9.01-6.3,3.11-12.17,6.69-15.79,12.85-1.98,3.36-3.72,7.09-4.5,10.88-1.52,7.32,3.63,12.6,12.14,12.64,6.06,.03,12.12-.69,18.18-.8,4.49-.08,5.75,1.5,5.94,5.86,.37,8.62-4.42,14.04-10.91,18.67-5.99,4.27-14.44,3.98-18.68-2.29-1.88-2.79-4.08-5.37-5.86-8.22-2.7-4.32-5.7-8.53-10.96-9.37-3.67-.59-7.38-.92-11.38-.4-14.81,1.94-28.2,7.38-40.82,14.88-6.15,3.65-7.12,8.76-3.65,14.89,1.28,2.26,2.87,4.37,4.53,6.37,7.75,9.36,18.04,14.55,29.52,17.75,9.39,2.62,18.01,6.59,21.74,16.39,4.55,12,6.19,24.58,3.52,37.2-1.04,4.93-3.33,10.32-8.49,12.66-5.7,2.59-11.62,5.33-17.71,6.27-12.86,1.98-25.44,4.28-36.81,11.06-3.15,1.88-5.81,.2-5.82-3.59-.01-3.18,.56-6.36,.84-9.54,.33-3.79,.1-7.7,1.02-11.34,2-7.97,.61-15.83-1.68-23.14-4.51-14.39-15.38-23.13-29.37-27.69-10.56-3.44-17.28,.1-20.85,10.36-1.97,5.7-3.62,11.52-5.49,17.26-4.11,12.63-11.48,22.21-25.46,23.96-10.37,1.3-20.89,1.33-31.35,1.96-4,.24-7.18-1.06-10.08-4.02-2.92-2.98-3.09-7.05-2.79-10.05,.68-6.76,2.94-13.38,4.72-20.02,1.86-7,4.7-13.84,5.69-20.94,1.38-9.87-.85-19.56-3.82-29.09-2.34-7.51-3.67-15.33-1.38-23.14,1.32-4.5,3.19-8.84,4.95-13.19,3.29-8.12,3.34-15.52-2.65-22.81-8.19-9.98-19.32-15.18-30.55-20.37-9.36-4.31-19.03-8.04-28.08-12.92-4.89-2.64-9.72-4.8-15.07-6.27-8.87-2.44-18.22-3.36-26.39-8.09-5.29-3.06-10.47-6.35-15.97-8.96-2.35-1.11-5.41-1.11-8.12-.97-7.36,.37-11.18,5.75-14.45,11.35-1.48,2.54-2.94,5.82-2.62,8.55,.85,7.31,4.69,13.37,10.26,18.19,9.26,8.01,17.57,16.51,20.54,29.08,2.21,9.32,7.84,15.27,18.07,16.54,5.56,.69,10.95,2.8,16.38,4.41,10,2.99,16.48,10.43,22.74,18.16,5.66,6.97,6.16,14.5,2.18,22.24-1.77,3.44-4.12,6.74-6.81,9.52-5.67,5.83-11.93,11.1-17.59,16.94-4.34,4.47-8.01,9.8-7.68,16.3,.63,12.39,7.58,21.25,17.66,27.67,8.52,5.42,18.43,7.29,28.16,9.04,11.19,2.02,19.2,7.05,23.31,18.24,2.87,7.83,8.49,14.14,14.37,20.08,3.92,3.96,7.55,8.21,11.4,12.24,7.18,7.52,14.4,14.74,24.95,17.87,9.36,2.77,15.82,9.14,18.2,18.96,1.02,4.22,1.45,8.61,2.83,12.7,2.98,8.84,3.49,10.65,13.55,9.94,12.98-.91,24.47,3.62,35.91,8.71,10.54,4.69,19.79,11.12,27.79,19.5,4.2,4.4,9.12,8.15,15.4,9.1,9.18,1.4,18.13-6.18,20.93-14.49,3.3-9.78,3.32-19.95,3.46-30.01,.12-7.82,2.72-13.96,8.82-18.59,2.2-1.66,4.79-2.81,7.24-4.13,10.14-5.47,20.69-10.3,30.36-16.51,15.13-9.73,20.47-28.06,14.71-45.34-2.84-8.54-2.87-17.26,.35-25.89,4.22-11.32,7.83-22.88,12.43-34.03,3.18-7.7,6.59-15.48,13.48-21,7.08-5.65,14.84-7.95,23.65-5.38,5.52,1.61,11.1,3.2,16.34,5.5,10.78,4.74,21.91,7.16,33.67,7.27,5.84,.05,11.31-1.24,16.83-2.79,6.79-1.9,13.88-3.02,20.39-5.62,9.41-3.77,16.13-10.86,21.01-19.83,6.28-11.53,12.23-23.1,10.83-36.83-.36-3.51-1.1-6.99-1.8-10.46-3.53-17.44-6.93-34.9-16.32-50.48-6.9-11.47-9.61-24.45-12.76-37.25-1.98-8.04-3.83-9.09-9.1-10.41-8.59-2.14-17.32-3.73-25.88-6.02-8.72-2.34-17.17-3.17-24.99,2.38-4.39,3.12-8.86,6.27-12.68,10.04-7.55,7.46-15.88,13.79-25.58,17.99-6.31,2.73-13.13,2.72-19.96,1.07-10.26-2.49-15.77-10.19-19.84-18.76-5.04-10.63-7.63-22.08-6.44-34.01,.32-3.22,.84-6.69,2.31-9.5,8.22-15.71,20.51-27.56,36.31-35.39,11.25-5.58,17.5-14.53,21.4-25.99,2.98-8.77,6.64-17.45,14.94-22.72,13.28-8.44,27.86-13.05,43.61-13.61,3.77-.14,7.57,.73,11.36,.8,7.27,.14,14.58,.5,21.81-.07,9.39-.75,17.15-4.34,21.94-13.47,6.14-11.71,5.16-23.76,3-35.95-1.41-8.01-6.17-14.51-10.86-20.91-3.9-5.32-8.04-10.48-9.07-17.28-.32-2.12-.62-4.24-.91-6.37-1.08-7.83-5.79-13.68-10.97-19.03-7-7.22-9.61-15.42-6.71-25.04,2.68-8.89,6.01-17.7,14.55-22.65,8.18-4.74,17.33-7.19,26.77-7.26,13.17-.11,26.37,.28,39.53,.91,5.34,.26,10.74,1.27,15.89,2.73,6.02,1.71,8.31,7.06,5.89,12.6-1.25,2.84-3.13,5.4-4.46,8.22-1.39,2.94-2.63,5.98-3.64,9.08-1.77,5.44,.69,10.61,1.32,15.9,1.15,9.83,1.59,15.42-8.64,20.42-5.36,2.61-10.86,4.97-16.36,7.28-6.6,2.77-12.94,6.07-16.72,12.35-4.58,7.6-7.1,15.53-1.53,24.09,2.94,4.5,6.96,7.51,11.47,9.89,6.24,3.27,12.86,5.83,19,9.26,3.52,1.96,6.79,4.71,9.53,7.68,5.72,6.2,7.52,14.25,9.12,22.22,.98,4.9-.88,8.78-4.51,9.95-2.51,.81-5.14,1.23-7.71,1.86-9.85,2.41-19.69,4.88-29.55,7.26-15.98,3.86-25.25,14.57-30.47,29.55-2.68,7.68-2.13,15.76-3.11,23.65-.35,2.83,.41,5.84-.14,8.61-1.88,9.35-6.6,17.37-12.13,25.06-4.82,6.7-8.44,13.95-7.84,22.69,.33,4.78,3.88,8.31,8.69,7.69,5.92-.77,11.84-1.69,17.72-2.72,10.71-1.87,19.4-6.37,21.81-18.16,3.55-17.44,11.74-32.12,24.93-44.19,3.77-3.45,6.81-7.85,9.56-12.21,8.05-12.72,10.41-27.31,12.69-41.8,1.1-7.06,1.7-8.7,8.75-10.86,4.5-1.37,9.05-2.61,13.64-3.63,11.49-2.57,22.42-5.91,30.5-15.44,9.75-11.53,11.47-22.25,1.26-35.01-3.34-4.18-7.15-7.99-10.88-11.84-5.77-5.98-9.16-12.93-8.57-21.38,.38-5.62,1.39-11.2,1.72-16.82,.5-8.47,.89-16.97,.88-25.45,0-6.27,1.61-11.94,4.65-17.26,4.7-8.24,11.93-11.87,19.96-9.49,11.61,3.43,23.38,4.66,35.47,4.68,5.46,.01,11.39,1.26,16.23,3.69,5.27,2.65,9.73,7.1,14.18,11.16,6.41,5.85,7.03,13.15,5.15,21.33-2.09,9.09-4.35,18.22-3.74,27.71,.84,13.13-3.03,25.24-7.61,37.31-2.33,6.12-4.56,12.62-4.91,19.06-.92,17.18,14.59,28.27,29.81,29.31,10.33,.71,19.5-4.63,28.02-10,2.16-1.37,3.15-5.44,3.65-8.43,.97-5.82-1.54-11.32-4.59-15.77-7.06-10.32-8.57-21.01-5.34-32.86,2.94-10.75,9.96-14.01,19.59-8.6,1.31,.73,2.48,1.74,3.64,2.71,6.74,5.6,14,9.25,23.18,9.77,8.35,.47,16.43,2.79,23.74,7.82,8.54,5.87,17.57,11.15,26.79,15.91,7.76,4,10.54,10.25,11.38,18.3,.44,4.14,1.15,8.44,2.78,12.23,2.77,6.48,9.15,8.29,15.32,10.05,13.64,3.92,27.93,5.59,40.92,11.8,9.11,4.37,17.73,9.3,22.71,18.66,4.27,8.02,8.39,16.11,12.76,24.07,5.2,9.49,11.55,13.2,20.39,10.79,8.81-2.41,17.35-5.83,25.91-9.05,1.46-.55,2.61-2.21,3.65-3.56,6.99-9.13,5.56-23.4-.93-33.59-4.19-6.59-10.35-11.2-16.77-15.49-7.63-5.11-16.07-9.22-21.38-17.25-6.14-9.28-12.07-18.52-10.96-30.47,.57-6.12,5.4-9.68,11.45-8.76,5.06,.77,8.24,4.2,11.71,7.05,5.95,4.88,12.64,7.85,20.09,8.41,8.57,.64,16.72-1.45,24.58-5.24,8.59-4.13,15.3-13.51,11.42-26.49-1.77-5.89-2.83-12.05-3.64-18.16-.74-5.55-.73-11.2-.99-16.81-.23-4.71-3.86-7.06-7.68-4.46-3.9,2.65-7.48,5.82-10.93,9.05-4.55,4.24-10.06,6.18-15.94,5.72-7.51-.59-14.65-3.04-21.41-6.59-2.93-1.54-6.25-2.66-9.52-3.17-6.78-1.05-12.05,2.83-16.73,6.82-9.45,8.06-20.69,9.05-31.85,7.37-11.21-1.7-22.43-3.03-33.68-3.18-7.87-.1-15.78,1.48-23.63,2.57-8.8,1.22-14.95-2.47-20.59-9.01-6.38-7.42-13.41-14.25-23-17.97-7.81-3.03-15.12-7.33-22.8-10.73-7.53-3.34-15.06-6.7-23.61-6.96-6.59-.2-8.64-2.84-8.64-9.46,0-5.45,.09-10.91-.02-16.36-.28-13.79-5.4-25.75-15.07-35.36-8.36-8.32-17.2-16.2-26.38-23.59-5.2-4.18-11.03-7.91-18.07-8.8-7.59-.96-15.15-2.1-22.73-3.16h-.46c-4.24,.76-8.79,.79-12.66,2.43-8.14,3.44-11.27,10.93-13.78,18.91-2.93,9.31-5.54,18.59-12.91,26.12-6.91,7.08-18.23,5.3-23.87-.14-7.24-6.99-10.19-16.27-13.95-25.09-1.77-4.15-3.03-8.68-3.61-13.15-.82-6.28,1.29-12.06,4.88-17.26,3.08-4.47,6-9.27,6-14.59h-133.53c-1.89,3.11-3.51,6.43-4.85,10-3,7.99-5.84,16.2-11.7,22.78-3.08,3.45-6.39,6.74-9.04,10.49-5.13,7.26-11.44,12.17-20.49,13.73-5.09,.88-10.49,2.77-12.2,8.53-1.67,5.62-3.17,11.44-3.59,17.25-.64,9.08,.22,17.99,3.27,26.89,2.74,8.03,1.97,15.83-5.55,22.35-7.74,6.71-14.34,14.73-21.52,22.1-4.47,4.58-8.5,10.03-15,11.75-11.87,3.14-23.78,3.04-35.43-1.3-13.36-4.97-26.96-8.55-41.37-8.75-3.65-.05-7.43-1.29-10.87-2.68-6.61-2.67-11.2-8.08-15.91-13.14-7.18-7.72-15.44-12.64-26.4-12.31-4.14,.12-7.23-2.66-8.49-6.33-1.08-3.16,.34-6.16,2.98-8.65,3.34-3.15,6.7-5.89,11.41-6.82,4.75-.93,9.35-2.66,14.11-3.52,14.18-2.56,28.09-5.95,40.88-12.82,9.26-4.98,18.37-10.22,20.05-22.23,1.26-9.03-.15-17.45-4.55-25.47-3.72-6.8-10.05-10.45-16.41-14.05-11.91-6.76-23.92-13.36-35.89-20.03-4.61-2.57-9.15-5.25-13.78-7.77"/><path class="d" d="M1337.57,792h-210.05c-.11-.96-.24-1.91-.39-2.86-1.21-7.57-4.79-13.86-13.07-15.91-5.13-1.27-10.26-2.61-15.45-3.62-12.15-2.35-15.83-4.13-19.51-17.31-1.9-6.8,2.26-17.7,8.21-20.79,3-1.55,6.55-2.34,9.95-2.76,12.21-1.52,21.16-7.18,26.44-18.67,3.51-7.64,6.87-15.43,12.59-21.9,7.49-8.46,19.29-13.94,30.45-4.89,4.13,3.35,7.57,7.56,11.43,11.28,5.25,5.05,10.03,10.85,16.01,14.84,12.2,8.13,25.61,14.32,37.68,22.8,12.75,8.97,25.96,17.16,36.89,28.6,5.74,6.02,13.79,8.39,22.11,9.81,6.78,1.16,13.7,2.73,19.93,5.52,7.65,3.42,14.6,8.34,21.92,12.51,1.75,1,3.37,2.11,4.86,3.35Z"/><path class="d" d="M1536.23,598.66c-.47,4.88-1.32,10.03-5.84,13.15-3.63,2.5-7.32,5.15-11.37,6.75-10.54,4.16-16.27,12.08-20.11,22.33-2.26,6.02-4.9,12.17-10.29,16.43-3.49,2.76-7.56,4.6-11.81,3.93-6.47-1.02-12.07-4-16.96-8.82-5.27-5.2-8.26-11.66-11.59-17.9-4.14-7.76-10.1-12.94-18.28-15.88-11.55-4.15-23.12-8.25-34.53-12.76-11.17-4.42-22.14-9.35-33.21-14.03-5.2-2.2-9.72-4.99-12.34-10.42-2.71-5.61-5.79-11.07-9.06-16.38-6.38-10.36-14.98-18.84-23.6-27.29-7.14-7.01-15.17-12.69-24.54-16.37-5.76-2.26-12.41-.54-15.52,4.05-4.73,7-3.59,14.29-2.28,21.87,1.38,7.98,2.7,16.03,3.11,24.09,.38,7.54-.65,15.14-.71,22.72-.08,8.73,5.32,16.28,13.6,19.05,8.72,2.91,17.67,5.17,26.32,8.3,11.79,4.26,17.17,10.1,17.12,24.01-.03,10.46-1.65,20.91-2.54,31.36-.34,3.94-.61,7.88-.92,11.82-.3,3.79-1.6,7.83-.7,11.31,1.94,7.6-.06,14.93-.4,22.32-.29,6.25-2.45,12.4-3.4,18.65-1.67,11-5.47,14.07-14.63,17.62-2.47,.96-5.47,.46-8.13,1.05-12.05,2.71-22.7,.18-31.82-8.23-3.86-3.56-7.23-7.75-11.45-10.79-6.51-4.67-13.53-8.64-20.38-12.83-9.98-6.1-19.67-12.79-30.09-17.99-9.2-4.59-17.57-9.82-24.49-17.44-3.88-4.28-7.91-8.49-12.28-12.25-11.75-10.12-23.62-11.73-36.33-1.89-6.63,5.13-11.34,11.8-14.91,19.15-6.63,13.67-16.78,20.98-32.32,22.52-12.54,1.25-16.94,7.11-19.54,19.26-.25,1.16,.16,2.46-.07,3.63-1.84,9.4-1.2,18.84,.15,28.17,.96,6.57,4.31,8.27,11.24,8.75,7.76,.53,15.37-2.2,23.22-.21,7.23,1.83,13.04,3.29,15.32,12.41l.03,.12h-266.61c-.23-5.3,.28-10.52,2.38-15.5,3.91-9.25,9.55-17.81,14.85-26.41,2.74-4.45,7.34-6.82,12.63-5.88,11.39,2.03,20.71,7.99,28.66,16.27,3.86,4.01,7.41,8.53,11.9,11.69,8.53,5.99,18.2,8.3,26.66,2.77,6.26-4.09,11.04-10.04,13.08-17.22,2.23-7.83,3.2-16.02,4.71-24.05,1.2-6.46,2.42-12.73,6.69-18.28,4.69-6.1,11.27-9.16,17.39-13.09,7.46-4.8,15.26-9.18,22.18-14.66,8.76-6.93,13.71-16.77,17.31-27.17,1.59-4.57,3.44-9.37,3.45-14.07,.01-5.45-1.49-11.02-3.02-16.34-2.25-7.85-3.4-15.47-1.4-23.69,2.68-11.07,7.81-20.87,14.33-29.89,6.77-9.38,13.56-9.94,23.56-3.77,6.48,4,13.24,6.32,21.38,4.35,6.72-1.62,13.88-1.83,20.86-1.92,9.23-.11,18.48,.74,27.72,.73,7.64,0,15.21-1.62,21.75-5.49,11.48-6.8,21.16-15.52,26.96-28.03,3.68-7.92,8.23-15.43,12.16-23.24,2.91-5.8,6.6-11.34,6.87-18.16,.26-6.67,.84-13.34,.83-20-.01-6.65-1.75-12.99-5.4-18.63-6.31-9.73-12.75-19.38-19.07-29.11-4.39-6.76-7.73-13.81-7.35-22.26,.34-7.84,3.9-12.84,11.42-15.49,10.4-3.66,20.06,.35,22.35,12.75,.78,4.17,2.25,8.23,3.59,12.28,2.48,7.47,7.3,10.91,14.98,10.91,4.55,0,9.09,.07,13.64-.02,3.99-.07,7.75,.82,10.88,3.24,10.07,7.79,20.16,15.56,29.98,23.66,6.61,5.45,12.35,12.03,19.24,17.08,10.12,7.41,21.8,10.68,33.9,5.83,7.06-2.84,14.09-4.03,21.45-4.3,6.87-.26,13.09-2.3,18.12-6.92,3.94-3.61,7.62-7.59,10.91-11.8,6.98-8.91,11.73-18.91,12.29-30.41,.64-13.32,11.83-22.01,24.55-18.05,8.75,2.73,17.37,6.39,23.63,13.55,8.06,9.23,16.05,18.56,23.61,28.19,7.98,10.17,17.97,15.62,30.98,15.46,2.57-.04,5.23,.25,7.71,.92,6.48,1.74,7.93,7.17,3.16,11.71-1.56,1.49-3.59,2.48-5.42,3.68-3.48,2.28-7.09,4.37-10.43,6.85-10.06,7.49-20.07,15.06-30,22.72-5.11,3.95-10.32,7.85-14.92,12.35-3.4,3.34-6.32,7.43-6.44,12.63-.2,8.41,9.09,18.64,18.6,20.94,7.86,1.9,15.61,1.88,23.67,1.08,9.3-.91,18.81-.79,28.15-.03,8.13,.65,14.59,4.96,17.72,13.01,3.23,8.33,4.41,17.05,3.55,25.89Z"/><path class="d" d="M604.47,101.27c-10.66,4.25-21.67,7.73-32.7,10.93-7.25,2.11-14.87,2.94-22.21,4.79-2.18,.54-4.91,2.2-5.7,4.06-.96,2.26,1.93,3.43,3.85,4.46,.18,.09,.28,.33,.46,.44,10.99,6.64,14.21,16.81,11.68,28.61-3.07,14.31-6.38,28.51-7.29,43.2-.24,4-1.53,8.35-3.63,11.74-5.52,8.89-13.49,15.32-23.05,19.6-5.25,2.35-8.91,1.48-12.69-2.72-1.8-2-3.39-4.19-5.02-6.34-7.76-10.26-18.48-14.88-30.92-15.85-7.85-.61-15.82-.12-23.61-1.09-11.94-1.49-23.37-7.93-22.74-23.97,.27-6.97,.71-13.93,.87-20.91,.15-6.29-1.51-8.17-7.69-9.54-12.28-2.72-24.6-5.27-36.81-8.25-7.49-1.83-14.71-5.27-16.11-13.61-.95-5.68-.02-11.92,1.24-17.65,2.24-10.1,.83-18.99-6.05-26.85-6.18-7.06-11.54-14.81-14.36-23.7-2.34-7.38-6.11-14.52-5.67-22.67,.23-4.22,1.48-6.16,5.44-5.26,4.43,.99,8.8,3,12.71,5.36,6.43,3.9,12.97,7.6,20.52,7.95,7.24,.33,14.54-.42,21.81-.79,11.22-.56,22.42-1.31,33.64-1.77,10.36-.42,16.42,3.67,19.65,14.03,2.33,7.44,5.33,14.72,8.61,21.81,4.24,9.15,7.06,18.57,6.67,28.67-.39,10.35,2.87,18.82,10.95,25.49,6.99,5.76,14.33,8.49,23.22,4.55,7.45-3.3,13.64-8.23,18.98-14.22,.75-.85,.5-3.09,0-4.42-.67-1.81-1.99-3.39-3.09-5.03-4.75-7.17-7.03-15.14-7.19-23.64-.1-5.15,.29-10.33,.91-15.45,.56-4.63-1.22-8.46-3.82-11.74-2.7-3.41-6.14-6.28-9.46-9.14-6.28-5.41-12.9-10.42-19.01-16.01-5.05-4.62-7.69-10.76-6.76-17.64,.81-5.99,2.53-11.86,3.99-17.74,.08-.32,.16-.64,.23-.96h68.06c.87,6.48-.15,12.77-1.05,19.13-1.23,8.81-4.72,17.24-4.12,26.37,.31,4.83,2.94,7.47,7.77,7.77,8.53,.54,16.86-2.69,25.47-1.02,4.62,.89,9.12,1.98,12.68,5.1,8.42,7.37,13.63,17.21,18.41,26.91,4.19,8.52,3.32,12.88-7.07,17.01Z"/><path class="d" d="M943.36,0c5.79,6.27,13.13,10.76,20.72,15.02,8.27,4.65,16.8,8.86,24.95,13.72,10.64,6.35,15.92,16.62,19.09,28.13,1.44,5.24,3.17,10.55,3.53,15.91,.78,11.87-4.22,18.7-17.57,22.31-12.8,3.46-25.64,6.6-36.92,14.36-9.24,6.36-9.49,17.34-3.9,25.07,5.23,7.23,12.97,10.55,21.69,12.48,10.43,2.3,20.72,5.35,30.92,8.56,13.97,4.41,27.23,4.64,38.6-6.03,8.59-8.05,17.12-16.26,24.9-25.08,4.43-5.03,5.38-11.73,3.38-18.51-.33-1.12-.05-2.41-.05-3.62,0-8.19,.12-16.37-.03-24.55-.13-6.82-.38-13.65-.92-20.45-.75-9.38,3.96-13.97,12.35-15.76,20.86-4.46,35.03-17.35,45.83-34.73,1.37-2.21,2.6-4.51,3.77-6.83h-190.34Zm693.84,105.5c-1.51-17.54-14.14-25.99-28.26-31.99-7.75-3.29-15.97-1.15-22.67,5.1-5.38,5.03-9.05,11.2-12.57,17.4-6.36,11.17-13.33,12.14-21.43,2.19-7.48-9.18-14.49-18.77-19.5-29.55-5.02-10.81-13.29-17.07-24.59-20.06-3.49-.93-6.91-2.6-9.98-4.53-4.54-2.86-6.1-10.19-3.15-15.79,3.6-6.85,7.87-13.33,11.71-20.06,1.49-2.61,2.46-5.37,3.08-8.21h-216.49c.02,.62,.03,1.24,.03,1.86,.03,6.11-1.19,12.39-3.81,18.21-1.65,3.66-3.33,7.45-4.02,11.36-1.21,6.76,4.28,18.81,12.62,17.31,4.52-.81,6.93-3.81,9.07-7.33,2.75-4.54,5.3-9.2,8.22-13.61,4.93-7.47,11.75-12.12,20.88-12.73,6.65-.44,13.35-1.11,19.99-.83,11.37,.48,21.92-1.66,31.86-7.32,6.39-3.64,10.5-2.09,10.64,4.95,.24,12.77,7.25,21.52,15.25,29.97,10.3,10.87,19.19,22.71,25.39,36.41,1.66,3.65,2.9,7.51,4.11,11.35,2.2,6.95,5.37,13.11,10.86,18.25,8.63,8.08,17.59,15.61,28.28,20.79,5.19,2.51,10.77,4.23,15.83,6.96,4.37,2.37,8.99,5,12.18,8.67,7.41,8.53,18.18,9.02,27.84,4.78,8.36-3.67,16.53-7.86,24.55-12.25,9.54-5.23,14.41-5.02,23.22,1.87,2.71,2.11,5.31,3.99,9.03,4.8,4.29,.93,7.8-.35,10.88-2.2,7.67-4.59,14.69-10.28,22.42-14.75,8.6-4.98,9.25-12.68,8.53-21.02Z"/><path class="d" d="M362.74,677.76c-.59,10.19-7.67,14.4-15.92,10.42-4.2-2.04-8.29-4.36-12.27-6.81-12.43-7.63-25.58-12.67-40.47-11.79-5.46,.32-10.92,.9-16.37,.85-9.95-.11-19.25-2.86-27.71-8.14-9.17-5.71-18.39-11.1-29.07-13.74-5.89-1.45-10.13-5.64-12.76-11.24-1.5-3.19-3.01-6.38-4.55-9.54-3.77-7.74-8.12-15.25-11.23-23.24-4.99-12.79-6.25-24.75,6.23-34.5,.34-.26,.61-.6,.91-.9,6.69-6.64,10.31-14.51,9.53-24.09-.2-2.58-.54-5.16-.9-7.73-.72-5.15-1.53-10.3-2.26-15.45-1.38-9.85-2.74-19.7-4.09-29.55-.64-4.69-.83-9.48-1.91-14.07-1.57-6.68-7.04-10.31-14-10.51-13.65-.39-25.03,4.84-34.48,14.2-7.46,7.38-14.37,15.33-21.41,23.13-5.09,5.64-8.01,12.49-7.15,19.96,1.48,12.9,8,23.48,18.58,30.8,12.45,8.63,15,20.81,12.9,34.19-2.22,14.1-10.09,25.12-22.04,33.27-9,6.13-19.14,8.37-29.59,9.93-7.08,1.06-13.85,3.29-17.14,10.07-4.68,9.64-7.97,19.64-5.72,30.87,1.74,8.67,3.25,17.49,8.04,24.86,5.14,7.93,11.2,15.39,17.73,22.22,3.54,3.69,8.61,6.89,13.52,8.08,9.61,2.34,18.75-1.01,25.72-7.59,11.53-10.87,22.27-22.57,33.3-33.97,3.57-3.7,6.75-7.81,10.51-11.3,9.23-8.6,17.48-7.81,25.83,.43,3.36,3.31,6.57,6.8,9.55,10.45,12.1,14.83,21.81,31.22,29.36,48.71,3.54,8.23,3.63,17.4-1.15,25.81-4.64,8.18-6.24,17.1-6.9,26.36-.09,1.27-.21,2.53-.38,3.79H.9v-83.74c3.66-4.02,5.95-9.12,6.32-14.59,.64-9.45-1.08-18.62-3.51-27.75-1.14-4.28-2.1-8.64-2.81-13.03-.31-1.86-.57-3.72-.79-5.59-.27-2.3-.06-3.73,.79-4.6,.88-.94,2.5-1.24,5-1.32,6.52-.21,13.17,.14,19.51-1.07,7.96-1.53,14.21-6.39,19.18-12.96,4.74-6.28,10.4-11.82,17.7-14.97,11.46-4.93,18.55-13.18,20.35-25.54,.86-5.88-1.59-17.39-8.07-21.85-5.96-4.1-12.78-5.08-19.58-6.3-7.71-1.39-15.31-2.8-21.88-7.66-3.29-2.44-7.01-4.84-10.9-5.79-4.79-1.17-9.94-.87-14.95-1.09-2.32-.1-4.45-.5-6.36-1.27v-26.96c2.66-2.48,5.51-4.8,8.22-7.2,1.39-1.22,3.22-2.07,4.97-2.74,7.44-2.82,14.69-1.1,21.8,1.35,13.37,4.61,26.47,4.95,39.09-2.32,4.47-2.58,9.08-5.07,13.13-8.23,6.55-5.12,12.04-11.1,15.65-18.95,4.59-9.96,9.99-19.45,17.91-27.47,5.12-5.19,9.35-11.42,13.2-17.67,4.01-6.49,6.93-13.65,10.61-20.36,6.23-11.36,18.68-17.92,29.01-14.45,17.92,6.03,33.52,15.65,41.71,33.59,4.63,10.13,11.87,17.76,20.24,24.37,8.34,6.58,12.64,14.96,14.5,25.1,1.3,7.14,2.57,14.22,5.7,20.99,2.77,6,4.65,12.54,5.94,19.04,1.75,8.84,2.39,17.88,3.82,26.79,1.56,9.7,5.25,18.06,15.4,21.84,6.25,2.33,12.39,4.92,18.65,7.24,12.3,4.55,23.05,10.75,27.78,24.08,.92,2.59,2.46,5.02,4.07,7.27,4.58,6.44,9.43,12.7,14.03,19.13,6.15,8.61,8.64,18.8,11.76,28.65,2.23,7.08,5.09,14.08,4.65,21.79Z"/><path class="d" d="M1894.3,247.82c1.43,5.61,4.19,10.35,6.53,15.43,2.9,6.3,5,12.87,4.59,19.97-.29,4.85-.17,9.78-1.02,14.53-1.06,5.97-3.3,11.36-10.8,11.87-6.82,.46-13.64,1.69-20.45,1.66-9.15-.04-17.82,1.96-26.34,4.74-7.35,2.4-15.04,4.68-19.06,12.23-1.69,3.16-2.93,6.59-4.12,9.98-2.92,8.33-5.74,9.84-14.1,10.6-9.75,.89-18.21-9.58-15.56-20.63,1.06-4.43,3.4-7.75,6.43-10.91,5.21-5.44,11.49-9.99,14.57-17.25,4.37-10.31,9.18-20.46,13.09-30.94,6.1-16.39,11.87-32.91,17.23-49.55,2.27-7.03,3.12-14.52,4.68-21.78,1.96-9.1,2.52-18.34-.16-27.23-2.56-8.5-1.37-17-1.53-25.5-.06-3.17,.97-6.53,2.23-9.51,2.52-5.97,6.75-6.78,11.23-2.26,2.95,2.96,5.57,6.26,8.21,9.51,4.26,5.27,8.17,10.66,13.54,15.13,11.55,9.62,26.24,9.18,37.41,2.25v61.43c-4.99,2.16-10.32,3.52-15.5,5.21-9.82,3.22-13.39,12.07-11.1,21.02Z"/><path class="d" d="M1681.55,0c-1.49,3.15-2.46,6.6-3.36,10.06-2.24,8.65-5.82,16.08-13.59,21.47-9.9,6.86-18.89,14.86-26.54,24.35-5.01,6.21-11.5,9.02-19.94,6.54-10.92-3.21-22.1-5.34-33.61-4.65-.6,.03-1.43,.26-1.78-.04-2.45-2.1-3.73-1.4-5.12,1.36-1.61,3.21-3.74,6.19-5.84,9.12-5.66,7.89-14.85,10-20.92,2.31-4.07-5.14-2.39-10.61,4.13-11.77,5.39-.96,10.89-1.47,16.36-1.79,2.08-.13,4.23,.81,6.36,1.27l1.81-1.82c1.37-4.24,3.36-8.4,3.98-12.75,1.76-12.42-2.77-22.96-10.78-32.26-6.49-7.53-15.19-9.83-24.55-10.97-1.12-.14-2.25-.27-3.39-.43h136.78Z"/><path class="d" d="M1646.33,585.49c1.83,7.31,1.38,14.64-.51,21.8-2.33,8.83-8.23,15.16-15.39,20.49-8.2,6.09-13.36,13.68-12.33,24.53,.59,6.19,1.17,12.46,.78,18.62-.27,4.15-1.37,8.78-3.65,12.16-4.22,6.28-11.36,5.78-17.48,4.03-8.4-2.42-16.46-6.06-24.59-9.39-9.79-4-19.59-7.28-30.47-5.48-8.86,1.46-16.82,6.36-16.29,17.78,.2,4.26,.73,8.6,1.83,12.71,3.17,11.8,7.65,23.04,18.15,30.41,4.71,3.29,9.85,6.02,14.98,8.64,4.5,2.31,8.08,5.37,9.94,10.07,2.99,7.54,6,15.07,8.58,22.75,1.15,3.45,1.96,7.28,1.76,10.87-.16,2.88-1.21,4.95-2.83,6.52h-136.39c-1.66-3.42-2.93-7.03-4.17-10.64-3.46-10.04-8.93-18.41-18.33-23.5-6.24-3.39-12.95-5.92-19.5-8.72-13.53-5.78-25.22-14.57-37.21-22.82-5.95-4.09-11.79-8.45-15.1-15.36-4.31-8.99-5.71-18.17-4.71-28.22,.93-9.51,2.59-18.7,5.64-27.71,1.63-4.81,3.65-9.6,4.43-14.56,1.32-8.3-2.38-15.37-6.6-22.3-3.05-5.02-6.89-7.26-12.81-6.86-6.64,.46-13.22,1.52-20.03,.26-7.11-1.32-14.17-2.52-19.92-7.05-8.66-6.82-8.43-16.77-7.61-26.29,.76-8.85,2.95-17.57,4.35-26.38,1.08-6.76,4.44-10.71,12.75-7.71,13.29,4.8,23.47,13.58,29.83,25.99,4.01,7.83,6.29,16.56,9.25,24.91,2.47,6.96,4.93,8.57,12.28,9.19,4.44,.37,8.96,1.26,13.16,2.71,13.87,4.78,27.64,9.83,41.39,14.94,12.71,4.72,23.63,11.95,30.41,24.09,6.59,11.79,16.46,20.07,27.83,26.7,4.37,2.54,9.2,5.13,14.07,5.77,9.97,1.32,19.18-7.2,21.72-16.15,1.27-4.44,1.8-9.09,2.81-13.61,1.98-8.86,5.47-16.85,13.64-21.79,2.89-1.74,5.95-3.31,9.09-4.54,10.03-3.93,12.94-12.42,13.47-21.87,.42-7.38-.31-14.85-.82-22.26-.28-4.11-1.44-8.16-1.7-12.28-.51-8.03,.56-11.98,7.72-14.39,5.04-1.69,10.54-2.58,15.86-2.71,5.74-.13,11.57,.71,17.26,1.72,14.27,2.53,28.48,5.45,42.74,8.09,8.24,1.52,15,5.54,18.9,12.85,2.22,4.16,2.63,9.29,3.82,13.99Z"/><path class="d" d="M1920.9,414.69v377.31h-271.44c1.07-1.62,1.86-3.61,2.32-6.06,.93-4.99,1.74-10.01,2.76-14.99,1.05-5.14,4.53-8.33,9.06-8.65,3.49-.26,6.97-.81,10.46-.86,6.45-.07,11.65-2.71,15.89-7.33,8.7-9.49,17.47-18.92,25.83-28.71,2.9-3.4,4.78-7.72,6.89-11.74,4.25-8.13,3.41-17.22,4.46-25.91,.86-7.05,3.28-12.95,9.69-16.28,6.49-3.37,13.21-6.36,19.99-9.11,9.84-3.99,13.57-9.42,11.24-18.66-1.88-7.5-6.52-12.81-13.94-16.05-9.16-4-18.38-8.28-24.13-17.17-4.7-7.28-7.85-15.33-9.91-23.65-2.81-11.37-2.92-22.81,1.22-34.08,2.8-7.64,5.18-15.44,7.77-23.17,1.9-5.67,2.64-11.34,.96-17.28-2.18-7.67-3.93-15.46-5.98-23.17-3.75-14.11,.57-23.06,9.64-30.36,4.42-3.56,9.43-6.52,14.5-9.12,13.28-6.8,19.15-17.97,21.06-32.31,.91-6.81,3.3-13.54,5.84-19.98,3.41-8.64,10.31-15.02,15.74-22.36,2.8-3.78,5.76-7.02,10.51-8.14,9.26-2.2,17.98-.27,26.87,2.55,6.17,1.96,8.84,6.03,10.39,11.54,3.97,14.13,4.36,28.16-.37,42.29-3.74,11.16-7.47,22.36-4.69,34.54,2.31,10.08,3.79,20.34,6.06,30.42,1.51,6.69,1.95,6.64,8.56,5.04,3-.73,6.07-1.16,9.08-1.85,7.23-1.66,13.62-5.16,18.55-10.53,6.02-6.55,10.29-14.4,12.29-23.11,3.21-13.98,8.43-26.97,16.87-38.63,4.63-6.39,7.35-7.56,14.55-4.95,.47,.17,.94,.35,1.41,.52Z"/><path class="d" d="M37.62,0c-1.43,9.39-2.21,18.91-4.13,28.2-2.77,13.45-6.13,26.81-10.01,39.98-2.51,8.54-7.79,15.41-16.67,18.69-1.97,.73-3.94,1.49-5.91,2.25V494.25c3.67-2.04,7.9-3,12.73-2.98,10.71,.04,20.87,2.68,30.86,5.74,10.41,3.2,19.54,1.92,28.74-3.7,10.09-6.16,19.61-13.1,24.74-23.82,5.72-11.93,14.13-21.37,23.39-30.36,6.19-6.01,10.26-13.31,13.19-21.36,3.69-10.13,7.98-19.81,16.28-27.35,9.38-8.52,21.9-9.69,32.33-3.55,2.47,1.45,4.84,3.05,7.29,4.53,15.3,9.23,28.31,21,38.08,35.97,5.83,8.95,12.39,17.14,20.08,24.5,1.47,1.41,2.83,2.95,4.09,4.54,6.99,8.88,10.38,19.66,15.57,29.48,3.65,6.9,3.8,14.06,3.5,21.42-.1,2.43-.79,4.85-.83,7.27-.13,6.37-.39,12.75,.05,19.09,.48,6.8,1.49,13.55,5.32,19.57,4.95,7.78,12.57,11.43,20.97,13.53,8.84,2.2,17.83,3.89,26.81,5.47,4.17,.73,8.55,1.34,12.7,.84,8.69-1.06,17.4-2.42,25.89-4.53,9.99-2.48,15.22,1.2,18.21,8.31,3.05,7.26,6.75,14.34,8.92,21.86,2.85,9.86,1.12,13.92-7.56,18.57-2.21,1.18-4.5,2.23-6.82,3.18-7.74,3.19-9.9,6.4-10.01,14.57-.11,8.79,1.98,17.11,4.45,25.48,3.14,10.62,7.02,21.12,4.78,32.72-2.19,11.29-14.04,18.89-25.05,11.24-6.88-4.77-12.89-10.8-19.67-15.74-8.92-6.49-18.39-10.03-30.01-6.65-8.82,2.56-18.04,2.06-27.26-.5-7.77-2.15-15.97-2.95-24.05-3.71-5.84-.55-8,2.77-6.34,8.52,2.9,10.05,7.05,19.53,12.19,28.67,7.58,13.45,16.27,25.55,31.42,31.36,5.4,2.07,9.02,5.98,9.97,11.79,.95,5.86,1.32,11.51-3.5,16.45-4.09,4.18-9.1,4.4-14.18,4.89-8.35,.8-15.72,2.68-19.19,11.8-.08,.21-.16,.43-.25,.64h150.85c.9-.49,1.8-.98,2.7-1.48,5.45-3.01,10.34-6.63,13.12-12.32,5.07-10.39,4.27-21.14-.16-31.26-2.87-6.53-7.73-12.17-11.6-18.28-2.89-4.56-4.84-9.9-3.45-14.93,2.81-10.19,6.52-20.15,10.32-30.03,3.91-10.17,11.08-18.26,18.09-26.41,9.18-10.69,12.87-22.18,5.1-35.48-2.47-4.22-1.71-8.42,5.38-8.59,9.22-.22,16.64-3.17,20.02-12.72,2.59-7.32,5.29-14.61,8.19-21.81,4.42-10.95,10.66-20.48,22.26-24.96,7.66-2.97,15.37-3.82,22.72,1.28,4.16,2.89,7.02,6.86,8.51,11.43,2.82,8.66,8.04,14.89,16.96,16.64,10.92,2.16,19.16,7.91,26.43,15.96,3.06,3.4,7.07,5.99,10.84,8.69,5.54,3.99,12.28,3.63,18.62,4.51,2.73,.37,5.07,.95,7.3,2.74,5.96,4.81,4.61,11.14,2.93,16.81-1.6,5.44-4.79,10.45-7.54,15.5-10.27,18.86-26.2,32.73-41.86,46.76-5.31,4.75-11.86,8.11-17.12,12.9-11.06,10.05-18.64,22.83-24.37,36.38-3.2,7.57-3.7,15.99-.48,24.52,2.49,6.6,6.67,11.49,11.67,15.71,3.02,2.55,5.55,5.42,7.9,8.44h179.55c5.74-6.93,11.57-13.82,18.03-20.03,10.9-10.5,22.34-10.45,33.52-1.03,6.79,5.73,9.71,13.09,11.19,21.06h62.83c-.01-8.81,1.43-17.46,3.55-26.1,1.5-6.13,3.73-12.61,1.03-19.03-4.15-9.91-5.43-14.21-17.29-8.3-3.15,1.57-6.88,2.48-10.41,2.71-7.52,.5-14.94-.08-22.31-2.45-5.68-1.83-11.6-1.69-17.29,1.55-4.22,2.39-8.97,3.91-13.58,5.53-8.93,3.14-17.55,2.9-25.93-2.18-7.18-4.35-12.51-10.31-16.77-17.34-5.73-9.45-12.42-17.94-21.81-24.12-11.31-7.43-22.63-14.87-33.61-22.77-8.74-6.28-8.74-7.82-5.54-18.11,4.19-13.52,6.93-27.37,9.19-41.34,1.63-10.06,3.86-20.02,5.85-30.01,.99-4.99,.7-9.71-2.26-14.11-3.84-5.7-9.97-8.42-15.53-11.7-8.79-5.19-14.35-12.53-16.22-22.39-1.36-7.19-1.52-14.6-2.94-21.78-.99-4.98-2.12-10.57-5.1-14.39-6.05-7.72-12.99-14.9-20.33-21.42-9.34-8.3-17.82-16.96-23.7-28.21-3.16-6.04-8.31-11.03-15.75-11.84-6.02-.65-12.12-.58-18.17-1.01-5.94-.42-11.32-2.08-15.97-6.27-7-6.3-9.56-14.67-11.72-23.25-2.18-8.68-4.35-17.17-13.2-21.85-5.88-3.11-11.45-6.8-17.32-9.91-4.82-2.55-9.93-4.16-15.43-1.87-6.21,2.58-12.83,4.47-18.56,7.86-13.69,8.12-28.42,8.41-43.22,6.02-10.33-1.65-20.42-4.98-30.47-8.05-9.95-3.04-19.64-6.36-26.99-14.79-5.93-6.8-7.45-18.37-3.91-26.03,3.73-8.08,10.3-14.02,16.94-19.37,8.39-6.76,15.82-13.98,21.28-23.33,3.68-6.29,9.28-10.98,14.93-15.49,4.4-3.5,7.33-7.97,6.68-13.62-.56-4.92-2.1-9.77-3.54-14.55-1.94-6.42-4.06-12.79-6.37-19.09-1.74-4.78-3.25-9.82-5.99-14.02-6.52-10.02-16.48-14.88-28.05-16.93-12.1-2.13-23.05,.24-33.23,7.24-6.52,4.48-10.21,11.07-14.54,17.3-6.93,9.99-11.97,21.41-21.38,29.51-6.05,5.21-12.34,10.3-19.1,14.5-12.06,7.46-16.28,19.31-19.45,31.94-2.24,8.91-4.09,17.92-6.46,26.79-1.4,5.24-3.55,6.26-9.02,5.48-2.42-.34-4.86-.54-7.27-.93-6.22-1.02-12.57-1.59-18.61-3.28-11.02-3.09-22.07-6.3-32.69-10.51-9.63-3.81-18.37-10.26-15.28-24.88,2.61-12.32,8.55-21.12,19.73-26.83,12.5-6.38,25.9-9.42,39.57-11.78,9.01-1.56,15.56-5.37,15.47-17.7-.07-9.55-.05-19.09,.03-28.64,.01-1.52,.46-3.06,.89-4.54,1.62-5.62,3.07-11.3,5.03-16.8,3.16-8.85,.9-15.72-6.43-21.82-4.31-3.59-8.86-6.89-13.15-10.5-9.29-7.81-14.45-18.85-21.77-28.21-.78-.99-.8-2.66-.95-4.04-.65-5.88,1.05-10.96,4.94-15.48,5.89-6.84,10.46-14.55,13.15-23.17,1.86-5.96,3.4-12.05,4.54-18.18,1.43-7.72,1.82-15.58-.88-23.15-2.68-7.48-6.44-14.3-12.14-20.11-3.38-3.44-6.2-7.58-8.63-11.78-2.72-4.7-.85-12.85,2.57-16.82,.83-.97,1.74-1.69,2.7-2.26M64.33,571.68c-3.98-2.85-10.1-3.74-15.25-3.71-11.48,.07-22.5-1.15-33.21-5.59-4.91-2.03-9.96-3.76-14.97-5.55v64.18c2.45,.56,4.89,1.25,7.33,2,5.89,1.82,12.17,4.97,18.53,1.93,4.03-1.92,8.16-4.21,11.3-7.29,6.15-6.04,13.07-10.76,20.51-14.98,3.34-1.89,6.81-4.25,9.02-7.27,6.95-9.56,5.22-17.66-3.26-23.72Z"/><path class="d" d="M170.9,593.67h-.45c-3.79,5.61-7.63,11.18-11.35,16.82-9.17,13.89-22.46,22.43-37.27,29.12-5.55,2.51-11.58,4.6-16.23,8.33-7.9,6.33-9.73,15.08-8.57,25.3,1.16,10.28,5.54,18.57,12.19,25.77,3.54,3.83,8.08,6.98,12.68,9.52,4.51,2.5,9.32,1.22,13.56-1.68,8.64-5.91,17.3-11.77,25.9-17.74,6.68-4.64,10.98-11.41,14.9-18.23,4.65-8.07,7.74-16.56,8.57-26.28,1.36-16.16-1.3-31.12-8.45-45.48-1.22-2.46-2.45-4.82-5.47-5.45Z"/><path class="d" d="M1920.9,325.36v56.82c-2.72,2.19-5.49,4.31-8.33,6.32-7.73,5.45-7.13,5.65-14.85-.31-2.89-2.22-5.55-4.75-8.2-7.25-6.2-5.87-13.35-9.94-21.83-11.33-6.34-1.04-12.73-1.79-19.09-2.77-4.29-.66-7.34-3.15-8.57-7.27-1.2-4.01-1.95-8.15-2.78-12.26-1.97-9.7,1.35-17.62,9.55-22.24,6.31-3.55,13.25-5.19,20.44-5.45,10.55-.38,20.73,1.91,30.94,4.39,7.4,1.8,14.92,2.63,22.72,1.35Z"/><path class="d" d="M1237.7,376.97c10.07,.46,18.16-4.37,26.31-8.86,7.49-4.13,14.7-9.08,23.27-10.13,4.85-.59,10.16,.36,14.94,1.73,10.17,2.92,15.1-2.4,18.66-9.68,.86-1.77,1.58-3.61,2.28-5.45,3.81-10.06,11.76-10.52,20.01-8.2,4.21,1.19,8.42,2.57,12.73,3.12,11.05,1.41,18.38-4.29,23.09-13.6,2.87-5.68,4.57-11.96,7.45-17.64,3.55-7.01,7.94-13.6,11.67-20.53,2.1-3.9,4.38-8.2,1.78-12.64-1.6-2.73-3.82-5.34-6.33-7.25-7.86-5.98-15.98-11.62-24.03-17.35-6.18-4.4-9.81-10.59-11.21-17.76-1.01-5.2,1.43-10.15,3.46-14.98,3.42-8.14,6.9-16.28,9.97-24.56,3.37-9.09,4.61-18.38,2.96-28.19-.97-5.75,.06-11.8-.25-17.69-.28-5.47-1.04-10.93-1.78-16.36-.78-5.78-9.07-14.33-16.8-14.92-12.25-.93-24.54-1.3-36.81-1.9h-.45c-10.91,2.73-14.24,10.69-15.1,20.9-.73,8.68-2.6,17.25-3.46,25.92-.97,9.7,.38,18.78,7.58,26.42,7.32,7.76,13.49,16.31,17.03,26.7,2.47,7.26,1.5,13.89-2.08,19.98-5.31,9.05-11.61,17.51-17.05,26.5-2.09,3.46-4.61,4.53-8.29,4.52-4.39-.01-8.86-.2-13.17,.51-9.23,1.51-14.72,8.01-18.57,15.85-3.11,6.33-5.62,12.96-8.23,19.52-2.03,5.12-4.88,9.62-8.64,13.65-6.45,6.89-13.06,13.66-19.02,20.96-5.49,6.73-8.16,15.01-8.6,23.57-.61,11.7,6.83,17.38,16.68,17.83Z"/><path class="d" d="M644.07,124.13c-2.92,3.03-3.14,8.01-.43,11.8,.61,.86,1.44,1.59,2.26,2.27,1,.83,2.7,2.39,3.07,2.14,1.58-1.09,2.94-2.34,2.93-4.85-.02-7-1.8-10.07-7.37-11.36h-.45Z"/><path class="d" d="M1745.37,215.85c6.8-3.38,13.1-7.77,18.22-13.54,8.51-9.59,18.65-16.85,30.45-21.85,1.48-.63,2.95-1.58,4.06-2.74,1.56-1.63,1.47-3.64,.03-5.39-.95-1.15-1.93-2.46-3.19-3.15-11.78-6.47-19.98-16.96-29.55-25.92-2.2-2.06-4.89-3.58-7.22-5.51-5.26-4.33-11.47-2.2-17.29-2.71h-.45c-3.33,1.36-6.8,2.47-9.97,4.14-7.99,4.2-12.15,10.7-13.44,19.92-1.05,7.54,.74,14.58,1.05,21.85,.34,7.91,.65,15.9-1.74,23.63-2.32,7.52-8.42,11.26-15.02,14.02-12.76,5.33-26.13,8.33-39.97,9.19-1.98,.12-4.07,.25-5.88,.96-2.84,1.1-4.03,6.3-1.78,8.96,4.15,4.9,8.26,10.01,13.21,14.02,8.42,6.82,17.41,12.94,26.28,19.19,9.77,6.89,15.6,6.91,24.93-.5,6.13-4.87,10.72-10.71,10.19-19.49-.31-5.11,.6-10.32,1.26-15.44,1.26-9.72,7.37-15.45,15.82-19.65Z"/><path class="d" d="M1781.61,328.63c2.68-10.6,9.18-18.3,17.13-24.78,4.18-3.4,7.88-7.24,10.1-11.65,5.87-11.68,12.85-22.98,16.04-35.82,2.08-8.38,4.23-16.89,4.87-25.45,.76-10.25-4.25-17.88-13.35-23.29-8.94-5.32-18.47-5.54-28.26-5.33h-.45c-7.77,2.29-14.04,6.85-20.11,12.15-5.86,5.12-12.66,9.16-18.97,13.78-5.07,3.71-8.3,10.75-5.47,19.07,1.08,3.17,1.77,6.54,3.25,9.51,3.89,7.76,1.34,14.17-4.23,19.5-6.97,6.68-14.67,12.6-21.69,19.23-6.27,5.92-13.69,9.74-21.43,13.1-10.21,4.43-14.9,12.42-16.47,23.19-1.59,10.84-3.6,21.67-6.39,32.25-2.99,11.32-11.71,17.1-22.58,20.04-11.07,3-22.12,6.06-33.18,9.08-11.19,3.06-17.76,10.89-21.29,21.39-2.8,8.36-5.94,16.8-7.14,25.46-2.64,18.92-1.76,37.52,9.75,54.09,3.02,4.34,5.2,9.27,8.28,13.57,8.41,11.74,16.94,11.48,26.78,3.7,7.98-6.31,12.18-14.31,12.3-24.57,.08-6.83-.99-13.75,1.3-20.46,4-11.73,11.68-20.67,20.87-28.69,10.35-9.02,20.42-18.46,26.76-30.91,2.46-4.83,3.45-10.38,5.62-15.37,3.65-8.38,10.92-11.31,19.48-11.84,5.75-.35,11.56-.25,17.26-1.01,7.34-.98,13.53-4.54,18.16-10.39,4.23-5.34,7.91-11.15,12.38-16.27,5.91-6.78,8.57-15.02,10.66-23.29Z"/><path class="d" d="M1481.77,205.1c-2.31-.69-4.83-.66-7.26-.97h-.45c-11.11,4.43-16.01,13.11-17.85,24.53-1.51,9.37,.66,17.1,6.89,24.15,7.37,8.33,19.51,9.78,30.01,5.32,4.03-1.71,7.88-4.11,11.35-6.8,7.68-5.96,8.33-17.09,2.33-25.84-6.35-9.26-13.91-17.05-25.02-20.39Z"/><path class="d" d="M1207.7,257.71c8.76,.44,17.3-1.44,24.93-5.52,11.85-6.34,8.07-19.45,.54-24.45-6.23-4.14-12.86-6.75-20.47-6.34h-.45c-5.06,1.45-7.73,4.89-8.67,9.99-1.09,5.93-2.91,11.78-3.47,17.75-.61,6.55,1.08,8.23,7.59,8.56Z"/><path class="d" d="M984.06,299.61c6.27,3.22,14.63-1.87,17.64-10.51,4.19-12.05,1.87-23.79-3.6-34.94-2.58-5.26-6.78-8.36-13.13-7.33-1.33,.22-2.72,.03-4.09,.03h-.45c-5.9,2.45-7.98,7.11-7.73,13.18,.33,8.03,.35,16.08,1,24.08,.56,6.9,4,12.21,10.36,15.48Z"/><path class="d" d="M1177.13,283.18c1.38-3.48,1.89-7.55,1.78-11.31-.11-3.63-3.27-5.32-6.66-5.89-7.56-1.28-15.12-2.71-22.73-3.59-7.99-.92-16.05-1.28-24.08-1.89h-.45c-3.18,.91-6.31,2.1-9.55,2.67-8.87,1.58-16.51,5.87-23.52,11.11-3.08,2.3-5.42,5.97-7.28,9.45-3.38,6.33-5.78,13.19-9.28,19.44-4.86,8.69-12.53,14.48-21.23,19.21-13.22,7.19-22.4,18.14-27.75,32.21-5.64,14.8,2.29,31.91,12.23,39.58,5.56,4.29,11.57,7.2,18.66,6.25,8.42-1.13,15.74-5.02,22.28-10.38,6.83-5.59,13.33-11.65,20.54-16.7,7.71-5.4,16.78-5.31,25.83-4.23,5.09,.61,10.75,.48,14.39-2.87,10.18-9.34,20.72-18.65,26.39-31.71,1.83-4.21,2.86-9,3.18-13.59,.9-12.91,2.43-25.59,7.27-37.77Z"/><path class="d" d="M1536.37,435.05c4.5-10.63,7.28-21.58,7.28-33.2,0-3.03,.36-6.1,.92-9.08,.69-3.7,4.91-6.17,9.94-6.88,8.26-1.17,16.44-2.63,24.12-6.27,8.37-3.96,12.46-11.14,12.95-19.6,.72-12.37-9.99-27.29-24.33-26.67-10.26,.44-15.74,4.23-19.99,15.32-2.64,6.87-3.94,14.03-4.61,21.35-.31,3.36-1.33,6.65-1.72,10.01-.36,3.17-2.81,4.59-5.07,4.86-10.57,1.27-21.19,1.94-31.81,.16-4.67-.78-9.38-1.34-14.09-1.83-8.82-.91-14.67-6.11-19.05-13.23-4.7-7.63-9.77-15.13-13.51-23.23-4.98-10.79-2.12-17.55,8.56-21.53,6.38-2.38,13.55-2.65,20.38-3.85,9.87-1.73,20.2-.86,29.55-5.45,6.65-3.26,9.24-9.03,10.49-15.91,1.81-9.89,.89-19.57-1.91-29.08-2.15-7.31-8.08-10.37-15.41-8.68-9.67,2.23-19.31,4.95-29.12,6.12-5.27,.63-10.89-1.45-16.33-2.48-5.78-1.1-11.52-2.4-17.28-3.61h-.45c-11.04,4.76-18.36,14.03-26.24,22.39-8.8,9.33-15.02,20.6-20.57,32.16-3.05,6.35-5.58,13.02-9.21,19.02-5.97,9.89-14.74,15.83-26.71,16.48-5.32,.29-10.61,1.12-15.91,1.78-6.39,.8-10.8,4.59-14.57,9.51-4.6,5.99-9.48,11.52-17.69,12.83-6.48,1.03-12.25-1-18.21-2.78-4.19-1.25-8.42-2.71-12.73-3.1-8.01-.73-14.75,3.27-21.34,7.18-9.86,5.85-19.93,10.91-31.35,13.29-9.98,2.08-10.02,9.58-7.66,18.03,1.62,5.8,6.07,8.11,12.15,8.83,6.83,.81,14.26,.32,19.99,5.32,3.63,3.17,7.39,6.32,10.41,10.03,10.56,12.96,24.59,21.66,37.92,31.13,6.12,4.35,13.61,4.35,20.8,1.11,10.53-4.76,21.3-3.27,32.3-1.62,5.71,.86,11.4-1.26,16.4-5.13,8.65-6.68,13.25-15.21,13.5-26.01,.1-4.23-.38-8.5-.88-12.72-.91-7.82,2.96-12.71,9.08-16.89,10.99-7.51,22.45-6.18,33.63-1.61,14.33,5.86,25.08,16.49,34.65,28.46,5.57,6.97,10.84,14.43,19.08,18.61,4.91,2.49,10.07,4.03,15.9,2.9,5.66-1.1,11.48-1.6,17.25-1.86,10.09-.46,16.61-5.44,20.49-14.59Z"/><path class="d" d="M1653.14,331.83c-5.88,1.49-11.78,2.92-17.73,4.06-3.85,.74-10.46-2.88-12.2-6.79-3.39-7.63-6.61-15.36-9.57-23.17-7.69-20.28-22.46-32.4-43.25-37.1-5.98-1.35-12.39-.77-18.6-1.07h-.45c-3.18,1.51-6.87,1.46-9.66,4.44-3.04,3.25-4.57,6.98-5.24,11.03-.74,4.47-.87,9.07-.97,13.62-.14,6.49-.39,12.88-2.67,19.13-1.44,3.95-4.14,5.73-7.83,6.29-8.92,1.34-17.9,2.32-26.8,3.73-5.95,.94-12.21,1.46-17.65,3.78-10.66,4.54-12.95,8.76-9.4,21.11,3.61,12.59,10.52,23.49,24.79,26.33,10.33,2.06,20.73,3.38,30.51-2.98,3.95-2.57,5.89-6.17,7.1-10.14,2.74-9,5.56-18.04,7.17-27.28,1.25-7.18,5.24-10.42,11.55-12.26,11.38-3.33,22.27-3.64,32.3,4.09,12.42,9.58,20.49,21.34,20.04,37.75-.08,3.02,.28,6.12,.92,9.07,.8,3.69,3.98,5.14,7.22,5.86,6.17,1.38,12.33,1.17,18.65,.21,6.69-1.01,12.94-2.88,19.09-5.57,9.5-4.16,14.86-11.3,16.87-21.39,.98-4.93,1.19-9.68-.04-14.57-1.5-6-7.97-9.76-14.13-8.2Z"/><path class="d" d="M255.48,274.04c-8.05-2.94-16.3-2.62-24.58-2.63h-.45c-5.45,1.82-11.22,3.02-16.3,5.57-14.41,7.24-18.13,18.65-16.75,32.6,.44,4.45,3.81,7.83,7.64,9.95,13.98,7.74,28.67,8.83,43.56,3.15,6.91-2.63,10.75-8.53,13.24-15.35,2.63-7.23,3.03-14.71,2.7-22.28-.14-3.37-4-9.16-9.05-11Z"/><path class="d" d="M447.22,315.22c7.09,1.51,13.67,.16,19.98-2.15,7.1-2.59,12.63-6.87,14.81-15.25,2.81-10.76-5.8-16.8-13.4-17.29-3.77-.24-7.57-.04-11.36-.04h-.45c-4.24,1.52-8.54,2.89-12.71,4.58-5.84,2.36-8.07,7.41-8.51,13.16-.17,2.21-1.59,4.03-.39,6.91,2.6,6.23,5.61,8.71,12.03,10.07Z"/><path class="d" d="M953.59,478.64c2.88-1.89,5.74-3.94,8.16-6.38,10.41-10.5,20.53-21.29,31.01-31.72,4.95-4.92,4.76-16.02-.46-20.57-11.66-10.17-23.05-20.68-37.33-27.19-9.88-4.51-20.3-7.28-30.89-9.62-9.19-2.03-18.46-1.78-27.74-1.72-2.43,.02-4.84,.63-7.27,.85-11.41,1.06-22.26-1.79-33.2-4.45-9.14-2.23-18.42-4.02-27.72-5.44-7.2-1.1-14.53-1.78-21.8-1.78s-14.59,1.9-21.81,1.48c-9.59-.55-19.13-2.38-28.63-3.97-3.56-.59-7.06-1.84-10.45-3.15-8.46-3.26-12.75-9.66-13.68-18.59-.76-7.29-1.39-14.63-2.8-21.8-1.74-8.8-6.54-12.29-15.35-12.29h-.45c-10,4.85-20,9.7-30,14.54-7.98,3.87-10.54,11.49-12.09,19.13-1.47,7.25-1.6,14.8-1.95,22.24-.38,7.98,1.38,15.19,7.11,21.46,5.08,5.57,8.93,12.25,13.82,18.02,5.1,6.02,12.4,7.57,19.92,8.26,7.51,.69,14.78,2.57,20.39,7.78,9.13,8.49,20.06,13.94,30.98,19.46,10.94,5.52,21.82,11.42,30.72,19.75,8.04,7.52,12.98,16.4,4.7,31.62-3.56,6.55-6.65,13.31-5.78,20.91,.66,5.82,1.76,11.71,3.64,17.25,4.39,12.95,3.09,25.31-1.8,37.81-2,5.1-2.89,10.6-3.04,16.31-.19,7.22,4.01,10.4,8.87,11.67,9.17,2.39,18.59,1.83,27.16-2.27,6.71-3.21,10.78-9.38,12.26-16.69,1.59-7.8,2.34-15.77,3.76-23.61,2.18-12.01,5.12-17,18.6-18.17,5.14-.45,10.31-.49,15.45-.99,3.04-.29,5.22-1.56,5.08-5.4-.17-5.12-2.2-9.58-4.19-14.08-6.22-14.06-14.54-26.9-23.18-39.54-2.99-4.38-3.71-9.25-2.16-14.07,2.05-6.36,9.44-9.09,16.28-7.39,10.17,2.52,16.16,9.3,20.46,18.25,2.04,4.26,4.06,8.45,7.6,11.94,3.6,3.54,7.65,4.8,12.38,4.89,16.43,.32,31.65-3.71,45.43-12.76Z"/><path class="d" d="M1872.69,463.67c3.16-4.5,4.38-9.61,5.69-14.94,2.02-8.24,5.31-16.2,8.46-24.13,6.23-15.7,.05-34.46-15.15-42.08-3.51-1.76-8.38-.82-12.62-1.12h-.45c-7.51,3.01-8.13,9.89-8.53,16.37-.78,12.61-2.94,24.92-5.29,37.32-2.01,10.57-1.57,21.63,6.58,30.38,6.92,7.43,15.41,6.63,21.33-1.8Z"/><path class="d" d="M1733.14,451.85c6.09-3.89,12.22-7.74,18.16-11.84,7.4-5.11,10.15-12.99,11.27-21.35,.87-6.44,.56-13.03,1.06-19.53,.51-6.65-3.3-10.54-10.5-10.46-1.36,.02-2.73,0-4.09,0h-.45c-3.48,.61-6.95,1.34-10.46,1.79-6.26,.81-12.34,2.22-17.2,6.46-1.91,1.67-3.22,4.09-4.59,6.3-6.87,11.14-16.28,19.63-26.73,27.4-9.71,7.22-19.96,14.11-26.48,24.86-4.6,7.6-6.45,15.45-5.2,24.58,1.64,11.96-.34,23.42-9.31,32.73-6.69,6.95-13.05,14.23-19.59,21.32-3.66,3.97-3.76,5.42,.02,9.08,4.93,4.77,10.01,9.38,14.97,14.12,6.08,5.81,7.66,13.61,8.51,21.37,.89,8.12,.59,16.36,1.07,24.53,.81,13.73-5.46,23.78-15.93,31.84-6.22,4.79-9.99,10.92-9.55,19.07,.58,10.76,.95,21.54,1.9,32.27,.66,7.44,2.7,14.3,9.38,19.21,5.52,4.05,8.8,9.75,10.71,16.66,2.83,10.24,9.95,17.45,19.37,22.31,5.39,2.79,11.84,1.96,15.86-2.31,2.51-2.66,4.55-5.75,6.87-8.59,5.58-6.84,11.37-13.51,16.76-20.5,5.59-7.23,7.86-15.37,5.52-24.51-2.65-10.34,2.14-20.43,11.79-25.48,4.33-2.26,8.44-4.92,12.75-7.22,8.93-4.77,9.45-14.9,2.31-21.44-8.02-7.35-15.94-15.1-19.91-25.46-3.55-9.29-6.26-18.95-8.64-28.62-1.37-5.57-2.51-11.65-1.69-17.2,1.25-8.48,4.15-16.74,6.58-25.03,2.45-8.35,5.61-16.69,4.8-25.45-.72-7.8-2.35-15.61-4.48-23.17-5.52-19.56,2.37-29.65,15.09-37.76Z"/><path class="d" d="M1553.62,540.41c11.02,1.25,22.11,1.95,33.17,2.79,5.6,.42,11.21,.88,16.82,.83,3.04-.03,6.14-.86,9.07-1.77,5.21-1.62,6.2-4.99,2.73-9.02-12.3-14.31-21.08-30.9-29.79-47.39-6.97-13.2-7.42-27.69-3.39-42.17,2.91-10.45,5.91-20.87,8.56-31.38,.84-3.35,.89-6.94,.95-10.43,.11-6.45-2.16-8.86-8.59-9.53-1.05-.11-2.12-.02-3.18-.02h-.45c-3.18,.61-6.42,1.02-9.54,1.85-10.29,2.75-15.92,10.21-18.04,20-1.94,8.93-4.74,17.87-3.77,27.24,.33,3.19,.59,6.44,1.4,9.53,3.33,12.72,1.25,18.02-10.51,25-2.68,1.59-5.39,3.15-8.19,4.53-3.85,1.89-5.57,4.74-5.49,9.12,.25,13.42,3.22,26.08,9.06,38.22,3.98,8.28,10.86,11.65,19.19,12.6Z"/><path class="d" d="M198.62,550.94c2.59-6.04,1.8-12.52,1.17-18.61-1.1-10.68-3.46-21.23-5.24-31.84-.68-4.08-.95-8.24-1.89-12.26-2.09-8.92-6.74-12.29-16.31-12.29h-.45c-5.94,1.54-11.46,3.68-16.44,7.63-7.84,6.2-13.24,14.4-19.41,21.96-3.55,4.36-6.31,9.13-7.44,14.93-1.67,8.6,1.32,15.43,6.47,21.85,4.64,5.79,11.42,8.63,17.32,12.67,4.54,3.11,9.6,5.49,13.98,8.79,3.23,2.43,6.15,2.59,9.63,1.28,7.61-2.87,15.1-5.89,18.62-14.11Z"/><path class="d" d="M1503.61,505.04h-.45c-3.48,.91-7.04,1.62-10.44,2.76-10.48,3.52-20.19,8.76-27.61,16.9-9.16,10.05-6.36,18.85,4.97,23.72,10.56,4.54,22.18,3.87,33.53,2.08,4.23-.67,8.5-1.11,12.72-1.85,6.07-1.07,9.31-3.74,8.25-11.8-.96-7.38-3.46-14.19-6.44-20.9-2.81-6.31-7.82-9.77-14.53-10.91Z"/><path class="d" d="M904.61,559.11c1.91,8.68,4.34,17.25,6.21,25.94,1.25,5.83,1.58,11.87,2.86,17.7,2,9.08,7.27,11.48,16.75,12.19,7.05,.52,14.08,.12,20.94-2.54,8.56-3.32,14-10.51,14.07-19.63,.07-8.14-.13-16.07-3.99-23.7-3.66-7.24-9.71-10.96-16.96-12.04-12.33-1.84-24.82-2.6-37.25-3.81h-.45c-3.11,1.07-2.64,3.82-2.18,5.89Z"/><path class="d" d="M577.63,654.57c-1.27,7.03-5.98,12.33-10.85,17.26-12.07,12.24-24.68,23.97-34.52,38.21-7.2,10.42-14.58,20.72-19.12,32.71-3.29,8.71-3.89,17.79-3,26.81,.73,7.4,4.61,13.76,9.85,19.1,1.11,1.13,2.26,2.24,3.42,3.34h-99.03c4.87-3.63,8.38-8.34,10.22-14.67,1.83-6.32,2.73-12.39,1.99-19.14-1.08-9.91-3.38-19.11-8.36-27.74-1.89-3.26-3.51-6.81-4.52-10.44-1.92-6.88-1.44-13.95-.05-20.88,2.23-11.09,6.09-21.38,14.46-29.59,7.34-7.21,14.68-14.48,21.3-22.33,6.13-7.27,11.63-15.16,16.85-23.13,6.73-10.27,7.88-22.51,10.98-34.04,2.49-9.23,5.98-17.7,15.92-21.37h.45c5.33,.06,7.55,1.5,9.05,6.38,.85,2.8,1.29,5.74,1.85,8.62,1.78,9.24,5.99,15.16,20.48,13.34,6.33-.8,12.91-.74,19.09,2.07,6.14,2.8,10.56,7.33,15.11,12.2,12,12.85,11.19,27.87,8.43,43.29Z"/><path class="d" d="M680.82,662.77c.25,4.94,1.72,9.06,5.04,12.75,8.65,9.65,19.48,14.4,32.3,14.98,5.15,.23,10.37,.17,15.44,1,8.07,1.32,13.89,5.68,17.46,13.46,1.74,3.79,4.89,7.21,8.1,9.97,4.79,4.12,10.24,1.09,15.35,.04,2.51-.52,4.84-1.82,7.29-2.65,7.58-2.57,13.73,1.11,20.02,4.49,4.79,2.58,9.67,5.33,15.43,2.77,7.52-3.34,9.95-13.01,4.47-19.02-2.44-2.67-5.39-5.22-8.62-6.77-7.72-3.7-13.99-8.69-18.65-15.98-4.55-7.11-10.3-13.35-17.26-18.14-6.54-4.5-11.2-10.71-14.25-17.46-5.74-12.67-16.03-18.33-28.42-21.7-10.74-2.93-21.51-5.79-32.28-8.62-1.31-.35-2.72-.33-4.08-.48h-.45c-7.45,3.13-9.37,10.23-11.24,16.85-3.17,11.24-6.26,22.57-5.65,34.51Z"/><path class="d" d="M492.72,261.4c.17,5.1-3.58,8.57-10.47,9.06-10.59,.75-21.21,1.22-31.81,1.87-6.75,.41-11.33-2.53-15.09-8.14-8.08-12.05-11.65-25.52-13.52-39.61-1.05-7.91-3.52-14.75-11.85-17.7-1.63-.58-3.36-.84-4.99-1.4-9.89-3.36-19.79-6.82-30.45-5.82-5.64,.52-11.38,1.21-16.79,2.77-9.44,2.73-18.83,6.11-24.53,14.92-5.56,8.62-10.76,17.48-15.93,26.34-6.35,10.88-14.31,19.82-26.85,23.63-10.54,3.2-17.44,1.28-20.38-10.48-1.34-5.35-1.8-10.91-2.82-16.34-2.33-12.5-.65-24.13,6.31-35.05,5.05-7.91,7.29-16.49,3.75-25.88-2.73-7.25-8.24-11.9-14.12-16.37-4.83-3.67-9.52-7.56-12.27-13.16-5.93-12.08-9.19-24.6-6.4-38.18,2.1-10.28,4.01-20.59,5.91-30.91,1.17-6.34,3.02-12.73,2.97-19.09-.06-7.28-1.41-14.65-3.07-21.79-2.28-9.84-3.34-18.75,5.4-26.59,3.36-3.02,5.6-8.05,6.82-12.57,.08-.3,.16-.61,.24-.91h212.95c-2.33,7.6-6,14.83-10.33,21.84-2.31,3.75-5.69,6.7-9.98,7.66-9.48,2.11-19.05,3.86-28.63,5.48-4.02,.68-8.28,.19-12.24,1.08-7.55,1.69-14.95,.99-22.28-.63-9.9-2.18-17.29-8.46-23.12-16.35-8.39-11.34-19.11-15.73-32.79-12.16-4.56,1.2-8.93,2.9-11.88,7.18-4.23,6.15-2.68,11.63,.92,17.33,5.3,8.39,10.57,16.82,15.42,25.48,3.43,6.13,5.89,12.81,9.24,19,2.82,5.2,6.22,10.09,9.49,15.03,3.7,5.57,4.51,11.76,4.04,18.19-.47,6.38-1.9,12.77-1.59,19.09,.33,6.97,2.85,14.33,12.51,16.89,9.17,2.43,18.29,5.13,27.27,8.18,12.32,4.17,16.19,10.21,16.47,23.11,.14,6.68,.93,13.37,1.79,20,.86,6.59,4.58,11.14,11.32,12.21,7.68,1.22,15.43,2,23.17,2.76,7.56,.75,15.23,.78,22.71,1.98,8.12,1.31,15.27,8.53,14.77,17.16-.59,10.25,.37,20.59,.71,30.89Z"/><path class="d" d="M1850.82,5.96c.83,7.7,1.52,15.44,1.8,23.18,.28,7.82-4.98,14.61-12.67,15.78-7.64,1.17-15.45,1.24-23.16,1.99-3.21,.32-6.52,.76-9.52,1.85-6.31,2.3-12.42,5.15-18.68,7.63-6.32,2.49-14.06,2.25-16.8-2.26-1.26-2.09-2.34-4.3-3.66-6.35-9.32-14.51-26.15-15-36.34-1.82-8.48,10.98-9.32,24.23-10.99,37.26-.4,3.09-1.06,6.54-2.77,9.01-6.21,8.92-15,15.24-24.54,19.85-7.57,3.67-15.87,3.65-23.1-2.46-6.83-5.77-13.88-11.27-20.88-16.84-6.99-5.55-6.73-12.7-5.05-20.47,2.95-13.63,10.9-23.51,22.34-30.88,4-2.57,8.39-4.57,12.21-7.36,6.82-4.98,9.22-12.63,10.89-20.4,1.49-6.97,6.83-13.39,15.07-12.29,1.34,.18,2.73,.07,4.09,.02,3.8-.12,7.52-.52,11.09-1.4h131.38c-.67,1.87-.93,3.89-.71,5.96Z"/><path class="d" d="M1599.04,772.31c5.18,13.07,16.78,19.14,30.46,15.39,6.22-1.71,9.75-6.39,9.47-13.12-.48-11.54-1.01-23.13-5.33-34.1-.21-.52,.23-1.41-.06-1.78-6.44-7.95-9.66-17.44-13.21-26.82-2.04-5.39-7.41-7.32-12.24-8.51-14.63-3.59-27.86-10.09-40.98-17.23-4.48-2.44-10.2-2.62-15.35-3.83h-.45c-7.14,1.65-12.16,5.68-13.09,13.19-.76,6.18,.71,12.1,4.46,17.26,6,8.26,13.88,11.17,24.11,9.72,7.15-1.01,14.03,1.31,19.98,5.73,7.95,5.91,10.44,14.18,10.49,23.64,.04,6.85-.88,13.79,1.76,20.46Z"/><path class="d" d="M1434.81,792h-77.53c-.97-6.17-1.06-12.47-.98-18.78,.15-12.2,2.99-16.58,14.13-20.91h.45c10.08,.04,19.41,3.3,28.62,6.86,7.75,3,15.29,6.52,21.83,11.78,6.85,5.53,10.19,13.37,13.48,21.05Z"/><path class="d" d="M775.57,792h-38.79c4.42-5.49,9.77-10.09,17.29-12.42h.46c2.57,.15,5.28-.16,7.7,.53,7.37,2.14,11.41,6.17,13.34,11.89Z"/><path class="d" d="M914.99,236.43c-1.47,1.22-2.73,2.71-4.1,4.06-3.4,3.35-5.72,7.17-7.43,11.77-3.34,8.96-7.28,17.5-14.19,24.79-7.31,7.71-8.85,17.33-3.94,27.59,2.4,5.03,4.34,10.39,3.8,16.32-.48,5.26-4.94,11.7-10.08,13.12-4.15,1.14-9.26-2.21-11.88-5.8-4.88-6.71-10.15-13.15-15.39-19.59-5.35-6.55-10.42-13.24-13.17-21.37-1.95-5.77-4.09-11.47-5.83-17.3-.7-2.36-1.67-3.89-4.17-4.06-4.84-.34-9.7-.53-14.54-.94-12.85-1.07-19.22-7.4-20.17-18.64-.78-9.12,.66-18.49,1.63-27.69,.61-5.68-.96-14.12-9.23-16.22-9.83-2.49-19.94-3.91-29.96-5.57-8.68-1.44-15.67-4.79-19.17-13.64-1.94-4.89-4.72-9.45-7.2-14.12-4.48-8.43-10.22-15.79-19.57-18.99-5.71-1.95-11.73-3.19-17.7-4.12-12.02-1.87-19.15-7.61-21.81-18.26-2.44-9.77,3.97-18.27,13.18-17.24,10.27,1.15,20,3.73,28.71,9.86,5.97,4.2,12.65,5.26,19.03,.12,.68-.55,1.56-.85,2.25-1.39,12.89-9.83,25.96-19.45,38.6-29.6,13.45-10.8,13.04-20.19,6.26-32.58-3.72-6.81-8.39-13.31-13.64-19.02-5.08-5.52-11.88-9.64-19.82-8.18-9.66,1.78-19.23,4.33-28.63,7.23-8.66,2.67-15.36,8.04-19.19,16.68-1.7,3.82-4.03,7.4-6.32,10.92-6.44,9.9-13.45,19.46-19.33,29.68-2.76,4.79-5.95,7.94-11.12,8.86-2.15,.38-4.54-.4-6.79-.81-8.21-1.49-16.28-3.32-21.36-10.9-7.31-10.89-15.17-21.46-21.62-32.84-4.46-7.87-10.47-12.59-18.87-14.32-6.86-1.42-13.9-2.09-20.89-2.79-7.6-.75-12.34-5.55-12.22-13.22,.08-5.16,.85-10.31,.8-15.46-.04-4.25-.1-8.51-.23-12.77h326.9c-.11,1.22-.25,2.44-.41,3.66-.8,5.97-2.94,12.01-8.54,15.37-3.75,2.24-8.11,3.47-12.21,5.1-4.2,1.67-8.91,3.13-8.99,8.64-.1,6.36,.32,12.74,.86,19.09,.72,8.5,2.18,16.95,2.54,25.46,.27,6.23-2.23,11.37-7.97,15.11-8.81,5.73-18.17,5.32-27.8,3.96-5.9-.83-11.75-2.51-17.73-.45-10.34,3.56-16.06,13.83-13.63,24.56,1.84,8.15,6.65,14.52,11.7,21,7.09,9.1,16.04,13.42,27.39,13.58,5.91,.09,11.84,.35,17.72,.93,6.84,.67,13.62,1.93,20.46,2.63,10.46,1.07,18.76,5.03,23.72,15,3.5,7.03,7.35,13.98,11.85,20.41,5.42,7.77,10.5,15.66,13.43,24.66,2.11,6.46,1.91,12.81-3.99,17.72Z"/><path class="d" d="M1920.9,77.03v74.21c-6.47,5.19-13.82,7.41-21.79,4.55-6.19-2.22-10.97-6.76-14.67-12.52-7.48-11.63-14.09-23.85-23.51-34.19-4.27-4.69-7.74-10.12-11.95-14.88-2.49-2.81-5.14-2.43-8.12-.08-4.02,3.16-5.4,7.43-5.43,12.29-.04,7.12,.33,14.26-.12,21.35-.35,5.49-1.21,11.06-2.72,16.34-2.83,9.88-9.14,11.57-17.17,11.73-3.78,.08-7.59-1-11.36-1.71-10.48-2-20.28-5.29-27.77-13.59-6.32-6.99-13.1-13.56-19.46-20.53-3.18-3.49-4.76-7.92-4.07-12.67,.96-6.71,2.16-13.39,3.63-20,1.54-6.94,4.89-11.56,13.1-12.5,10.8-1.24,21.16-5.09,30.39-10.83,8.81-5.48,18.07-8.19,28.27-8.01,6.97,.12,13.94,.53,20.91,.89,3.88,.19,7.04-1.08,9.55-4.1,4.93-5.95,5.65-13.29,6.79-20.47,1.48-9.39,2.4-19.07,14.11-21.81h.45c10.33-.65,19.82,1.91,28.65,7.25,6.04,3.66,8.69,11.02,7.59,15.44-1.44,5.74-3.84,11.24-5.77,16.86-1.97,5.7-3.91,11.74-.35,17.19,2.85,4.35,6.37,7.84,10.82,9.79Z"/><path class="d" d="M19.18,62.35c-3.36,9.6-9.16,16.23-18.28,20.27V20.2c4.08-1.45,8.19-2.8,12.27-4.25h.46c4.54-.55,8.53,.35,10.38,5.03,.88,2.26,1.29,4.81,1.38,7.25,.43,11.81-2.33,23.02-6.21,34.12Z"/><path class="d" d="M1558.02,29.58c.3-2.94-1.38-5.32-4.42-6.35-.91-.31-1.82-.61-2.73-.91h-.45c-2.14,1.19-4.77,1.81-5.03,5-.25,3,1.78,6.2,4.58,6.82,3.23,.72,7.74-1.5,8.05-4.56Z"/><path class="d" d="M733.19,96.46c6.96-4.35,14.22-8.21,21.33-12.33,3.79-2.19,6.92-4.96,9.66-8.55,6.88-9.02,4.25-19.92-1.88-27.39-5.86-7.15-13.32-10-22.32-9.51h-.45c-4.85,1.36-9.75,2.56-14.53,4.13-6.51,2.14-11.47,6.48-14.97,12.26-5.18,8.53-10.06,17.24-15.04,25.88-4.38,7.61-2.02,13.55,5.39,17.38,11.51,5.94,22.14,4.81,32.81-1.88Z"/><path class="d" d="M1744.97,65.5c2.7,2.13,6.06,.78,6.82-2.73,.64-2.97-2.22-6.55-5.45-6.82h-.45c-4.13,4.19-4.38,6.81-.91,9.55Z"/><path class="d" d="M491.9,96.36c.66,1.39,2.63,2.17,3.99,3.23,.91-1.36,2.42-2.64,2.63-4.11,1.18-8.29,2.95-16.68,.48-24.96-2.46-8.24-9.66-13.66-17.2-13.66h-.45c-4.18,2.63-4.09,6.79-2.61,10.41,4.05,9.84,8.58,19.48,13.16,29.09Z"/><path class="d" d="M1223.58,94.28c-7.11-1.61-14.51-1.96-21.79-2.87h-.45c-4.39,.91-8.82,1.67-13.17,2.76-9.04,2.25-16.16,7.16-19.96,15.9-3.13,7.21-2.67,14.56,2.78,20.33,8.08,8.56,16.78,16.56,25.4,24.59,2.95,2.75,7.03,3.47,10.84,2.69,7.92-1.63,15.85-3.34,22.78-8.03,5.12-3.46,7.08-8.36,5.96-14.16-1.55-8.09-2.45-16.27-.59-24.54,1.77-7.85-2.7-14.6-11.81-16.67Z"/><path class="d" d="M660,542.75c5.59,9.7,14.66,14.69,24.99,17.71,10.63,3.1,18.71-3.25,26.68-8.35,4.94-3.16,9-7.97,12.77-12.59,7.31-8.97,4.88-16.82-.88-24.44-8.36-11.06-20.29-14.71-33.58-15.57-7.6-.49-15.17-1.63-22.72-2.71-3.21-.46-4.51-4.62-3.69-9.04,2.88-15.56,.73-20.74-10.54-28.9-11.32-8.19-20.17-18.44-28.41-29.34-4.2-5.56-5.11-12.08-1.45-18.56,4.08-7.23,3.93-14.5,1.49-22.32-1.91-6.14-2.34-12.74-3.83-19.04-2.91-12.33-10.21-20.9-22.21-25.51-13.65-5.24-23.06-15.02-26.58-29.11-1.89-7.57,.63-15.5,2.82-23.15,3.05-10.66,8.91-19.74,15.19-28.54,4.85-6.8,6.77-14.3,8.24-22.31,1.4-7.64,1.38-15.62,5.24-22.79,3.13-5.82,7.9-8.52,14.16-8.53,6.21-.01,12.44,.95,18.63,.73,7.13-.25,12.33-2.83,13.97-8.56,.85-2.98,1.18-6.51,.45-9.48-3.17-12.89-6.55-25.62-13.27-37.44-4.86-8.55-7.5-18.35-11.16-27.59-.85-2.14-1.52-4.43-2.78-6.33-2.85-4.3-6.58-7.28-12.22-6.89-2.87,.2-5.76,.03-8.63,.03h-.45c-9.67,2.5-17.24,8.06-21.67,16.89-3.06,6.12-4.75,12.94-6.96,19.47-3.23,9.53-6.61,19.02-9.44,28.67-1.14,3.89-1.57,8.18-1.37,12.23,.6,12.17-3.07,22.57-10.93,31.89-5.3,6.29-9.98,13.13-14.59,19.96-7.56,11.21-18.15,18.98-29.16,26.3-2.57,1.71-5.01,3.38-4.47,6.85,.54,3.47,3.37,4.73,6.3,5.96,3.87,1.62,7.66,3.46,11.37,5.44,4.49,2.4,6.47,6.79,7.64,11.36,.95,3.69-.69,7.26-3.61,9.41-3.69,2.72-8.07,2.65-12.18,.52-1.93-1-3.67-2.37-5.47-3.6-6.56-4.47-8.53-4.12-14.6,.84-5.04,4.12-10.3,8.07-15.92,11.32-6.19,3.57-13.38,4.51-20.39,5.55-16.47,2.44-33.07,4.15-49.1,9.06-8.91,2.73-16.24,7.62-22.24,14.61-3.98,4.63-3.78,12.97,.4,17.76,4.99,5.71,11.51,9.27,17.81,13.08,8.13,4.91,17,8.8,26.35,9.81,9.92,1.07,20.28,1.35,29.49-3.89,10.57-6.01,20.95-12.35,31.39-18.6,7.98-4.78,11.08-5.43,18.09,1.92,6.72,7.03,14.4,12.55,22.83,17.17,6.86,3.76,9.22,9.98,10.03,17.28,.77,6.96,1.37,13.91,4.41,20.5,4.32,9.36,12.04,12.53,21.46,13.12,6.66,.41,13.35,.41,19.99,.98,8.96,.77,14.01,6.88,16.69,14.54,3.99,11.42,11.79,19.65,20.62,27.19,5.16,4.41,10.41,8.76,15.95,12.67,3.28,2.32,7.18,3.8,10.85,5.53,5.86,2.77,6.19,4.29,5.09,10.49-2.18,12.32-3.59,24.74,3.1,36.34Z"/></g></g></g></svg>