<?xml version="1.0" encoding="UTF-8"?><svg xmlns="http://www.w3.org/2000/svg" viewBox="0 0 1920 160"><defs><style>.d{fill:#8e003a;}</style></defs><g id="a"/><g id="b"><g id="c"><g><path class="d" d="M953.25,0h55.62c-.82,.36-1.79,.6-2.97,.69-6.7,.49-13.33,1.76-20.01,2.6-3.32,.42-6.67,.6-9.99,.94-8.33,.86-15.73-.93-22.65-4.23Z"/><path class="d" d="M1149.06,158.81c1.45,.36,2.64,.71,3.65,1.19h-61.13c2.16-1.67,4.39-3.26,6.61-4.83,7.82-5.55,16.27-4.72,24.99-2.38,8.56,2.29,17.29,3.88,25.88,6.02Z"/><path class="d" d="M1191.31,0c-.69,3.88-1.94,7.73-3.94,11.55-4.79,9.13-12.55,12.72-21.94,13.47-7.23,.57-14.54,.21-21.81,.07-3.79-.07-7.59-.94-11.36-.8-15.75,.56-30.33,5.17-43.61,13.61-8.3,5.27-11.96,13.95-14.94,22.72-3.9,11.46-10.15,20.41-21.4,25.99-15.8,7.83-28.09,19.68-36.31,35.39-1.47,2.81-1.99,6.28-2.31,9.5-.99,9.9,.63,19.46,4.09,28.5h-53.32c-6.85-3.14-14.04-5.43-21.3-7.57-12.19-3.58-24.52-6.2-37.24-7.5-11.46-1.17-22.75-4.04-34.11-6.17-1.52-.28-3.03-.81-4.55-.87-9.7-.37-19.41-.38-29.08-1.03-6.1-.41-12.16-1.58-18.18-2.68-7.31-1.33-14.55-1.41-21.83,.02-2.4,.47-4.84,.78-7.27,.9-12.15,.61-24.19,.46-35.93-3.56-11.49-3.94-16.39-10.28-16.76-23.23-.23-7.61,.32-15.25-1.83-22.73-2.82-9.81-9.86-14.97-19.12-17.7-8.85-2.6-16.6-.43-23.66,5.4-8.39,6.92-18.14,8.93-28.58,6.29-4.47-1.13-6.55-5.04-7.81-9.42-1.54-5.31-2.93-6.02-7.22-6-3.43,.03-4.46,2.93-6.17,4.79-.49,.53,1.06,3.36,2.15,4.78,1.22,1.59,2.75,3.2,4.51,4.06,6.71,3.32,8.73,9.44,9.41,16,.75,7.38,1.28,14.87,.86,22.25-.5,8.89-2.15,17.64-7.07,25.5-5.22,8.33-12.82,7.59-18.1,1.21-4.31-5.2-7.49-11.34-11.02-17.17-4.47-7.37-10.07-13.2-18.13-16.96-6.31-2.94-13.02-5.58-17.83-11.18-6.11-7.09-7.63-14.89-6.05-24.15,2.08-12.22,8.04-21.49,17.89-28.61,7.12-5.15,9.33-12.55,9.58-20.9,.17-5.76,.05-11.61,1.02-17.25,.41-2.39,1.21-4.65,2.53-6.52h68.24c-1.36,1.77-2.42,3.91-3.12,6.51-2.54,9.4-8.38,16.66-14.67,23.57-6.98,7.66-8.37,16.68-7.64,26.41,.22,2.97,2.08,4.41,4.97,4.06,6.68-.8,13.43-1.35,19.98-2.78,14.42-3.16,25.02-11.7,31.23-24.98,2.48-5.31,3.33-11.41,4.67-17.21,1.18-5.16,2.06-10.4,3.18-15.58h62.28c.24,5.64,.09,11.3,.01,16.95-.2,12.87,5.85,25.88,21.82,30.06,4.34,1.13,8.62,2.71,12.71,4.55,5.48,2.46,8.64,7.32,11.92,12.16,5.66,8.35,12.01,16.24,17.58,24.64,5.06,7.64,9.44,15.73,14.18,23.58,1.41,2.34,2.94,4.61,4.55,6.82,4.12,5.62,8.44,6.46,14.05,2.24,14.58-10.95,24.17-24.85,26.11-43.58,.48-4.67,2.7-9.35,4.95-13.59,2.32-4.38,3.84-8.76,3.98-13.7,.18-6.31,1.05-12.47,4.05-18.19,3.57-6.81,11.98-9.29,19.12-8.74,6.92,.54,12.8,2.76,16.21,8.83,1.87,3.33,2.71,7.44,3.22,11.3,.73,5.4,.12,11.02,1.22,16.31,.77,3.7,2.87,7.49,5.36,10.4,6.01,7,11.81,14.51,21.26,17.34,4.42,1.33,8.75,.81,12.23-2.29,8.67-7.69,12.81-17.66,13.65-29.05,.46-6.35,.87-12.73,.87-19.09-.01-6.51-.68-13.03-.78-19.55-.05-3.17,.29-6.41,.9-9.53,.92-4.77,4.08-6.64,7.77-7.87h171.68Z"/><path class="d" d="M1246.51,0h64.83c-1.28,2.32-2.94,4.64-4.94,7-8.08,9.53-19.01,12.87-30.5,15.44-4.59,1.02-9.14,2.26-13.64,3.63-7.05,2.16-7.65,3.8-8.75,10.86-2.28,14.49-4.64,29.08-12.69,41.8-2.75,4.36-5.79,8.76-9.56,12.21-13.19,12.07-21.38,26.75-24.93,44.19-2.41,11.79-11.1,16.29-21.81,18.16-5.88,1.03-11.8,1.95-17.72,2.72-4.81,.62-8.36-2.91-8.69-7.69-.6-8.74,3.02-15.99,7.84-22.69,5.53-7.69,10.25-15.71,12.13-25.06,.55-2.77-.21-5.78,.14-8.61,.98-7.89,.43-15.97,3.11-23.65,5.22-14.98,14.49-25.69,30.47-29.55,9.86-2.38,19.7-4.85,29.55-7.26,2.57-.63,5.2-1.05,7.71-1.86,3.63-1.17,5.49-5.05,4.51-9.95-1.39-6.93-2.93-13.91-7.06-19.69Z"/><path class="d" d="M1431.61,0c.32,1.8,.38,3.67,.06,5.57-.5,2.99-1.49,7.06-3.65,8.43-8.52,5.37-17.69,10.71-28.02,10-13.59-.93-27.41-9.87-29.56-24h61.17Z"/><path class="d" d="M1674.5,77.84c-1.04,1.35-2.19,3.01-3.65,3.56-8.56,3.22-17.1,6.64-25.91,9.05-8.84,2.41-15.19-1.3-20.39-10.79-4.37-7.96-8.49-16.05-12.76-24.07-4.98-9.36-13.6-14.29-22.71-18.66-12.99-6.21-27.28-7.88-40.92-11.8-6.17-1.76-12.55-3.57-15.32-10.05-1.63-3.79-2.34-8.09-2.78-12.23-.1-.98-.23-1.93-.4-2.85h98.83c1.96,3.96,4.43,7.73,6.93,11.51,5.31,8.03,13.75,12.14,21.38,17.25,6.42,4.29,12.58,8.9,16.77,15.49,6.49,10.19,7.92,24.46,.93,33.59Z"/><path class="d" d="M525.19,0c-.07,.04-.14,.07-.21,.1-3.87,1.73-6.87,1.71-9.7-.1h9.91Z"/><path class="d" d="M1904.52,54.22c-.29,4.85-.17,9.78-1.02,14.53-1.06,5.97-3.3,11.36-10.8,11.87-6.82,.46-13.64,1.69-20.45,1.66-9.15-.04-17.82,1.96-26.34,4.74-7.35,2.4-15.04,4.68-19.06,12.23-1.69,3.16-2.93,6.59-4.12,9.98-2.92,8.33-5.74,9.84-14.1,10.6-9.75,.89-18.21-9.58-15.56-20.63,1.06-4.43,3.4-7.75,6.43-10.91,5.21-5.44,11.49-9.99,14.57-17.25,4.37-10.31,9.18-20.46,13.09-30.94,4.94-13.28,9.67-26.65,14.13-40.1h58.6c-6.29,4.14-8.38,11.45-6.49,18.82,1.43,5.61,4.19,10.35,6.53,15.43,2.9,6.3,5,12.87,4.59,19.97Z"/><path class="d" d="M1839.56,160h-60.74c3.41-4.85,7.57-9.22,11.1-14,2.8-3.78,5.76-7.02,10.51-8.14,9.26-2.2,17.98-.27,26.87,2.55,6.17,1.96,8.84,6.03,10.39,11.54,.76,2.68,1.38,5.37,1.87,8.05Z"/><path class="d" d="M424.4,44.24c-.56-4.92-2.1-9.77-3.54-14.55-1.94-6.42-4.06-12.79-6.37-19.09-1.29-3.54-2.45-7.22-4.08-10.6h-74.89c-.94,1.4-1.87,2.8-2.84,4.19-6.93,9.99-11.97,21.41-21.38,29.51-6.05,5.21-12.34,10.3-19.1,14.5-12.06,7.46-16.28,19.31-19.45,31.94-2.24,8.91-4.09,17.92-6.46,26.79-1.4,5.24-3.55,6.26-9.02,5.48-2.42-.34-4.86-.54-7.27-.93-6.22-1.02-12.57-1.59-18.61-3.28-11.02-3.09-22.07-6.3-32.69-10.51-9.63-3.81-18.37-10.26-15.28-24.88,2.61-12.32,8.55-21.12,19.73-26.83,12.5-6.38,25.9-9.42,39.57-11.78,9.01-1.56,15.56-5.37,15.47-17.7-.04-5.5-.05-11-.03-16.5H0V160H151.62c9.16-7.21,20.82-7.91,30.64-2.13,1.17,.69,2.32,1.41,3.46,2.13h219.99c-3.42-1.02-6.84-2.09-10.24-3.13-9.95-3.04-19.64-6.36-26.99-14.79-5.93-6.8-7.45-18.37-3.91-26.03,3.73-8.08,10.3-14.02,16.94-19.37,8.39-6.76,15.82-13.98,21.28-23.33,3.68-6.29,9.28-10.98,14.93-15.49,4.4-3.5,7.33-7.97,6.68-13.62Zm78.75,108.67c-4.82-2.55-9.93-4.16-15.43-1.87-6.21,2.58-12.83,4.47-18.56,7.86-.65,.39-1.3,.75-1.96,1.1h48.22c-4.09-2.38-8.1-4.88-12.27-7.09Z"/><path class="d" d="M1920,96.36v56.82c-.15,.12-.3,.24-.45,.36-2.57,2.06-5.2,4.06-7.88,5.96-.24,.17-.48,.34-.71,.5h-13.09c-.33-.26-.68-.53-1.05-.81-2.89-2.22-5.55-4.75-8.2-7.25-6.2-5.87-13.35-9.94-21.83-11.33-6.34-1.04-12.73-1.79-19.09-2.77-4.29-.66-7.34-3.15-8.57-7.27-1.2-4.01-1.95-8.15-2.78-12.26-1.97-9.7,1.35-17.62,9.55-22.24,6.31-3.55,13.25-5.19,20.44-5.45,10.55-.38,20.73,1.91,30.94,4.39,7.26,1.77,14.63,2.6,22.27,1.42,.15-.02,.3-.05,.45-.07Z"/><path class="d" d="M1397.19,58.74c-3.72,6.93-8.11,13.52-11.66,20.53-2.88,5.68-4.58,11.96-7.45,17.64-4.71,9.31-12.03,15.01-23.09,13.59-4.31-.55-8.52-1.93-12.73-3.12-8.25-2.32-16.21-1.86-20.01,8.2-.7,1.84-1.42,3.69-2.28,5.45-3.57,7.29-8.5,12.61-18.66,9.69-4.78-1.38-10.08-2.33-14.94-1.74-8.57,1.05-15.78,6-23.27,10.13-8.15,4.49-16.23,9.32-26.3,8.86-9.86-.45-17.29-6.14-16.69-17.83,.45-8.56,3.11-16.84,8.6-23.57,5.96-7.3,12.57-14.07,19.02-20.96,3.77-4.02,6.61-8.53,8.65-13.65,2.6-6.56,5.12-13.19,8.23-19.52,3.85-7.84,9.34-14.33,18.57-15.85,4.3-.71,8.77-.52,13.17-.51,3.68,.01,6.19-1.06,8.29-4.52,5.43-8.98,11.74-17.44,17.04-26.5,.97-1.65,1.74-3.33,2.31-5.06h33.24c-.11,1.23-.07,2.48,.17,3.74,1.4,7.17,5.03,13.37,11.21,17.76,8.05,5.73,16.17,11.37,24.04,17.35,2.51,1.91,4.73,4.52,6.32,7.25,2.6,4.44,.32,8.74-1.78,12.64Z"/><path class="d" d="M1728.65,6.5c-.66,5.13-1.57,10.34-1.26,15.44,.52,8.78-4.06,14.62-10.19,19.49-9.34,7.4-15.17,7.39-24.93,.5-8.87-6.26-17.86-12.38-26.28-19.2-4.95-4.01-9.07-9.12-13.22-14.02-2.1-2.5-1.19-7.22,1.28-8.71h76.38c-.86,1.95-1.47,4.1-1.78,6.5Z"/><path class="d" d="M1828.93,0c0,.64-.03,1.28-.08,1.94-.63,8.56-2.78,17.06-4.86,25.45-3.2,12.84-10.18,24.13-16.05,35.82-2.21,4.4-5.92,8.24-10.09,11.64-7.96,6.48-14.46,14.19-17.14,24.78-2.09,8.27-4.75,16.51-10.66,23.29-4.47,5.13-8.15,10.93-12.38,16.28-4.63,5.85-10.83,9.41-18.16,10.38-5.7,.77-11.51,.66-17.26,1.01-7.67,.48-14.31,2.88-18.23,9.41h-69.11c5.93-1.63,11.86-3.26,17.8-4.86,10.87-2.95,19.59-8.72,22.58-20.05,2.79-10.58,4.8-21.41,6.39-32.25,1.57-10.76,6.25-18.75,16.47-23.19,7.74-3.35,15.16-7.17,21.43-13.09,7.02-6.63,14.71-12.55,21.69-19.23,5.57-5.34,8.12-11.74,4.23-19.51-1.49-2.96-2.17-6.33-3.25-9.5-2.66-7.8,0-14.47,4.52-18.32h82.16Z"/><path class="d" d="M1503.56,22.33c-3.46,2.69-7.32,5.09-11.35,6.8-10.49,4.46-22.64,3.01-30.01-5.32-6.15-6.96-8.35-14.59-6.94-23.81h52.63c3.71,8.05,2.35,17.15-4.33,22.33Z"/><path class="d" d="M1231.74,23.19c-7.64,4.08-16.18,5.95-24.94,5.52-6.5-.33-8.2-2.01-7.59-8.56,.56-5.97,2.39-11.82,3.47-17.75,.16-.85,.36-1.65,.61-2.4h30.6c6.39,5.67,8.81,17.33-2.15,23.19Z"/><path class="d" d="M983.16,70.61c6.27,3.22,14.63-1.87,17.64-10.51,4.19-12.05,1.87-23.79-3.6-34.94-2.58-5.26-6.78-8.36-13.13-7.33-1.33,.22-2.72,.03-4.09,.03h-.45c-5.9,2.45-7.98,7.11-7.73,13.18,.33,8.03,.35,16.08,1,24.08,.56,6.9,4,12.21,10.36,15.48Z"/><path class="d" d="M1176.23,54.18c-4.84,12.17-6.38,24.85-7.27,37.76-.32,4.6-1.36,9.38-3.19,13.59-5.67,13.06-16.21,22.37-26.39,31.71-3.65,3.35-9.3,3.47-14.39,2.87-9.05-1.08-18.12-1.17-25.83,4.23-6.77,4.74-12.91,10.36-19.29,15.66h-47.44c-7.16-8.77-11.57-22.36-6.98-34.41,5.36-14.07,14.54-25.01,27.76-32.21,8.7-4.73,16.37-10.52,21.23-19.21,3.5-6.25,5.9-13.11,9.28-19.44,1.86-3.48,4.2-7.15,7.28-9.45,7.01-5.24,14.65-9.53,23.52-11.11,3.24-.58,6.37-1.76,9.56-2.67h.45c8.03,.6,16.09,.96,24.08,1.89,7.62,.88,15.17,2.3,22.73,3.58,3.39,.58,6.55,2.27,6.66,5.89,.12,3.77-.39,7.84-1.77,11.32Z"/><path class="d" d="M1590.67,131.03c-.49,8.46-4.57,15.64-12.94,19.6-7.68,3.63-15.87,5.09-24.12,6.26-3.04,.44-5.79,1.51-7.64,3.11h-307.74c8.33-2.7,16.02-6.72,23.58-11.21,6.59-3.91,13.33-7.9,21.34-7.18,4.31,.39,8.54,1.86,12.73,3.1,5.95,1.77,11.72,3.81,18.21,2.78,8.21-1.31,13.08-6.84,17.68-12.83,3.78-4.93,8.19-8.72,14.58-9.52,5.29-.66,10.59-1.48,15.91-1.77,11.96-.66,20.73-6.59,26.7-16.49,3.63-6,6.15-12.67,9.21-19.02,5.55-11.55,11.77-22.82,20.57-32.16,7.88-8.35,15.2-17.63,26.24-22.39h.45c5.76,1.22,11.5,2.52,17.28,3.61,5.43,1.03,11.06,3.11,16.33,2.48,9.81-1.16,19.44-3.88,29.11-6.11,7.33-1.69,13.26,1.36,15.42,8.67,2.8,9.52,3.71,19.2,1.91,29.09-1.26,6.88-3.85,12.65-10.5,15.91-9.35,4.59-19.68,3.72-29.55,5.45-6.82,1.19-13.99,1.47-20.37,3.84-10.68,3.98-13.54,10.74-8.56,21.53,3.74,8.1,8.81,15.61,13.52,23.24,4.38,7.11,10.23,12.32,19.05,13.22,4.71,.49,9.42,1.05,14.09,1.83,10.62,1.77,21.23,1.1,31.8-.16,2.26-.27,4.7-1.69,5.07-4.86,.38-3.36,1.41-6.65,1.72-10.01,.67-7.33,1.97-14.49,4.61-21.36,4.25-11.09,9.73-14.88,19.99-15.32,14.33-.62,25.04,14.3,24.32,26.67Z"/><path class="d" d="M1652.24,102.83c-5.88,1.49-11.78,2.92-17.73,4.06-3.85,.74-10.46-2.88-12.2-6.79-3.39-7.63-6.61-15.36-9.57-23.17-7.69-20.28-22.46-32.4-43.25-37.1-5.98-1.35-12.39-.77-18.6-1.07h-.45c-3.18,1.51-6.87,1.46-9.66,4.44-3.04,3.25-4.57,6.98-5.24,11.03-.74,4.47-.87,9.07-.97,13.62-.14,6.49-.39,12.88-2.67,19.13-1.44,3.95-4.14,5.73-7.83,6.29-8.92,1.34-17.9,2.32-26.8,3.73-5.95,.94-12.21,1.46-17.65,3.78-10.66,4.54-12.95,8.76-9.4,21.11,3.61,12.59,10.52,23.49,24.79,26.33,10.33,2.06,20.73,3.38,30.51-2.98,3.95-2.57,5.89-6.17,7.1-10.14,2.74-9,5.56-18.04,7.17-27.28,1.25-7.18,5.24-10.42,11.55-12.26,11.38-3.33,22.27-3.64,32.3,4.09,12.42,9.58,20.49,21.34,20.04,37.75-.08,3.02,.28,6.12,.92,9.07,.8,3.69,3.98,5.14,7.22,5.86,6.17,1.38,12.33,1.17,18.65,.21,6.69-1.01,12.94-2.88,19.09-5.57,9.5-4.16,14.86-11.3,16.87-21.39,.98-4.93,1.19-9.68-.04-14.57-1.5-6-7.97-9.76-14.13-8.2Z"/><path class="d" d="M254.58,45.04c-8.05-2.94-16.3-2.62-24.58-2.63h-.45c-5.45,1.82-11.22,3.02-16.3,5.57-14.41,7.24-18.13,18.65-16.75,32.6,.44,4.45,3.81,7.83,7.64,9.95,13.98,7.74,28.67,8.83,43.56,3.15,6.91-2.63,10.75-8.53,13.24-15.35,2.63-7.23,3.03-14.71,2.7-22.28-.14-3.37-4-9.16-9.05-11Z"/><path class="d" d="M446.32,86.22c7.09,1.51,13.67,.16,19.98-2.15,7.1-2.59,12.63-6.87,14.81-15.25,2.81-10.76-5.8-16.8-13.4-17.29-3.77-.24-7.57-.04-11.36-.04h-.45c-4.24,1.52-8.54,2.89-12.71,4.58-5.84,2.36-8.07,7.41-8.51,13.16-.17,2.21-1.59,4.03-.39,6.91,2.6,6.23,5.61,8.71,12.03,10.07Z"/><path class="d" d="M944.54,160h-269.81c-5.25-6.12-6.87-13.08-6.5-20.78,.35-7.43,.48-14.98,1.95-22.23,1.54-7.64,4.1-15.27,12.08-19.13,10.01-4.84,20-9.7,30-14.55h.46c8.81,0,13.61,3.49,15.35,12.3,1.41,7.17,2.04,14.51,2.8,21.8,.94,8.93,5.22,15.33,13.68,18.59,3.39,1.31,6.89,2.55,10.45,3.15,9.51,1.58,19.04,3.41,28.64,3.96,7.21,.41,14.53-1.48,21.8-1.48s14.61,.68,21.81,1.78c9.3,1.42,18.57,3.22,27.72,5.44,10.94,2.66,21.79,5.51,33.2,4.45,2.43-.22,4.85-.84,7.27-.85,9.28-.07,18.55-.32,27.74,1.72,7.23,1.6,14.39,3.4,21.36,5.83Z"/><path class="d" d="M1879.44,160h-28.92c1.08-3.21,3.13-5.97,7.18-7.6h.46c4.24,.31,9.1-.63,12.62,1.13,3.33,1.67,6.23,3.87,8.66,6.47Z"/><path class="d" d="M1755.74,160h-9.83c.59-.11,1.19-.22,1.79-.32h.46c1.36,0,2.73,.01,4.09-.01,1.27-.01,2.44,.1,3.49,.33Z"/><path class="d" d="M265.37,0h59.7c-2.94,4.87-5.81,9.78-8.68,14.69-6.35,10.88-14.31,19.82-26.85,23.63-10.54,3.2-17.44,1.28-20.38-10.48-1.34-5.35-1.8-10.91-2.82-16.34-.73-3.92-1.07-7.75-.97-11.5Z"/><path class="d" d="M491.82,32.4c.17,5.1-3.58,8.57-10.47,9.06-10.59,.75-21.21,1.22-31.81,1.87-6.75,.41-11.33-2.53-15.09-8.14-7.23-10.78-10.85-22.7-12.86-35.19h69.52c.03,.5,.03,1,0,1.51-.59,10.25,.37,20.59,.71,30.89Z"/><path class="d" d="M918.91,0c-.65,2.69-2.15,5.2-4.82,7.43-1.47,1.22-2.73,2.71-4.1,4.06-3.4,3.35-5.72,7.17-7.43,11.77-3.34,8.96-7.28,17.5-14.19,24.79-7.31,7.71-8.85,17.33-3.94,27.59,2.4,5.03,4.34,10.39,3.8,16.32-.48,5.26-4.94,11.7-10.08,13.12-4.15,1.14-9.26-2.21-11.88-5.8-4.88-6.71-10.15-13.15-15.39-19.59-5.35-6.55-10.42-13.24-13.17-21.37-1.95-5.77-4.09-11.47-5.83-17.3-.7-2.36-1.67-3.89-4.17-4.06-4.84-.34-9.7-.53-14.54-.94-12.85-1.07-19.22-7.4-20.17-18.64-.49-5.73-.1-11.55,.49-17.38h125.42Z"/><path class="d" d="M623.88,160h-87.23c-1.43-1.89-3.3-3.54-5.74-4.88-8.43-4.62-16.11-10.14-22.83-17.17-7.02-7.34-10.11-6.7-18.09-1.92-10.44,6.25-20.82,12.59-31.39,18.6-9.21,5.24-19.57,4.96-29.49,3.89-9.36-1.01-18.22-4.9-26.35-9.81-6.3-3.81-12.82-7.37-17.81-13.09-4.18-4.78-4.37-13.12-.4-17.75,6.01-6.99,13.34-11.88,22.25-14.61,16.03-4.91,32.63-6.61,49.1-9.06,7.01-1.04,14.2-1.97,20.39-5.55,5.62-3.24,10.89-7.2,15.92-11.31,6.08-4.97,8.05-5.32,14.6-.85,1.81,1.23,3.55,2.61,5.47,3.61,4.11,2.12,8.49,2.19,12.18-.53,2.92-2.15,4.56-5.73,3.61-9.41-1.17-4.57-3.15-8.96-7.64-11.36-3.7-1.98-7.5-3.81-11.37-5.44-2.93-1.23-5.75-2.49-6.29-5.96-.54-3.47,1.9-5.14,4.47-6.85,11.01-7.32,21.6-15.08,29.16-26.3,3.25-4.81,6.53-9.63,10.05-14.25h52.73c-.7,3.98-1.05,8.02-1.77,11.98-1.47,8-3.39,15.51-8.24,22.3-6.28,8.81-12.14,17.89-15.19,28.55-2.2,7.65-4.72,15.57-2.82,23.15,3.52,14.09,12.92,23.87,26.57,29.11,12.01,4.61,19.3,13.17,22.21,25.51,1.49,6.3,1.91,12.89,3.83,19.03,.04,.12,.08,.25,.11,.37Z"/></g></g></g></svg>