<?xml version="1.0" encoding="UTF-8"?><svg xmlns="http://www.w3.org/2000/svg" viewBox="0 0 1928 2690"><defs><style>.d{fill:#191919;}</style></defs><g id="a"/><g id="b"><g id="c"><g><path class="d" d="M1928,1268.2c-4.82-2.55-11.08-4.01-17.84-5.28-12.76-2.41-26.7-3.26-38.49-6.67-17.21-4.97-25.56-14.83-33.5-24.56-5.72-7-14.97-11.61-28.65-13.47-24.42-3.3-48.37-.6-71.86,2.21-26.07,3.11-44.43-.49-54.16-13.63-11.3-15.21-19.16-30.93-20.35-47.7-.39-5.56-2.48-11.51-6.69-16.45-8.37-9.83-14.53-11.71-31.74-10.92-17.02,.78-40.39,10.54-47.64,22.9-10.47,17.78-12.98,36.33-14.97,54.78-1.1,10.08,1.95,20.39,4.11,30.53,2.87,13.56-2.85,19.2-25.58,24.21-29.97,6.62-60.27,12.72-86.44,24.07-22.44,9.73-48.15,16.96-65.29,30.6-18.53,14.73-32.04,30.19-28.65,49.07,.83,4.65,1.27,9.34,2.29,13.99,2.04,9.35,5.14,18.64,6.33,28.02,.93,7.34,9.32,9.1,19.04,10.85,10.78,1.95,21.57,3.99,32.08,6.37,36.08,8.15,48.69,25.95,55.09,45.81,2.46,7.62-6.82,12.63-18.53,11.4-3.77-.41-7.45-1.13-11.08-1.89-39.02-8.08-61.15-24.77-71.84-47.09-3.6-7.49-6.13-15.31-22.25-17.1-7.6-.85-15.48-1.33-23.2-1.26-15.87,.14-31.74,1.08-47.59,1.09-15.48,0-31.01-.57-46.47-1.22-27.73-1.18-52-6.97-70.72-19.12-7.55-4.87-8.81-10.94-5.57-17.13,6.89-13.23,25.17-21.36,42.21-29.77,7.08-3.49,16.31-6.43,25.32-7.51,12.88-1.54,26.56-.69,39.7-1.71,9.4-.71,19.4-1.89,27.51-4.51,14.78-4.78,20.18-13.01,21.5-22.7,1.34-10-4.7-21.78-21.28-26.78-13.92-4.2-28.92-5.42-44.28-5.67-12.03-.2-22.69-2.32-33.35-5.57-10.32-3.15-21.71-6.26-33.08-6.93-45.6-2.72-79.43-16.15-106.09-36.56-10.27-7.86-8.23-13.91,5.45-19.68,5.38-2.25,10.91-4.4,16.6-6.37,19.11-6.64,38.8-12.77,57.4-19.86,20.45-7.8,39.66-16.69,59.98-24.62,11.78-4.59,23.61-9.02,29.6-16.69,4.48-5.73,8.33-11.72,11.08-17.8,10.18-22.36,41.85-30.84,73.18-30.56,15.12,.13,30.28,.36,45.35-.13,7.45-.24,15.36-1.27,22.03-3.16,18.43-5.22,23.52-15.63,25.15-25.99,2.04-12.88,1.14-25.84-8.2-38.23-5.99-7.94-12.88-15.22-27.97-17.62-17.41-2.76-35.4-4.23-53.02-6.55-14.12-1.88-28.97-3.07-41.9-6.54-32.33-8.7-53.12-23.54-60.81-43.73-3.48-9.17-4.82-18.63-6.77-27.98-.85-4.05,2.65-6.65,9.88-6.96,23.69-1.02,45.64,.92,64.29,10.7,16.82,8.81,34.49,16.99,57.38,20.54,22.62,3.51,31.21,13.44,34.59,25.99,2.41,9.02,6.43,17.97,11.1,26.71,2.29,4.27,7.21,8.12,15.17,10.28,13.83,3.75,28.41,3.8,43.19,3.81,34.15,.04,59.79-8.23,73.93-26.19,15.68-19.91,20.08-41.38,22.23-62.96,.66-6.48-3.29-8.29-14.22-10.29-13.68-2.53-26.75-.42-39.87,.83-18.04,1.72-34.59,6.05-51,10.63-8.33,2.32-17.43,4.31-26.51,4.99-10.91,.81-17.87-3.33-23.32-8.65-15.94-15.67-18.82-32.73-17.6-50.33,.88-12.74-12.34-18.02-27.7-19.54-13.73-1.36-27.97-1.19-41.99-1.43-20.33-.35-38.34-3.44-50.88-13.42-17.33-13.79-39.9-22.14-69.65-25.05-22.54-2.21-41.53-.08-58.79,8.47-13.63,6.74-20.06,16.13-27.22,24.97-9.15,11.29-23.35,19.13-41.29,25.39-14.19,4.94-29.14,9.4-41.8,15.43-15.53,7.39-17.33,18.04,2.95,25.35,19.13,6.89,40.43,9.2,62.08,9.9,17.97,.59,36.2-.15,54.16-1.2,15.97-.95,30.87-3.78,38.95-13.18,2.09-2.46,6.01-4.61,9.88-6.32,3.46-1.53,10.35-3.7,11.64-3.01,4.53,2.39,11.59,3.84,11.66,8.64,.05,6.01-1.68,7.95-14.61,10.11-10.66,1.76-20.18,4.68-22.93,10.94-6.43,14.62-1.53,28.27,15.31,40.02,14.19,9.89,19.47,20.74,13.15,33.13-6.65,12.97-19.21,22.83-43.09,26.78-18.21,3.01-36.81,2.24-55.33,2.56-31.52,.52-46.96,7.38-56.55,23.47-9.79,16.44-10.15,33.3-8.67,50.32,.29,3.4,1.05,6.82,2.19,10.18,3.48,10.19,3.29,20.33,.05,30.57-2.68,8.43-5.53,16.92-6.52,25.46-1.58,13.54-1.61,27.14-2.51,40.72-.15,2.13-1.44,4.24-2.12,6.37-5.19,15.91-12.17,31.72-15.02,47.77-3.16,17.81-9.54,35.08-18.26,52.15-8.2,16.05-17.36,31.84-34.06,45.92-10.59,8.93-19.86,18.44-28.8,27.98-7.13,7.62-15.36,14.58-26.68,20.33-16.58,8.44-47.4,9.31-65.34,1.92-12-4.94-15.9-12.8-21.93-19.8-7.57-8.82-16.29-17.04-31.28-22.11-8.18-2.77-17.26-5.21-26.49-6.3-17.82-2.13-30.67,5.08-30.77,17-.07,8.49,1.68,16.97,1.95,25.46,.19,6.29-3.65,8.05-14.27,8.32-20.98,.52-34.18-6.19-45.45-15.28-10.39-8.39-9.69-20.22,5.57-26.16,6.79-2.63,13.07-5.71,20.01-8.21,10.52-3.78,20.76-7.98,22.81-15.35,1.44-5.14,2.24-10.33,.97-15.94-4.72-20.74-17.97-39.49-36.22-57.16-8.89-8.61-21.32-9.97-36.25-5.11-5.5,1.79-10.64,4.02-15.51,6.34-22.79,10.85-35.42,25.26-43.21,41.34-6.38,13.15-16.04,25.22-39.9,30.44-29.21,6.37-59.84,8.67-90.56,4.93-12-1.46-25.12-4.66-30.82-11.89-6.3-7.98-12.98-16.27-15.26-24.8-4.82-18.01-10.42-35.63-26.92-51.55-4.58-4.41-.49-8.14,8.74-8.15,7.74-.01,15.48,.78,23.22,1.18,9.23,.46,18.74,.14,27.61,1.43,19.4,2.8,38.54,.85,56.33-2.35,35.03-6.32,56.31-21.54,67.41-41.13,8.37-14.79-.24-24.2-25.22-29.2-13.88-2.76-28.04-5.07-42.02-7.69-30.75-5.76-54.07-16.08-58.33-35.65-3.16-14.52-3.24-29.25-4.77-43.9-.58-5.6,2.58-10.05,9.79-14.12,7.25-4.09,17.16-4.33,24.47-3.91,16.46,.95,32.57,4.12,48.74,6.61,17.04,2.6,33.69,6.58,50.98,7.97,24.03,1.93,47.62-1.19,70.82-5.35,18.28-3.28,37.32-5.14,56.33-1.93,10.95,1.85,21.52,4.47,32.11,6.93,19.77,4.61,37.78,4.68,55.53-3.71,24.29-11.47,36.95-27.06,49.59-42.78,10.49-13.11,19.57-26.65,31.45-39.32,6.43-6.85,11.68-13.61,15.26-21.1,5.94-12.42,8.18-25.52,19.69-36.96,7.45-7.41,15.46-14.66,21.81-22.36,2.7-3.29,2.7-7.58,2.36-11.37-.9-10.31-14-15.66-27.63-20.24-6.18-2.07-14.17-4.12-20.81-3.67-17.8,1.19-32.55,6.57-44.28,14.37-19.5,12.97-40.19,24.6-70.79,28.76-22.69,3.09-37.17,10.98-40.26,25.3-1.68,7.79-6.82,15.33-10.74,22.94-7.28,14-25.39,23.08-44.21,31.84-16.97,7.93-35.3,8.63-54.14,3.05-8.37-2.48-16.41-5.77-23.17-9.54-14.19-7.94-27.02-16.71-41.24-24.63-10.88-6.08-23.86-11.22-39.68-10.75-30.16,.88-51.73,10.61-67.36,24.73-13.19,11.93-17.75,25.81-22.01,39.43-4.92,15.67-17.16,26.89-44.4,32.64-19.06,4.02-34.42,11.89-48.88,20.12-9.64,5.49-19.99,10.57-29.8,15.96-18.31,10.05-35.88,20.17-43.5,34.94-6.74,13.11-22.25,22.15-46.16,25.49-10.27,1.43-20.96,2.03-30.92,3.96-21.52,4.17-25.93,4.89-24.2,18.98,2.22,18.18-8.81,34.27-21.2,50.29-11.42,14.76-27.07,27.71-47.47,38.92-10.71,5.88-19.84,12.77-22.15,21.57-3.41,12.86,15.04,25.39,35.27,29.31,23.81,4.62,48.57,4.65,73.05,4.85,19.04,.17,33.98,3.81,45.25,12.35,4.04,3.08,6.84,6.71,10.05,10.14,13.32,14.2,25.07,28.97,40.19,42.52,23.69,21.19,68.31,28.67,110.37,20.6,20.79-3.98,42.02-4.02,63.03,.49,27.56,5.91,55.7,10.97,82.84,17.41,18.74,4.45,37.68,9.23,51.12,18.88,13.75,9.91,19.35,20.78,13.1,33.12-3.92,7.73-7.79,15.54-13.39,22.88-11.54,15.1-17.43,30.68-17.7,47.15-.12,8.18,3.02,15.84,6.79,23.57,4.63,9.51,7.35,19.44,13.68,28.55,9.18,13.18,26.44,22.59,48.27,29.42,28.07,8.79,56.23,17.13,89.66,15.17,8.54-.5,17.02-1.54,25.46-2.52,42.45-4.94,84.96-9.7,122.89-22.85,27.92-9.66,59.52-13.46,90.68-17.87,19.57-2.77,22.13-5.36,25.34-12.74,5.21-12.03,9.08-24.25,14.65-36.24,5.7-12.21,7.72-24.04-5.79-35-7.6-6.15-15.26-12.41-24.44-17.76-18.16-10.57-33.57-22.24-43.79-35.82-6.65-8.84-6.62-18.39-2.6-27.95,6.06-14.37,24.81-22.08,45.67-27.78,25.88-7.06,53.75-10.68,82.79-9.02,7.84,.45,16.29,1.18,23.13,3.23,38.24,11.51,67.09,28.72,86.15,50.85,13.58,15.75,35.37,24.51,63.27,29.97,21.35,4.17,42.48,9.3,55.31,20.92,20.55,18.6,31.77,39.01,33.13,61.07,.34,5.28-1.78,10.6-1.95,15.91-.34,10.18-1.22,20.42,.17,30.54,1.83,13.15,10.57,24.02,32.79,30.72,28.51,8.6,57.84,7.23,87.51,4.2,19.5-1.97,35.32-8.64,50.9-15.21,12.95-5.46,25.51-11.26,42.07-12.7,5.16-.45,10.32-.87,15.51-1.27,19.06-1.51,33.3-8.11,46.33-15.36,17.58-9.8,37.54-13.46,60.96-9.4,21.64,3.75,43.09,8.42,55.14,20.38,11.54,11.46,17.5,24.27,17.67,37.49,.27,18.44-.68,36.93-2.22,55.36-.63,7.48-3.09,15.04-6.65,22.25-4.16,8.43-17.19,11.64-30.67,8.25-6.91-1.75-13.15-4.38-20.01-6.25-7.16-1.95-14.56-3.68-22.1-5.1-13.24-2.48-25.83,.97-38.71,1.85-23.93,1.61-37.54,2.23-49.71-12.1-6.35-7.51-12.1-15.21-17.72-22.91-6.74-9.24-14.78-18.12-30.06-23.41-18.5-6.41-37.81-9.94-58.64-2.14-10.95,4.12-18.28,9.75-24.08,16.06-7.96,8.74-14.19,18.01-22.54,26.61-4.77,4.93-11.47,9.51-18.7,13.35-15.09,8.01-34.69,10.53-54.09,12.77-11.93,1.37-21.37-1.23-24.22-6.32-1.97-3.51-2.99-7.2-4.53-10.8-5.87-13.79-11.88-27.57-17.67-41.38-9.4-22.38-35.47-35.36-71.93-42.67-18.7-3.75-38.37-2.98-57.57-4.36-6.89-.49-14.22,.57-20.96-.2-22.76-2.63-42.28-9.24-61-16.99-16.31-6.75-33.96-11.82-55.24-10.98-11.64,.46-20.23,5.43-18.72,12.17,1.87,8.29,4.11,16.58,6.62,24.81,4.55,15,15.51,27.17,44.21,30.54,42.45,4.97,78.19,16.44,107.57,34.91,8.4,5.28,19.11,9.54,29.72,13.39,30.96,11.27,66.48,14.58,101.76,17.77,17.19,1.54,21.18,2.38,26.44,12.25,3.34,6.3,6.35,12.67,8.84,19.1,6.26,16.09,14.39,31.4,37.59,42.71,28.07,13.65,54.16,16.06,85.23,1.76,10.18-4.68,19.45-10.01,28.82-15.24,14.56-8.08,31.48-12.83,52.05-12,13.68,.53,27.26,1.95,40.95,2.41,20.62,.7,41.31,1.25,61.95,1.23,15.26,0,29.07,2.25,42.02,6.51,20.06,6.58,28.9,16.71,23.1,27.95-8.35,16.26-11.34,32.74-11.39,49.67-.02,7.65-3.07,15.95-8.98,22.73-6.45,7.38-17.28,13.63-27.17,19.86-14.24,8.98-32.01,9.84-51.92,7.21-22.13-2.93-44.35-6.09-67.46-5.24-31.96,1.18-61.44-4.24-90.83-10.66-14.9-3.26-30.72-6.39-46.4-6.88-41.82-1.29-68.82,20.43-71.35,41.75-1.73,14.47,11.27,27.31,24.34,39.24,3.34,3.02,13.24,4.41,20.52,5.11,14.17,1.36,27.56-2.16,38.39-6.43,25.12-9.89,51.15-12,79.99-7.48,26.17,4.12,34.11,13.95,20.94,27.43-1.78,1.83-4.24,3.47-6.6,5.1-13.63,9.44-22.52,19.61-23.78,32.46-1.14,11.69-6.79,23.01-19.04,33.25-14.29,11.96-27.14,24.6-38.73,37.52-9.74,10.87-24.95,14.76-44.55,15.94-10.08,.62-20.55,1.61-29.77,3.89-15.77,3.88-20.18,12.81-24.47,21.45-9.54,19.1-13.61,39.11-28.73,57.3-10.64,12.76-22.64,24.83-45.42,31.8-19.52,5.98-39.22,11.75-58.59,17.87-23.1,7.28-32.13,16.17-26.27,28.55,5.87,12.34,14.19,24.3,22.03,36.28,1.34,2.04,5.38,3.66,8.67,5.11,22.23,9.79,56.96,7.79,81.77-1.3,16.04-5.87,27.26-14.49,37.71-23.48,12.44-10.68,22.44-22.5,41.99-29.94,22.59-8.6,45.08-16.9,74.17-15.35,14.9,.8,23.56,7.56,21.32,16.03-1.87,7.09-10.22,11.54-17.16,16.4-11.88,8.33-19.11,17.7-20.47,28.13-1.56,12,3.53,23.41,12.76,34.42,10.05,12.03,32.89,21.43,64.49,15.99,14.34-2.48,29.33-3.96,44.21-5.1,13.51-1.04,27.26-1.02,40.92-1.39,11.47-.32,17.19-5.41,10.86-10.75-6.45-5.46-14.17-10.47-22.03-15.31-10.32-6.37-15.04-14.09-13.92-22.32,1.44-10.52,7.4-20.52,16.04-29.98,3.75-4.1,6.48-8.75,7.72-13.33,2.56-9.49-6.89-16.87-16.6-23.43-19.62-13.23-22.03-28.97-17.94-44.6,4.14-15.7,7.38-31.41,7.74-47.16,.24-11.02-3.6-22.1-6.26-33.09-2.97-12.32,6.01-20.94,21.93-28.83,18.06-8.93,34.69-18.78,43.75-32.21,7.38-10.94,17.84-21.17,26.12-31.93,8.13-10.54,16.31-21.09,16.94-33.06,.49-9.23,6.91-12.1,23.03-12.1,13.27,0,26.56,.13,39.83-.03,33.57-.39,62.68-7.56,86.08-21.1,20.25-11.71,39.44-24.09,57.43-36.94,10.18-7.28,19.26-15.45,21.42-25.3,2.34-10.63,5.11-21.22,7.69-31.83v-.64c-1.85-5.94-1.92-12.31-5.92-17.73-8.37-11.4-26.61-15.78-46.03-19.3-22.66-4.1-45.25-7.76-63.59-18.08-17.24-9.68-12.9-25.53,.34-33.43,17.02-10.14,39.61-14.27,61.08-19.54,10.1-2.48,21.13-4.24,32.01-5.06,15.29-1.15,29.36,1.81,42.02,6.83,10.88,4.31,22.57,8.4,35.52,8.4v-186.99c-7.57-2.65-15.65-4.92-24.34-6.79-19.45-4.2-39.44-8.18-55.45-16.38-8.4-4.31-16.41-8.95-25.54-12.66-17.67-7.18-29.63-16.02-33.42-28.69-2.14-7.13-6.74-14.69-20.76-17.08-13.68-2.34-27.85-4.44-41.99-5.03-22.1-.9-43.79,.31-65.46,4.58-19.55,3.84-38.54,2.76-54.41-7.77-16.33-10.84-35.86-20.08-53.8-30.14-11.15-6.26-24.42-11.9-28.6-21.01-7.64-16.62-7.4-33.3,3.16-49.62,12.1-18.71,20.81-37.75,21.3-57.93,.12-5.11,3.14-10.4,6.52-15.22,6.5-9.26,19.67-15.68,31.99-22.28,18.79-10.05,30.77-21.62,29.97-36.97-.29-5.8,6.48-10.12,15.41-11.89,7.69-1.51,15,.48,21.06,4.17,7.67,4.68,14.34,9.38,16.6,15.98,2.26,6.65,6.48,13.09,8.57,19.76,6.23,19.86,14.48,39.34,31.21,57.25,12.12,12.97,24.88,25.73,54.12,28.08,21.98,1.76,42.48-.21,62-6.37,16.55-5.21,25.44-14.07,34.2-22.98,16.46-16.68,32.52-33.5,48.76-50.26,6.26-6.46,12.78-12.81,18.91-19.3"/><path class="d" d="M0,1873.11v-294.15c2.34-.15,4.65-.34,6.96-.55,18.43-1.69,33.74-6.71,38.73-18.3,3.09-7.18,6.35-14.37,8.81-21.64,5.72-17.01,10.05-22.17,42.14-27.32,16.55-2.66,43.09,3.16,50.61,11.5,3.77,4.2,5.7,9.17,6.72,13.93,3.7,17.1,17.48,29.63,45.45,37.03,18.6,4.92,37.56,9.62,53.31,17.63,20.59,10.49,33.93,27.01,11.9,42.64-8.15,5.78-18.4,10.6-27.46,16.01-12.29,7.35-26.41,14.05-36.13,22.42-19.79,17.08-34.86,35.86-55.5,52.77-21.84,17.85-41.77,36.35-69.62,51.66-14.65,8.04-20.42,19.31-23.88,30.96-2.82,9.49-6.65,19.19-13.44,27.91-8.33,10.71-20.3,20.45-30.45,30.7-2.43,2.45-5.14,4.72-8.15,6.81Z"/><path class="d" d="M470.66,2151.31c-11.88-.66-24.42-1.85-32.01-8.18-6.09-5.08-12.54-10.25-16.43-15.92-10.13-14.76-29.41-22.78-54.36-28.16-14.65-3.16-29.63-6.86-40-14.41-6.72-4.89-11.2-10.59-9.57-16.54,2.48-9.06,9.74-16.9,21.47-23.75,12.66-7.38,28.38-11.57,43.57-16.23,18.89-5.8,31.5-14.14,38.66-25.6,10.1-16.17,20.08-32.38,31.06-48.36,10.76-15.64,22.76-31,34.15-46.51,5.36-7.28,12.15-13.61,25.37-17.28,13.66-3.79,26.95-8.11,39.87-12.69,25.22-8.93,45.86-20.98,66.43-33.05,17.06-10,30.89-21.24,39.85-34.37,5.5-8.07,1.31-17.38-9.86-21.73-17.04-6.62-34.79-5.03-53.24-3.19-19.43,1.93-39.02,3.78-58.64,4.36-18.35,.53-36.86-.91-55.31-.99-21.25-.11-39.63,7.45-46.37,19.05-7.08,12.21-12.59,24.74-20.21,36.86-10.37,16.51-24.59,24.04-58.45,23.97-25.46-.04-50.9-2.31-76.34-3.56-9.59-.48-19.18-.85-28.77-1.29-9.23-.42-19.06-2.24-27.53-.98-18.5,2.72-36.34-.08-54.33-.56-15.21-.41-30.19-3.43-45.4-4.76-26.78-2.34-34.25-7.66-42.89-20.49-2.34-3.46-1.12-7.66-2.56-11.39-6.6-16.87-.44-31.79,20.03-44.56,8.67-5.41,18.87-10.12,26.27-16.03,11.37-9.12,21.03-18.95,31.23-28.54,14.85-13.98,31.14-27.55,43.79-42.14,11.17-12.88,23.91-24.6,42.45-34.3,10.42-5.43,20.67-11.08,29.82-17.2,24.64-16.45,28.55-33.08,4.6-50.88-12.49-9.28-28.73-15.88-46.62-20.88-33.28-9.28-51.07-23.5-54.82-45.26-3.04-17.56-17.31-23.72-46.89-27.36-2.82-.35-5.99,.22-8.84-.1-22.88-2.58-45.86-1.68-68.58,.21-15.99,1.34-20.13,6.04-21.3,15.74-1.29,10.87,5.36,21.52,.51,32.52-4.45,10.12-8.01,18.26-30.21,21.45l-.29,.04v-373.36c12.9-.32,25.61,.39,37.73,3.33,22.52,5.48,43.36,13.37,64.29,20.8,10.83,3.84,16.6,10.28,14.31,17.69-4.94,15.95-19.45,29-39.61,40.13-9.76,5.41-20.76,10.38-28.46,16.66-14.58,11.95-20.21,25.49-6.74,37.33,9.96,8.77,24.44,15.46,41.92,18.32,19.06,3.12,39,4.48,58.55,6.6,15.73,1.68,30.99,3.39,44.5,9.37,14.85,6.57,22.3,15.78,31.87,24.35,11.68,10.45,22.35,21.37,35.69,31.06,16.87,12.27,40.82,19.2,66.14,24.24,11.12,2.23,22.81,4.82,34.25,4.83,13.27,.01,26.83-2.09,39.78-4.23,19.11-3.15,37.66-4.76,57.67-1.96,26.95,3.75,50.8,10.94,72.76,20.07,22.83,9.48,24.2,18.99,9.18,32.99-9.74,9.07-15.39,18.54-10.59,29.94,3.94,9.41,4.45,19.44,4.67,29.21,.27,12.93-1.8,25.88-1.78,38.82,0,10.7,3.94,21.3,13.36,30.46,16.55,16.08,37.78,29.63,68.23,37.75,19.28,5.15,37.56,11.53,56.57,17.03,14.12,4.07,27.61,9.24,44.21,9.62,16.24,.36,32.47,1.18,48.69,1.16,16.19-.01,31.62-2.45,45.35-7.56,23.69-8.84,47.18-17.85,70.86-26.71,16.46-6.15,33.62-10.82,54.19-10.29,19.09,.48,31.26,5.46,37.71,15.99,8.91,14.56-.85,28.09-31.04,31.3-10.15,1.09-20.03,3.15-29.89,5.03-18.18,3.47-26.56,10.22-26.56,20.98,0,6.37-.17,12.73,.05,19.1,.17,5.59-2,10.85-7.89,15.24-18.96,14.1-37.88,28.23-57.6,41.98-13.27,9.26-29.29,17.29-41.58,26.94-18.04,14.17-26,30.53-14.19,47.47,6.91,9.89,9.81,19.73,10.47,30.04,.63,9.62,5.6,18.33,16.85,25.37,8.79,5.52,18.48,10.67,28.73,15.28,21.69,9.77,46.03,16.43,74.03,17.21,32.43,.9,53.58,16.57,43.94,34.38-6.65,12.25-15.56,24.32-32.99,33.09-22.47,11.29-45.18,22.48-68.62,33.06-24.76,11.18-38.02,25.16-37.63,43.38,.1,3.6-.61,7.32-2.24,10.8-4.24,9.07-17.45,11.11-28.51,4.43-3.63-2.18-6.04-5.03-8.96-7.59-5.55-4.87-10.64-9.93-16.68-14.61-18.23-14.09-36.66-28.11-55.31-42.01-9.62-7.16-19.11-14.45-30.06-20.89-8.13-4.76-18.09-8.85-30.75-9.02-20.47-.28-45.38,12.73-50.98,26.05-4.63,11.01-4.58,21.86-2.63,33.15,2.22,13.02,1.92,26.34,.07,39.42-1.58,11.38-12.07,20.43-31.67,24.82-20.28,4.52-41.51,6.18-63.03,4.97Z"/><path class="d" d="M1681.47,846.49c-10.35-14.93-18.82-30.35-26.61-45.79-5.14-10.15-7.16-20.82-11.66-31.1-1.31-3.05-5.36-6.88-9.88-7.98-5.5-1.34-8.35,2.7-10.86,5.39-.22,.25-.8,.39-1.07,.64-16.16,15.39-40.92,19.9-69.65,16.36-34.84-4.3-69.4-8.93-105.16-10.21-9.74-.34-20.33-2.14-28.58-5.08-21.64-7.73-37.29-18.89-47.71-32.28-5.72-7.35-3.6-12.48,6.62-17.77,4.87-2.52,10.2-4.75,15.43-7.03,24.98-10.87,36.22-25.88,38.58-43.3,1.48-10.99,.29-22.15,2.65-33.06,3.63-16.72,19.3-32.73,58.35-31.84,16.97,.38,33.91,.99,50.9,1.22,15.31,.21,19.89-2.11,23.22-10.77,6.62-17.2,12.83-34.45,20.08-51.55,4.45-10.49,12.83-20.6,33.13-22.56,13.83-1.33,29.02-.03,42.97,1.74,24.59,3.14,46.23,1.16,65.36-8.47,17.19-8.65,36.05-16.16,57.69-20.11,17.97-3.28,35.35-8.56,55.19-7.94,10.27,.32,15,2.07,12.8,7.62-2.41,6.2-7.3,12.32-13.05,17.8-9.49,9-18.5,18.16-19.35,28.74-.8,10.14,1.02,20.36,1.92,30.54,1.36,15.71,3.19,31.4,4.31,47.11,1.02,14.51-8.93,22.99-34.15,27.52-18.11,3.26-35.83,7.46-53.09,12.06-22.27,5.94-45.21,9.89-69.79,9.34-25.2-.55-45.81,4.02-62.05,15.33-14.02,9.79-20.67,20.07-11.08,32.52,8.03,10.43,20.03,19.1,34.62,26.58,2.07,1.05,7.52,.7,10.76,0,4.41-.94,8.25-2.79,12.24-4.33,17.45-6.65,36.86-9.84,57.55-10.07,12.54-.14,25.15,.41,37.61,1.27,11.27,.78,20.59-1.71,28.58-5.35,8.3-3.78,15.29-8.6,22.25-13.25,13.17-8.79,25.37-18.06,38.97-26.62,11.25-7.07,26.19-10.77,42.94-9.47,14.58,1.13,28.87,3.54,43.19,5.59,.78,.11,1.56,.22,2.34,.32v95.31c-15.77,1.22-31.09-.21-46.57-1.47-21.45-1.72-41.97-6.61-64.19-5.77-11.76,.43-18.18,4.12-18.91,10.88-1.31,11.94,6.55,23.61,2.48,35.67-2.17,6.47-4.82,12.77-12.42,17.76-17.94,11.79-41.89,19.09-65.51,25.78-20.74,5.87-31.35,4.65-41.41-9.9Z"/><path class="d" d="M1928,1321.07c-15.26,8.11-26.19,18.39-36.56,29.02-11.32,11.58-21.57,23.53-33.4,34.94-15.46,14.9-40.46,22.29-68.48,26.73-12.76,2.02-25.68,4.44-38.73,4.94-28.9,1.09-45.52-5.91-54.31-24.6-8.42-17.92-16.07-35.91-34.96-51.7-15.48-12.94-42.21-13.29-61.03-5.46-17.6,7.32-25.68,18.16-30.38,30.37-5.6,14.61-13.02,29.02-20.84,43.3-10.74,19.56-11.3,38.13,14.68,54.05,19.6,12.03,39.58,23.97,61.05,34.87,12.24,6.2,28.55,7.53,45.06,4.73,2.73-.46,5.87-.07,8.81-.07,19.94,0,39.85,.17,59.76-.04,16.6-.18,33.23-.53,49.78-1.29,22.83-1.05,34.01,5.55,38.37,17.29,10.86,29.21,42.24,49.06,84.54,64.18,5.38,1.92,10.98,3.64,16.63,5.28v-266.55Zm-256.82,971.64c42.7-2.11,63.27-19.8,77.87-39.57,8.01-10.85,2.8-22.36-12.42-31.75-12.24-7.53-27.26-12.67-42.36-17.6-27.19-8.91-29.55-18.67-5.33-30.01,22.35-10.47,45.69-20.29,71.93-27.31,26.32-7.03,41.55-18.61,48.83-34.44,2.26-4.89,6.33-9.68,11.03-13.98,6.96-6.36,24.81-8.54,38.44-4.41,16.68,5.04,32.45,11.02,48.83,16.4,6.35,2.09,13.07,3.45,19.99,4.31v-303.17c-1.51,.03-3.02,.04-4.53,.04-14.87,.04-30.16-1.67-44.33-5.34-8.91-2.31-18.14-4.66-27.65-5.63-16.46-1.69-45.79,5.99-42.14,17.67,1.97,6.33,9.27,9.7,17.84,12.7,11.05,3.85,22.4,7.42,33.13,11.51,18.18,6.9,29.5,16.45,30.99,29.24,1.07,9.31,2.7,18.7,2.02,27.99-1.17,15.92,4.04,30.7,17.82,44.62,8.86,8.95,5.09,14.7-12.05,14.9-31.09,.34-52.39,10.15-72.96,21.36-26.46,14.42-55.28,26.87-88.63,35.56-8.89,2.32-18.28,4.06-27.63,5.76-16.92,3.08-31.91,7.52-44.43,15.21-19.67,12.09-38,24.63-50.61,39.6-6.11,7.27-10.3,15.08-16.94,22.17-5.77,6.12-12.17,12.59-21.11,17.06-20.77,10.38-21.96,25.46-11.64,38.99,8.93,11.71,19.13,23.15,29.82,34.38,12.73,13.36,12.22,20.18-4.55,32.52-5.14,3.79-9.71,7.44-11.68,12.65-2.26,6.01,.85,10.92,5.36,15.24,11.17,10.74,25.02,20.57,35.91,31.4,12.12,12.04,30.87,12.95,51.17,11.94Z"/><path class="d" d="M278.1,507.98c-24.81-.83-35.05-10.74-25.37-22.29,4.97-5.88,10.61-11.61,16.58-17.18,18.57-17.41,30.84-35.82,28.7-56.67-.78-7.65-2.19-15.29-2.07-22.92,.27-13.93,6.96-26.96,19.82-38.8,13.9-12.84,27.02-25.75,33.45-40.71,3.53-8.25,13.73-14.19,27.36-17.87,7.77-2.1,15.53-4.22,23.22-6.37,18.84-5.28,37.12-11.37,56.57-15.73,31.14-6.99,60.25-8.75,83.98,8.72,.63,.48,1.46,.85,2.19,1.27,16.16,9.37,35.32,14.44,58.64,13.35,6.28-.28,12.56-.76,18.82-1.26,12.54-1.01,25.07-2.14,37.61-3.16,23.98-1.93,47.96-3.84,71.93-5.73,11.42-.9,23.08-1.16,34.25-2.67,16.26-2.2,25.1-9.86,25.58-19.61,.95-19.12-11.78-35.05-34.57-48.29-17.97-10.45-37.32-20.12-56.31-29.98-13.73-7.13-30.41-11.22-48.59-10.01-31.4,2.07-57.16,11.2-74.98,26.02-21.01,17.43-50.66,21.01-83.23,18.06-34.32-3.11-61.15-14.13-80.99-30.86-14.92-12.6-20.38-26.8-24.17-41.44-2.58-9.91-8.01-19.4-24.51-24-23.47-6.55-47.81-11.16-75.15-8.01-21.11,2.44-42.58,4.55-60.52,11.26-19.3,7.2-37.46,15.68-54.09,24.83-8.98,4.96-16.77,12.06-19.67,18.93-5.7,13.46,2.46,26.26,18.48,36.02,26.46,16.15,54.94,31.19,82.69,46.63,9.01,5,19.01,9.45,27.51,14.72,20.94,12.93,19.01,24.48-1.05,36.17-8.06,4.71-16.55,9.2-25.44,13.37-36.1,16.94-76,30.54-118.58,41.12-20.03,4.96-42.36,5.08-62.83-1.61-19.91-6.5-41.63-8.74-64.17-9.66-3.09-.13-6.16-.29-9.23-.53V1.26H203.85c9.79,5.13,22.2,8.33,35.52,8.85,23,.9,45.33-1.51,67.55-4.92,10.42-1.6,21.03-2.94,31.72-3.94,4.53-.43,9.06-.8,13.61-1.11,5.6-.38,9.08-.08,11.2,1.11,2.29,1.23,3.02,3.5,3.21,7,.51,9.13-.34,18.44,2.6,27.32,3.72,11.15,15.56,19.9,31.55,26.86,15.29,6.64,28.77,14.56,36.44,24.79,12,16.05,32.08,25.98,62.17,28.5,14.31,1.2,42.33-2.23,53.19-11.3,9.98-8.35,12.37-17.9,15.34-27.42,3.38-10.8,6.82-21.44,18.65-30.64,5.94-4.61,11.78-9.82,14.09-15.26,2.85-6.71,2.12-13.92,2.65-20.94,.24-3.25,1.22-6.23,3.09-8.91h65.63c6.04,3.72,11.68,7.72,17.53,11.51,2.97,1.95,5.04,4.51,6.67,6.96,6.86,10.42,2.68,20.57-3.29,30.53-11.22,18.72-12.05,37.07,5.65,54.74,6.28,6.26,12.34,12.72,20.03,18.39,12.46,9.17,27.02,16.86,46.13,21.92,24.25,6.43,47.35,13.99,66.87,25.08,12.63,7.17,27.8,13.09,43.01,18.49,15.8,5.62,33.23,9.7,49.56,14.86,27.65,8.72,43.62,26.16,35.18,40.63-14.68,25.09-38.1,46.94-81.77,58.41-24.66,6.48-43.23,16.62-59.32,28.34-16.02,11.68-36.42,17.7-61.1,20.31-17.38,1.82-34.62,3.6-51.1,7.98-14.61,3.88-30.53,6.51-46.35,8.32-21.52,2.45-43.53,3.35-65.22,5.35-23.61,2.18-43.96,7.35-53.17,21.57-5.67,8.75-11.98,17.35-17.62,26.12-11.08,17.22-26.17,32.28-58.62,38.9-6.3,1.29-12.22,3.44-17.7,5.7-15.68,6.41-30.92,13.21-46.57,19.65-20.96,8.61-45.77,12.1-69.74,16.47-17.24,3.12-34.28,7.13-53.04,6.51Z"/><path class="d" d="M1324.72,2652.75c-13.66,2-25.2,5.87-37.56,9.14-15.34,4.06-31.33,7-48.61,6.43-11.81-.41-23.81-.24-35.37-1.43-14.53-1.48-27.65-4.62-28.9-15.12-1.12-9.55-4.11-19.1-4.04-28.64,.1-12.81-4.77-24.95-11.54-36.89-5.84-10.29-11.39-21.06-29.77-26.69-7.69-2.37-16.04-4.1-24.29-5.77-20.28-4.09-23.95-8.04-25.8-19.75-2.17-13.65,23.32-25.5,50.22-21.79,10.78,1.48,18.87,4.76,26.56,9,13.24,7.3,24.32,16.09,41.99,20.4,25.1,6.12,49.81,12.86,75.32,18.33,39.9,8.54,80.11,16.62,120.62,24.13,17.11,3.18,35.35,4.37,53.02,6.55,22.15,2.75,44.65,3.53,66.29-.22,20.69-3.59,41.38-1.92,62.08-2.14,7.72-.08,15.9,1.36,23.15,3.12,14.53,3.53,16.5,9.45,5.5,15.73-7.21,4.13-15.24,7.8-23.15,11.5-12.83,5.97-25.95,11.44-36.83,18.96-23.42,16.17-22.35,36.75-5.48,52.39h-149.54c-5.26-6.99-8.57-14.45-12.68-21.71-7.84-13.75-29.38-18.75-51.17-15.54Z"/><path class="d" d="M1928,2354.82c-7.67-2.09-16.07-3.44-24.49-4.71-21.06-3.14-39.14-8.15-52.27-19.03-16.7-13.86-36.17-26.45-59.28-37.17-15.12-7.02-21.96-16.1-15.92-27.92,7.81-15.29,13-30.95,11.32-47.07-.07-.84-.63-2,.1-2.49,5.11-3.43,3.41-5.22-3.31-7.17-7.81-2.25-15.07-5.24-22.2-8.18-19.21-7.93-24.34-20.8-5.62-29.3,12.51-5.7,25.83-3.35,28.65,5.78,2.34,7.55,3.58,15.25,4.36,22.91,.32,2.91-1.97,5.92-3.09,8.91l4.43,2.53c10.32,1.92,20.45,4.71,31.04,5.57,30.23,2.47,55.89-3.88,78.53-15.1,18.33-9.09,23.93-21.27,26.7-34.38,.34-1.57,.66-3.15,1.05-4.75v191.54Z"/><path class="d" d="M502.72,2305.5c-17.8,2.56-35.64,1.93-53.07-.71-21.5-3.26-36.9-11.53-49.88-21.55-14.83-11.48-33.3-18.71-59.71-17.27-15.07,.83-30.33,1.64-45.33,1.09-10.1-.38-21.37-1.92-29.6-5.11-15.29-5.91-14.07-15.91-9.81-24.48,5.89-11.76,14.75-23.05,22.86-34.44,9.74-13.71,17.72-27.43,13.34-42.67-3.55-12.41-15.48-23.55-43.28-22.81-10.37,.28-20.94,1.02-30.94,2.56-28.73,4.44-56.09,10.71-74.03,25.42-8.01,6.6-14.65,13.79-21.03,20.98-5.62,6.3-13.07,11.32-24.51,13.92-18.35,4.19-36.69,8.4-55.38,12.02-8.4,1.61-17.72,2.74-26.46,2.47-7.01-.22-12.05-1.69-15.87-3.96v-191c8.33-2.32,17.11-4.1,25.9-5.84,24.44-4.85,44.82-12.51,57.21-25.67,8.25-8.74,14.41-18.13,21.23-27.31,14.07-18.95,35.47-35.32,55.55-52.11,9.96-8.33,20.57-16.51,37.39-21.15,21.88-6.04,44.23-8,68.7-6.6,23.15,1.3,45.52,3.63,67.46,7.9,11.71,2.28,23.37,5.11,35.44,6.2,20.21,1.85,37.42-3.33,54.29-9.24,12.22-4.27,17.67-9.65,16.7-17.94-1.12-9.3-3.7-18.51-.63-28.05,3.21-9.96,6.13-19.84,17.16-27.9,16.6-12.13,40.82-11.81,64-10.66,21.54,1.06,42.77,4.13,64.22,6.09,16.46,1.51,26.07,6.22,18.77,17.85-11.68,18.61-33.06,32.87-63.27,41.77-19.06,5.62-40.31,8.81-60.64,12.95-16.94,3.46-20.86,6.9-22.37,17.2-.9,6.22-3.07,12.55-6.6,18.43-11.64,19.42-23.93,38.71-36.37,57.96-11.49,17.8-29.09,33.09-58.64,42.59-28.7,9.23-48.86,23.05-65,38.97-6.18,6.12-12.49,12.88-14.05,19.7-3.21,13.96,17.53,26.86,39.31,30.42,10.81,1.78,22.13,2.52,33.13,3.93,21.57,2.77,41.02,7.66,53.04,19.1,4.24,4.05,8.06,8.33,11.05,12.73,9.57,14.05,30.23,18.12,53.24,18.86,17.97,.59,36.15-.43,54.19-1.15,10.01-.39,19.86-2.02,29.89-2.38,19.55-.71,29.16,.78,35.03,10.81,4.11,7.06,6.28,14.76,6.6,22.21,.32,8.04-1.73,16.2-4.19,24.17-6.16,19.98-13.27,39.88-19.69,59.85-3.7,11.54-13.49,21.01-31.28,26.47-10.13,3.11-22.62,3.68-34.06,5.35Z"/><path class="d" d="M918.5,2690H0v-380.12c3.94,1.5,8.79,2.6,14.75,3.25,12.15,1.3,24.37,2.44,36.49,3.87,12.51,1.47,20.28,6.34,21.06,12.69,.63,4.89,1.97,9.76,2.09,14.65,.17,9.03,6.6,16.31,17.84,22.25,23.1,12.18,46.06,24.47,69.89,36.17,8.28,4.06,18.79,6.69,28.58,9.65,19.79,5.95,41.92,4.78,63.07,6.25,17.16,1.2,31.52,4.59,39.63,13.57,8.2,9.09,15.48,18.5,22.18,27.99,9.71,13.78,22.93,19,45.42,15.74,18.26-2.63,31.18-9.13,39.07-19.52,9.74-12.83,20.16-25.74,41.8-33.79,17.72-6.58,37.32-10.99,57.57-13.88,27.68-3.94,55.53-4.09,82.96,1.71,18.6,3.92,37.59,7.25,56.4,10.88,13.8,2.66,27.61,3.7,42.07,1.34,18.67-3.05,37.63-5.5,56.4-8.37,34.35-5.25,56.14,.8,73.91,13.5,8.67,6.19,15.87,13.21,22.2,20.31,16.55,18.6,43.75,26.82,78.65,29.49,16.58,1.27,32.96,4.62,48.64,8.18,21.03,4.77,36.56,14.44,54.43,22.04,9.2,3.92,17.09,8.07,19.82,14.72,5.36,12.97,.66,25.18-6.21,37.63-4.77,8.64-14.68,12.38-28.09,14.55-34.4,5.56-68.55,6.11-102.95-.52-27.17-5.24-54.43-10.46-84.08-6.57-24.54,3.23-49.51,5.31-74.05,8.49-16.29,2.11-16.16,2.73-12.27,11.99,1.78,4.2,2.82,8.5,4.5,12.72,4.04,10.12,12.56,19.07,25.63,25.98,15.95,8.43,35.05,14.41,56.26,17.21,34.03,4.5,65.65,11.81,94.04,23.62,15.56,6.48,18.4,10.29,12.05,20.38-.41,.66-.85,1.32-1.27,1.97Z"/><path class="d" d="M1928,52.68c-22.86-2-46.03-3.09-68.65-5.78-32.74-3.88-65.26-8.58-97.33-14.02-20.79-3.51-37.51-10.91-45.5-23.34-1.78-2.76-3.63-5.52-5.48-8.28H724.83c4.97,5.14,7.3,11.06,7.25,17.83-.1,15-6.52,29.23-13.97,43.22-7.79,14.58-4.67,27.36,9.01,40.25,15,14.13,31.89,27.46,57.99,34.65,29.04,8.01,52.02,19.79,73.91,32.75,14.63,8.67,32.4,14.37,52,18.47,24.66,5.17,48.22,11.18,66.58,22.8,20.74,13.14,23.59,30.67,8.64,45.27-3.53,3.46-7.42,6.78-11.03,10.21-22.47,21.43-51.12,39.64-87.56,53.33-21.79,8.16-41.72,17.35-59.64,28.12-3.43,2.06-7.18,3.96-11.05,5.73-21.62,9.79-47.86,14.54-71.76,21.8-16.8,5.11-34.23,5.32-52.14,4.9-5.92-.14-11.81-1.11-17.7-1.16-15.51-.18-31.04-.55-46.47,.07-16.55,.67-32.99,2.09-47.64,7.45-18.94,6.93-27.82,17.6-32.94,29.37-5.36,12.38-9.47,24.97-13.32,37.54-1.78,5.84-3.26,11.97-2.04,17.78,2.58,12.17,5.89,24.37,11.03,36.26,6.04,13.99-2.92,21.31-20.23,25.5-17.67,4.27-34.91,9.45-53.21,12.49-24,3.99-33.89,1.57-45.21-10.59-2.87-3.09-5.43-6.3-7.74-9.55-7.77-10.84-15.58-13.86-35.47-14.02-21.4-.15-41.65,2.77-62.03,6.23-25.85,4.4-51.41,9.83-79.65,6.69-27.48-3.07-45.98-19.66-27.36-35.08,11.61-9.63,26.29-18.05,38.32-27.55,15.8-12.49,24.42-25.75,16.19-42.03-6.23-12.35-5.01-25.26,1.22-38.17,5.23-10.88,7.18-22.36,9.03-33.68,1.34-8.18-6.74-11.2-20.74-8.88-24.47,4.06-47.54,9.87-69.79,17.07-32.74,10.61-62.2,22.78-76.34,44-5.04,7.56-14.56,12.63-28.7,13.96-14.27,1.33-28.02,1.85-40.04-4.9-10.18-5.73-10.71-12.74-11.9-19.86-1.95-11.69-6.52-22.01-28.73-26.87-.51-.11-1.05-.22-1.56-.35v211.25c1.19,1.26,2.39,2.52,3.6,3.78,7.33,7.63,16.14,14.48,29.99,18.37,25.29,7.1,51.46,5.98,76.1-.22,15.9-4.02,29.63-10.82,44.5-16.24,11.1-4.05,24.1-6.78,36.34-4.83,24.81,3.94,49.05,9.13,73.1,14.45,24.76,5.48,44.45,15.52,64.29,25.33,26.02,12.86,53.99,18.02,86.37,7.14,10.27-3.46,20.5-2.39,20.91,7.53,.54,12.91,7.72,23.3,30.96,28.04,17.82,3.63,35.57,7.41,53.09,11.47,26.66,6.19,49.86,14.93,60.76,31.17,7.23,10.73,9.3,21.52-3.12,31.82-7.04,5.83-16.7,9.83-27.82,11.92-21.08,3.95-36.25,11.26-40.51,23.75-5.26,15.29-19.26,26.83-38.85,37.01-8.28,4.29-14.58,9.9-21.15,15.18-9.71,7.76-8.84,17.2-10.98,26.08-.9,3.82-2.31,7.1-6.67,10.22-11.71,8.35-27.12,6.46-40.92,4.1-13.24-2.24-25.44-6.71-37.73-10.56-45.91-14.38-79.68-36.69-113.83-58.62-11.56-7.44-19.74-16.61-31.4-23.97-24.47-15.49-55.58-26.1-88.56-34.13-18.43-4.48-38.93-5.18-59.69-.67-16.07,3.49-27.97,9.34-38.24,16.34-6.21,4.23-13.19,7.77-20.55,11.06v251.44c16.87,8.04,33.64,16.2,48.76,25.25,25.56,15.26,25.44,31.28,2.51,46.94-13.95,9.51-31.87,13.6-51.27,15.67v87.99c21.45-.01,42.5,2,63.54,4.97,14.92,2.1,30.7,5.22,46.33,1.44,24.12-5.81,34.59-7.6,20.21-24.21-3.82-4.41-6.04-9.63-6.6-14.58-1.22-10.53,.19-20.92,5.96-31.24,4.45-7.95,4.11-16.24-3.77-24.21-5.82-5.91-9.52-12.56-13.46-19.02-7.64-12.51-7.06-24.58,5.31-36.31,10.59-10.05,25.1-17.52,42.21-23.48,23-8.02,43.67-17.39,58.72-30.54,18.09-15.84,36.2-31.69,55.43-47.07,15.29-12.24,19.04-12.24,44.09-7.76,32.91,5.87,66.63,9.7,100.64,12.87,24.49,2.28,48.74,5.41,73.05,8.19,12.15,1.39,23.64,.98,34.35-3.16,13.88-5.38,20.5-13.96,28.48-21.75,12.63-12.31,30.5-20.1,54.5-22.71,17.5-1.9,35.54-2.13,53.02-4.12,12.12-1.39,25.73-2.97,35.03-7.14,18.79-8.47,36.27-18.19,52.14-28.47,20.21-13.08,41.29-24.95,68.67-33.19,14.7-4.43,26.85-11.64,28.82-22.06,1.58-8.43,1.41-16.97,2.46-25.44,1.02-8.32,5.06-15.85,15.26-22.36,15.34-9.8,35.71-13.39,56.6-16.41,21.13-3.05,41.8-6.09,53.19-18.49,7.57-8.23,16.55-16.03,24.12-24.25,6.21-6.75,10.13-13.91,4.55-21.61-6.28-8.7-10.88-17.97-19.13-25.99-19.77-19.17-20.47-39.8-14.65-60.52,4.02-14.47,12.12-28.6,19.6-42.67,7.4-13.93,15.48-27.5,36-37.8,16.55-8.3,44.72-10.43,63.37-5.48,19.67,5.22,34.13,14.42,47.15,23.72,16.46,11.75,34.03,22.15,56.79,29.8,15.31,5.15,26.73,13,37.71,20.91,8.52,6.16,19.4,10.26,33.16,9.35,11.98-.78,23.78-2.94,35.42-4.96,15.63-2.72,31.14-5.69,46.47-8.92,11.64-2.44,23.91-4.55,34.13-8.39,24.39-9.13,36.22-23.08,41.21-39.28,5.19-16.94-.58-32.28-17.62-46.53-10.91-9.13-26.95-14.3-42.11-20.36-24.32-9.7-52.12-16.76-71.84-29.94-12.68-8.47-25.07-17.28-35.3-26.75-18.16-16.89-47.01-22.8-77.75-27.24-21.69-3.14-43.62-5.73-65.22-9.05-12.76-1.96-15.24-4.97-13.34-12.63,.83-3.39,1.31-6.81,2.26-10.18,2.48-8.71,3.87-17.6,7.98-26.06,7.52-15.43,15.34-30.91,25.58-45.78,9.27-13.49,24.98-25.73,60.57-21.4,29.99,3.66,51.41,11.97,65.31,27.63,15.53,17.5,22.93,36.27,28.68,55.41,3.8,12.62,13.07,21.79,43.09,21.66,23.25-.1,46.47-.07,69.72,.04,3.7,.01,7.45,.64,11.05,1.25,13.68,2.27,27.51,4.3,40.9,7.04,21.54,4.43,38.27,1.26,53.12-9,8.74-6.04,16.77-12.41,25.56-18.42,19.01-13.01,45.89-20.24,68.67-30.49,2.41-1.09,6.48-1.12,9.83-1.33,14.31-.91,26.68,1.47,37.68,6.92,16.65,8.25,35.42,14.65,56.4,18.42,14.51,2.6,29.33,4.76,44.26,6.36,18.79,2,37.93,2.55,56.36-1.23,18.21-3.75,34.81-9.02,48.95-17,8.37-4.73,18.45-8.68,28.68-12.09,11.44-3.81,31.28-1.19,40.95,3.6,2.36,1.16,4.11,2.44,5.5,3.78M536.33,90.09c6.94-5.57,9.1-14.14,9.03-21.36-.17-16.08,2.8-31.51,13.61-46.51,4.94-6.88,9.15-13.95,13.51-20.96h-156.24c-1.36,3.43-3.04,6.85-4.87,10.26-4.43,8.25-12.1,17.04-4.7,25.95,4.67,5.64,10.25,11.43,17.75,15.82,14.7,8.61,26.19,18.3,36.47,28.72,4.6,4.68,10.35,9.54,17.7,12.63,23.27,9.73,42.99,7.31,57.74-4.57Z"/><path class="d" d="M482.8,239.32v-.64c-13.65-5.3-27.21-10.68-40.96-15.9-33.81-12.84-54.6-31.45-70.89-52.19-6.11-7.78-11.2-16.21-20.28-22.73-15.4-11.07-36.72-13.62-61.59-12-25.04,1.63-45.2,7.75-62.72,17.07-9.32,4.96-16.98,11.32-23.17,17.76-6.08,6.32-2.98,13.05,4.08,18.99,14.39,12.09,28.66,24.23,43.19,36.27,11.3,9.36,27.77,15.38,44.37,20.87,19.65,6.51,40.31,10.85,63.97,12,39.33,1.91,75.76-1.82,110.72-11.83,5.98-1.71,11.74-3.44,13.26-7.66Z"/><path class="d" d="M1135.96,2690h-138.32c-5.33-3.81-10.49-7.69-15.38-11.67-13.27-10.82-13.75-9.98,.75-20.8,5.4-4.05,11.56-7.77,17.65-11.48,14.29-8.68,24.2-18.7,27.58-30.57,2.53-8.88,4.36-17.83,6.74-26.73,1.61-6.01,7.67-10.28,17.7-12,9.76-1.68,19.84-2.73,29.85-3.89,23.61-2.76,42.89,1.89,54.14,13.37,8.64,8.84,12.63,18.56,13.27,28.62,.93,14.77-4.65,29.03-10.69,43.33-4.38,10.36-6.4,20.89-3.29,31.82Z"/><path class="d" d="M1010.32,1733.25c-1.12,14.1,10.64,25.43,21.57,36.84,10.05,10.49,22.11,20.58,24.65,32.59,1.44,6.8-.88,14.22-4.22,20.92-7.11,14.24,5.85,21.14,23.57,26.13,4.3,1.21,8.79,2.22,13.27,3.19,24.5,5.33,25.62,16.47,19.96,28.03-2.89,5.89-6.25,11.8-7.6,17.83-3.44,15.48,10.44,25.74,33.09,32.33,13.83,4.03,29.11,6.4,42.94,10.43,17.07,4.98,33.11,11.12,49.98,16.34,9.49,2.94,19.96,6.13,30.77,2.49,6.65-2.24,13-5.34,17.65-8.86,14.55-11.01,28.28-22.38,42.23-33.66,10.7-8.65,25.78-13.74,43.24-15.69,12.66-1.41,24.72,2.01,36.47,4.85,19.83,4.79,39.62,9.66,59.78,13.96,22.12,4.72,44.74,6.46,68.63,4.14,13.99-1.36,28.73,.08,43.07-.34,13.32-.4,26.6-1.46,39.83-2.49,14.07-1.09,34.89-12.7,36.32-23.52,2.26-17.15,3.16-34.36,4.63-51.55v-.64c-6.65-15.27-26.03-19.94-50.88-21.14-21.12-1.02-42-3.64-63.11-4.85-23.62-1.36-45.72,.53-64.32,10.62-18.9,10.25-39.71,18.89-65,23.85-17.68,3.47-33.8,2.1-48.64-2.91-22.04-7.43-42.64-16.26-64.5-23.87-8.41-2.93-11.03-6.45-11-11.61,.03-6.15,.48-12.41-1.24-18.44-3.69-12.93-19.49-20.61-38.59-26.01-15.4-4.35-31.54-7.87-47.52-11.53-12.45-2.85-23.43-6.83-33.22-12.1-16.77-9.03-33.25-18.3-51.03-26.64-16.38-7.69-36.53-11.42-57.37-12.04-28.47-.85-42.32,9.56-43.41,23.36Z"/><path class="d" d="M1625.81,901.95c-7.37-4.09-19.49-4.4-28.73-.61-2.09,.86-3.88,2.02-5.53,3.17-2.01,1.41-5.82,3.78-5.21,4.29,2.64,2.21,5.7,4.11,11.81,4.1,17.04-.03,24.51-2.52,27.66-10.32v-.64Z"/><path class="d" d="M1402.55,2444.19c8.24,9.53,18.92,18.35,32.97,25.52,23.35,11.91,41.01,26.12,53.18,42.64,1.53,2.08,3.85,4.13,6.66,5.68,3.97,2.19,8.85,2.07,13.12,.04,2.8-1.33,5.98-2.7,7.67-4.46,15.75-16.49,41.29-27.98,63.1-41.38,5.01-3.08,8.72-6.85,13.41-10.12,10.55-7.36,5.34-16.06,6.59-24.21v-.64c-3.32-4.67-6.02-9.52-10.08-13.97-10.23-11.18-26.04-17.02-48.48-18.82-18.35-1.48-35.5,1.04-53.2,1.48-19.24,.48-38.7,.91-57.52-2.43-18.31-3.25-27.41-11.78-34.13-21.04-12.98-17.87-20.28-36.6-22.37-55.97-.3-2.77-.62-5.7-2.34-8.24-2.69-3.98-15.33-5.64-21.8-2.49-11.94,5.81-24.38,11.57-34.14,18.5-16.6,11.79-31.49,24.39-46.72,36.8-16.78,13.68-16.81,21.84,1.22,34.91,11.85,8.59,26.07,15.01,47.43,14.27,12.43-.43,25.11,.84,37.59,1.77,23.66,1.76,37.6,10.32,47.84,22.16Z"/><path class="d" d="M1127.99,2494.94c25.8,3.75,44.55,12.85,60.32,23.99,8.28,5.85,17.63,11.04,28.35,14.14,28.44,8.21,55.93,17.99,87.2,22.47,20.4,2.92,41.11,5.93,61.95,6.81,24.95,1.06,43.52-5.95,56.7-18.69,12.96-12.53,13.49-25.86,12.98-39.57v-.64c-5.57-10.88-16.68-19.66-29.57-28.16-12.46-8.21-22.3-17.72-33.54-26.57-9.02-7.1-26.16-11.63-46.43-7.66-7.73,1.51-15.92,2.47-23.15,4.56-18.89,5.45-34.49,1.88-47.48-5.93-16.25-9.77-30.67-20.54-46.8-30.37-14.41-8.79-23.71-19.17-31.88-30.01-10.79-14.3-30.24-20.86-56.45-23.07-26.38-2.22-52.76-5.04-78.51-8.95-27.57-4.18-41.63-16.4-48.8-31.62-7.29-15.5-14.75-30.98-22.11-46.47-7.44-15.67-26.5-24.87-52.07-29.81-20.34-3.93-40.9-8.31-61.97-10-46.05-3.7-91.33-2.47-131.68,13.65-10.57,4.23-22.57,7.29-33.02,11.6-28.57,11.78-27.95,23.73-9.01,37.5,15.37,11.18,34.84,17.05,59.81,17.23,16.62,.12,33.46-1.38,49.8,1.83,28.55,5.6,50.33,16.35,69.83,29.23,21.96,14.5,44.94,28.6,75.24,37.47,11.75,3.44,25.26,4.83,37.42,7.88,20.41,5.11,27.54,15.29,28.82,27.28,.86,8.06,.61,16.19,2.46,24.17,2.38,10.27,11.05,18.95,25.28,25.44,13.01,5.93,27.14,11.07,39.62,17.33,16.5,8.28,36.57,12,56.7,14.93Z"/><path class="d" d="M1428.72,2075.05c1.69-3.23,1.61-6.77,2.35-10.16v-.64c-10.78-15.55-31.92-22.42-59.7-25-22.81-2.11-41.64,.92-58.8,9.65-20.28,10.32-23.81,27.33-12.95,42.02,4.17,5.64,10,11.04,16.55,15.89,14.5,10.76,41.59,11.67,62.91,3.27,22.54-8.89,41.51-19.48,49.65-35.04Z"/><path class="d" d="M1300.65,1691.25c-1.07,12.26,3.5,24.22,13.43,34.91,15.42,16.6,47.34,11.3,59.51,.75,10.07-8.73,16.44-18.01,15.43-28.67v-.64c-3.52-7.09-11.89-10.83-24.33-12.14-14.44-1.52-28.67-4.08-43.2-4.86-15.95-.85-20.05,1.52-20.84,10.63Z"/><path class="d" d="M1198.65,1378.06c-7.84,8.78,4.54,20.49,25.58,24.7,29.34,5.87,57.91,2.61,85.05-5.04,12.79-3.61,20.36-9.49,17.85-18.38-.52-1.86-.08-3.81-.08-5.72v-.64c-5.96-8.26-17.32-11.18-32.09-10.83-19.55,.46-39.15,.48-58.63,1.39-16.79,.78-29.73,5.61-37.69,14.51Z"/><path class="d" d="M1238.65,1648.43c8.47,1.94,18.37,2.65,27.54,2.49,8.83-.16,12.94-4.58,14.34-9.33,3.12-10.59,6.59-21.17,8.73-31.83,2.25-11.19,3.12-22.48,4.6-33.72v-.64c-2.21-4.46-5.1-8.84-6.51-13.38-3.86-12.42-14.29-23.12-27.05-32.93-5.61-4.31-14.53-7.59-23.01-10.2-15.4-4.74-32.1-8.1-47.32-13-21.15-6.81-35.24-17.54-46.77-29.73-17.51-18.51-44.15-31.36-78.4-38.87-36.02-7.89-77.68,3.21-96.35,17.13-10.45,7.79-17.53,16.21-15.21,26.13,2.76,11.79,12.23,22.04,25.27,31.2,13.62,9.56,28.35,18.67,40.64,28.76,13.16,10.8,12.92,23.5,10.3,36.17-1.47,7.13-1.17,15.05,6.98,20.16,22.74,14.25,45.4,29.02,77.18,36.96,10.25,2.56,21.9,4.01,33.09,4.46,31.43,1.26,62.3,3.4,91.94,10.18Z"/><path class="d" d="M868.93,2151.5c25.89,6.3,52.53,10.2,80.81,10.2,7.38,0,14.85,.5,22.11,1.28,9.02,.97,15.02,6.88,16.76,13.92,2.85,11.56,6.41,23.03,15.25,33.78,9.64,11.72,27.11,17.45,47.71,18.13,30.1,1,66.43-13.99,64.92-34.07-1.08-14.37-10.31-22.04-37.3-28-16.73-3.69-34.16-5.52-51.98-6.46-8.18-.43-16.19-1.87-24.37-2.4-7.73-.51-11.17-3.94-11.83-7.09-3.08-14.8-4.71-29.67-.4-44.54,1.9-6.54,3.26-13.13,4.44-19.73,2.21-12.34,14.87-20.54,32.19-26.68,18.57-6.59,36.84-13.69,56.56-18.92,26.27-6.98,42.73-2.97,52.41,11.98,5.79,8.94,6.46,18.98,9.36,28.53,4.21,13.82,2.09,28.29,13.26,41.38,7.94,9.31,21.99,12.94,38.73,14.7,24.08,2.53,47.64,1.25,70.8-2.68,17.81-3.02,25.23-11.32,21.12-21.58-5.42-13.54-12.04-27.04-14.89-40.77-1.53-7.38,3.53-15.26,6.04-22.86,2.67-8.09,5.84-16.13,8.79-24.19v-.64c-11.59-15.46-34.16-25.71-54.5-36.75-22.72-12.33-50.16-21.03-78.28-28.81-15.46-4.28-31.69-7.81-46.31-12.89-24.09-8.37-38.53-20.65-40.13-37.4-.71-7.45-2.72-14.86-4.32-22.28-1.94-8.95-11.18-15.12-23.16-20.41-14.59-6.44-28.05-13.27-31.24-24.77-2.51-9.08,2.45-17.16,6.76-25.5,3.03-5.86,6.59-11.8,7.54-17.82,1.77-11.22-7.96-20.66-17.47-29.88-14.24-13.8-26.56-27.91-32.34-43.9-5.05-13.97-23.32-14.03-43.88-10.72-14.12,2.27-19.75,8.5-21.51,17.02-1.97,9.56-.78,19.97-12.94,28-7.71,5.08-15.38,10.35-24.41,14.58-31.54,14.78-52.73,34.44-75.79,53.1-10.59,8.57-10.6,19.06-2.69,29.13,11.58,14.75,7.97,29.82,3.95,45.23-2.09,8,3.07,15.96,12.48,22.97,16.26,12.12,37.01,18.56,63.31,18.9,10.31,.13,20.7-.54,30.97-1.23,19.03-1.28,30.95,4.14,41.12,12.71,18.27,15.39,15.04,31.44,3.92,47.09-14.26,20.07-40.15,35.13-69.28,48.52-16.96,7.8-35.12,15.19-45.29,26.72-6.06,6.87-9.82,14.1-7.07,22.26,2.68,7.93,3.9,16.08,4.53,24.16,1.11,14.13,13.25,23.26,35.53,28.69Z"/><path class="d" d="M1120.21,2315.04c-3.63-8.23-7.11-16.5-9.88-24.83-1.8-5.39,7-14.65,16.52-17.08,18.58-4.75,37.38-9.26,56.4-13.4,49.36-10.76,78.86-31.45,90.31-60.57,3.29-8.37,1.87-17.35,2.6-26.05v-.64c-3.67-4.46-3.54-9.63-10.8-13.53-7.91-4.26-16.99-6.4-26.86-7.34-10.89-1.03-22.08-1.22-33.16-1.36-15.8-.2-31.34-.55-46.56-3.74-9.62-2.01-13.95-5.8-15.3-10.97-3.27-12.49-5.65-25.06-9.08-37.54-2.29-8.33-3.56-17.1-9.2-24.72-11.06-14.93-21.32-18.13-51.38-13.17-30.65,5.06-57.17,14.73-64.1,34.72-5.01,14.46-8.22,29.02,7.25,42.72,6.26,5.54,15.02,8.25,24.68,9.95,21.9,3.83,43.93,7.79,66.4,10.05,17.47,1.76,25.36,7.34,29.84,16.18,8.1,15.94,8.86,31.19-9.96,45.23-23.32,17.4-51.95,28.69-91.9,28.06-7.35-.12-14.89,.4-22.09,1.29-8.98,1.11-12.51,5.58-14.27,10.11-3.37,8.63-2.85,17.26-.52,26.11,2.46,9.36,7,18.12,13.55,26.73,10.13,13.31,27.52,20.81,52.08,23.62,12,1.37,23.56,1.66,35.46-.05,14.61-2.1,23.77-11.16,19.96-19.79Z"/><path class="d" d="M1260.9,357.77c7.15-11.27,6.37-22.82,6.41-34.42v-.64c-4.43-7.64-7.35-15.71-13.56-22.83-17.62-20.18-45.4-25.39-79.35-23.46-10.83,.61-19.05,5.34-24.21,10.7-18.85,19.57-21.5,40.14-7.68,61.01,6.41,9.68,20.77,15.06,37.38,18.53,17.61,3.69,35.8,4.24,54.23,3.78,8.2-.2,22.3-5.6,26.79-12.67Z"/><path class="d" d="M1160.66,626.28c-3.67,9.93-.39,19.14,5.22,27.98,6.31,9.95,16.71,17.68,37.11,20.75,26.19,3.93,40.91-8.12,42.08-18.76,.58-5.28,.1-10.61,.1-15.91v-.64c-3.69-5.94-7.05-11.96-11.14-17.8-5.74-8.18-18.04-11.3-32.04-11.91-5.37-.23-9.82-2.23-16.82-.55-15.16,3.64-21.2,7.86-24.52,16.84Z"/><path class="d" d="M762.82,1335.4c4.6,4.03,9.6,8.04,15.52,11.42,25.56,14.58,51.84,28.74,77.21,43.43,11.97,6.93,38.99,6.66,50.07-.65,24.75-16.33,50.34-32.27,66.2-52.28,10.97-13.83,17.72-28.43,23.42-43.25,4.95-12.87,4.34-25.85,4.19-38.84-.04-3.4-1.53-6.78-2.08-10.19-2.57-15.97,4.35-31.17,10.83-46.49,5.42-12.8,9.79-25.79,13.24-38.82,2.67-10.08,4.34-20.35,4.34-30.53s-4.62-20.43-3.61-30.54c1.33-13.43,5.79-26.78,9.65-40.1,1.45-4.99,4.48-9.89,7.66-14.64,7.94-11.84,23.52-17.85,45.26-19.16,17.74-1.07,35.61-1.94,53.07-3.92,21.43-2.43,29.92-9.16,29.92-21.5v-.64c-11.8-14-23.62-28-35.4-42.01-9.41-11.18-27.98-14.76-46.57-16.93-17.65-2.05-36.03-2.24-54.13-2.73-19.43-.53-36.97,1.94-52.25,9.95-13.56,7.12-29.81,12.51-43.86,19.36-14.66,7.14-18.43,17.37-20.11,27.9-1.68,10.52-6.24,20.7-18.94,28.55-20.67,12.79-33.94,28.09-47.37,43.39-13.44,15.32-27.8,30.55-48.08,43.03-18.3,11.25-39.92,18.17-76.97,6.59-15.94-4.98-32.41-9.31-50.89-8.1-14.17,.93-28.52,2.47-41.99,5.09-31.53,6.15-61.62,4.32-92.05-2.52-12.42-2.79-25.79-4.05-39.7-4.26-17.58-.27-25.32,5.61-28.41,12.42-5.82,12.84-4.45,26.03,5.52,38.04,7.81,9.4,22.85,15.09,40.62,17.17,18.99,2.22,38.39,3.28,57.48,5.27,29.24,3.05,41.38,7.17,44.22,26.05,1.08,7.2,1.19,14.44,2.4,21.63,.72,4.26,3.79,7.3,13.15,7.12,12.47-.24,23.33-3.07,34.28-5.86,34.22-8.71,65.47-20.37,96.26-32.46,10.65-4.18,22.52-5.2,34.24-3.02,15.49,2.88,22.12,13.22,17.99,22.8-6.14,14.24-22.64,22.64-44.43,28.65-10.37,2.86-20.58,5.68-29.06,10.64-8.62,5.04-11.69,10.71-11.91,17.33-.78,23,9.03,44.33,31.06,63.62Z"/><path class="d" d="M799.27,2622.48c10.95,4.42,23.39,6.14,36.37,7.97,20.06,2.82,39.44,7.44,58.74,11.84,38.23,8.73,83.9,.06,102.43-21.22,4.28-4.92,2-11.73,2.74-17.67v-.64c-7.33-10.51-24.07-11.39-39.85-11.95-30.69-1.09-60.67-4.11-90.84-7.41-25.73-2.81-52.65-2.2-73.95,9.21-18.1,9.7-16.14,21.58,4.37,29.87Z"/><path class="d" d="M828.05,2427.07c9.47,8.53,18.84,17.11,28.83,25.44,12.44,10.37,31.62,14.21,51.96,15.79,15.68,1.21,31.71,.79,47.53,1.49,16.2,.72,25.66-4.63,25.46-14.7-.04-1.91,0-3.82,0-5.73v-.64c-1.48-4.88-3.25-9.74-4.36-14.65-1.98-8.77-5.4-17.28-15.74-24.09-4.06-2.68-9.95-4.51-15.34-6.43-27.12-9.62-47.78-22.8-66.7-37.44-17.57-13.6-34.35-27.96-60.51-37.08-18.5-6.45-37.62-9.03-59.83-7.28-29.12,2.3-57-.48-79.68-13.03-16.92-9.37-34.63-18.27-51.91-27.43-9.66-5.12-13.19-5.26-22.1,.03-11.61,6.9-22.83,14.02-34.37,20.97-14.13,8.51-33.13,10.73-52.02,11.92-19.76,1.25-39.82,.83-59.71,1.5-33.42,1.13-57.88-7.64-77.5-22.31-11.66-8.72-26.57-13.99-46.43-13.38-26.19,.82-52.43,1.33-78.54,2.66-18.11,.92-34.82,3.78-46.75,13.13-9.87,7.73-23.74,12.33-40.56,15-24.93,3.96-42.48,13.94-54.32,27.12-6.79,7.55-4.78,16.58,5.61,22.21,6.47,3.51,13.99,6.37,20.91,9.62,16.64,7.82,32.9,15.92,49.89,23.48,17.6,7.82,37.43,11,59.67,7.72,25.17-3.71,49.73,2.99,62.02,16.51,5.51,6.06,11.99,11.83,17.59,17.86,11.6,12.5,36.27,13.23,52.19,3.23,17.9-11.24,36.75-22.33,61.97-27.88,22.61-4.97,46.13-8.77,69.66-12.1,13.56-1.92,28.36-3.51,41.87-2.36,20.65,1.75,40.76,5.82,60.93,9.22,20.32,3.43,40.62,7.85,61.95,6.72,18.99-1.01,38.01-3.29,56.4-6.27,47.61-7.72,72.17,3.33,91.93,21.14Z"/><path class="d" d="M612.46,2175.66c-3.05,15.43-4.76,30.96-6.79,46.46-1.03,7.84-2.15,15.7-2.01,23.55,.07,4.25,2.09,8.6,4.31,12.71,3.94,7.3,12.14,8.68,21.97,3.82,34.83-17.22,75.22-29.52,115.36-41.71,32.14-9.76,67.4-10.39,102.65-4.74,25.43,4.08,50.81,8.27,76.4,11.98,8.15,1.18,16.91,1.25,25.4,1.33,15.71,.16,21.57-3.02,23.2-12.04,.27-1.47,.04-2.97,.04-4.45v-.64c-1.48-4.46-2.48-8.98-4.51-13.35-6.7-14.41-24.86-22.29-48.68-25.26-21.75-2.72-43.5-6.63-66.31-5.28-7.78,.46-15.69,.82-23.21,1.95-30.97,4.66-43.88,1.75-60.86-14.72-3.87-3.76-7.68-7.55-11.03-11.47-4.6-5.39-11.54-7.81-22.2-7.69-32.67,.34-63.49,4.51-93.05,12.68-20.16,5.57-28.37,15.21-30.67,26.87Z"/><path class="d" d="M586.82,278.14c14.71,3.62,30.47,2.52,45.31,1.64,26-1.55,51.68-4.85,77.51-7.34,9.93-.96,20.07-1.33,29.84-2.64,21.71-2.92,29.91-9.44,29.91-22.84v-.64c-3.74-8.33-8.96-16.05-18.56-23.03-15.1-10.97-35.05-18.54-53.46-27.19-10.61-4.98-22.22-8.84-36.36-10.42-20.93-2.34-37.56,1.85-53.19,9.06-14.1,6.5-21,16-30.84,24.25-7.57,6.35-13.36,13.45-21.39,19.58-5.92,4.52-6.3,8.61-3.1,13.49,6.98,10.66,14.33,21.14,34.35,26.08Z"/><path class="d" d="M698.56,2105.63v-.64c-2.21-4.88-3.95-9.85-6.73-14.62-8.56-14.68-21.33-28.28-41.14-38.66-24.47-12.82-45.88-8.9-57.75,6.97-11.06,14.79-9.42,31.06-5.06,46.96,1.63,5.93,2.71,11.91,4.52,17.81,2.6,8.5,9.1,13.03,28.73,11.56,17.95-1.35,34.55-4.85,50.87-9.02,15.37-3.93,23.78-10.94,26.57-20.35Z"/><path class="d" d="M566.94,1266.81c-21.14,2.67-42,6.08-63.15,8.69-14.2,1.76-28.9,2.21-43.08,4.01-22.11,2.8-27.96,10.18-29.67,23.46-1.27,9.88-.29,19.72,6.18,29.32,8.07,11.98,25.59,19.6,47.8,19.71,19.82,.09,39.12-.18,57.69-5.58,17.63-5.13,26.67-13.6,29.31-23.76,4.48-17.27,6.32-34.76,9.27-52.16v-.64c-2.59-4.35-9.31-3.69-14.34-3.06Z"/><path class="d" d="M334.55,808.9c-17.11-1.78-30.02-8.37-42.02-15.19-29.8-16.9-58.35-34.56-93.02-48.34-25.37-10.08-50.44-20.42-79.63-26.78-21.2-4.61-43.31-5.45-65.26-4.2-18.01,1.02-33.5,6.46-46.5,13.79-2.75,1.55-5.45,3.16-8.13,4.79v-138.68c8.84,6.82,20.3,11.74,35.71,14.31,15.39,2.56,30.16,3.82,46.59,2.79,24.12-1.51,46.52-4.73,67.53-11.71,7.94-2.65,16.58-4.92,25.41-6.33,16.75-2.69,33.96-2.02,50.83-.07,27,3.12,52.05,8.53,72.03,20.25,17.55,10.28,35.25,20.56,54.36,29.83,17.7,8.58,36.9,16.29,56.31,23.6,25,9.42,54.8,11.03,82.86,15.38,22.47,3.49,43.09,8.37,52.02,22.29v.63c-.15,7.46-3.65,10.57-15.53,12.67-6.82,1.19-13.97,1.81-20.98,2.59-22.49,2.49-36.9,8.39-32.47,28.68,1.95,8.86,1.8,18.08-5.04,26.73-6.82,8.6-17.84,14.79-29.7,21.16-31.28,16.8-67.85,15.67-105.38,11.81Z"/><path class="d" d="M314.6,953.41c-12.03,.35-22.05,2.41-31.05,7.05-23.49,12.12-35.06,27.28-36.47,45.24-.57,7.22-.41,14.53-2.42,21.62-3.22,11.31-13.84,19.45-32.77,24.45-9.22,2.43-17.54,6.84-24.27,11.35-10.02,6.71-2.66,14.34-.1,21.49,1.26,3.51,4.42,6.78,6.44,10.21,6.26,10.61-2.69,19.22-10.94,28.03-6.27,6.7-12.97,13.54-6.74,21.61,8.13,10.53,31.68,13.93,46.31,6.26,6.51-3.41,12.71-7.55,16.47-12.07,9-10.81,21.17-19.59,38.91-26.12,17.31-6.37,32.5-14.43,44.16-24.17,10.96-9.15,26.06-15.68,42.51-19.96,30.84-8.04,44.62-22.44,52.83-39.79,7.13-15.05,14.09-30.12,20.98-45.2,.84-1.84,.8-3.81,1.17-5.72v-.64c-7.62-10.44-24.89-13.12-41.03-15.73-27.37-4.44-54.94-8.77-84.02-7.92Z"/><path class="d" d="M1291.66,690c-12.42,.24-20.86-5.01-22.06-14.66-1.83-14.83-2.97-29.7-4.55-44.55-1-9.45,6.16-15.87,19.82-21.13,29.33-11.31,62.12-16.31,96.42-18.93,19.26-1.47,35.91-4.93,43.09-16.59,1.41-2.28,2.04-4.71,3.41-6.99,8.18-13.85,16.6-27.71,14.17-42.64-1.27-7.9-2.95-15.94-6.74-23.51-6.65-13.22-14.87-26.37-36.32-34.35-20.98-7.79-42.55-15.07-64.12-22.31-26.49-8.89-48.25-20.04-57.52-37.6-7.79-14.76-3.12-24.42,25.51-28.54,13.02-1.88,26.56-2.52,39.78-3.95,30.43-3.26,58.74-.91,85.32,8.84,19.26,7.07,40.14,10.21,63,5.25,17.65-3.82,28.97-11.54,39.85-19.77,8.93-6.76,18.4-13.33,32.04-17.18,29.41-8.3,59.88-12.87,92.94-8.96,25.03,2.94,50.12,5.62,75.25,8.28,15.43,1.64,30.99,4.23,46.47,4.16,17.72-.08,35.66-1.97,53.04-4.3,23.95-3.19,45.64-4.68,64.73,7.56,7.35,4.71,19.6,7.84,30.6,9.55,.73,.11,1.48,.22,2.22,.34v298.21c-18.5-3.26-36.1-8.4-53.17-14.47-9.13-3.23-16.31-7.97-18.65-13.98-5.14-13.28-9.4-26.68-13.34-40.09-1.66-5.63-.46-11.6-2.63-17.14-4.11-10.57-2.41-20.94,1.53-31.2,5.31-13.86,20.59-24.21,39.8-32.38,27.61-11.75,38.29-26.76,29.6-45.92-2.92-6.39-7.06-12.51-17.48-16.64-14.97-5.92-28.31-3.75-42.19,1.29-20.42,7.42-40.95,14.8-62.03,21.59-14.92,4.8-31.18,8.25-46.25,12.94-12.66,3.95-24.56,8.71-36.59,13.29-13.56,5.18-28.63,6.32-44.28,5.66-15.53-.66-31.09-2.66-46.47-2.23-16.97,.46-34.88,3.99-41.12,17.52-5.92,12.84-12.49,25.61-19.91,38.19-10.15,17.25-24.85,22.67-56.26,23.06-16.26,.2-32.55,1.3-48.69,2.51-16.04,1.2-27.12,6.41-29.72,15.85-2.97,10.76-4.87,21.61-6.72,32.45-1.83,10.59-1.9,21.33-4.82,31.8-3.19,11.37-20.76,21.38-41.77,20.68-24.95-.83-50.12,.52-75.2,.99Z"/><path class="d" d="M1913.49,2591.86c-18.74,1.16-37.59,2.13-56.43,2.52-19.04,.39-35.57-6.97-38.41-17.74-2.85-10.7-3.02-21.64-4.84-32.43-.78-4.5-1.85-9.13-4.5-13.33-5.6-8.84-12.54-17.39-18.57-26.16-6.06-8.85-5.48-19.69,5.5-23.53,5.09-1.76,10.47-3.28,15.46-5.13,35.32-13.05,36.52-36.62,4.43-50.89-26.73-11.88-58.98-13.05-90.7-15.39-7.52-.56-15.92-1.48-21.93-3.88-21.71-8.7-37.1-21.01-48.32-34.37-8.93-10.6-8.89-22.22,5.99-32.35,14.05-9.56,27.44-19.44,40.99-29.24,13.51-9.79,30.92-9.42,49.83-7.07,33.18,4.13,57.23,15.26,75.17,31.28,6.26,5.6,11.12,11.75,17.92,17.1,12.12,9.55,30.75,12.91,49.66,15.25,16.97,2.09,32.6,9.56,29.92,21.1-.44,1.88-.17,3.82-.05,5.73,.29,5.32,1.27,10.53,3.41,15.53v183.98c-4.55-.94-9.47-1.3-14.51-.99Z"/><path class="d" d="M47.92,2239.27c-31.83,7.26-46.6,23.5-37.47,42.65,4.16,8.71,15.54,13.65,31.94,13.26,28.09-.67,56.32-1.41,83.02-7.47,1.28-.29,3.44,.32,4.33-.09,19.35-9.02,42.46-13.52,65.29-18.51,13.11-2.86,17.82-10.38,20.71-17.14,8.74-20.49,24.55-39.01,41.95-57.38,5.94-6.28,6.38-14.28,9.33-21.49v-.64c-4.01-10-13.83-17.03-32.12-18.32-15.03-1.06-29.46,.99-42.01,6.24-20.1,8.4-27.18,19.44-23.67,33.76,2.46,10.02-3.19,19.65-13.96,27.98-14.39,11.13-34.51,14.61-57.54,14.69-16.68,.05-33.58-1.23-49.81,2.47Z"/><path class="d" d="M0,2009.29v-108.57c15.02-1.36,30.36-1.48,45.72-1.37,29.7,.21,40.36,4.19,50.9,19.79v.63c-.1,14.12-8.03,27.18-16.7,40.08-7.3,10.85-15.87,21.41-28.68,30.57-13.46,9.59-32.55,14.27-51.24,18.88Z"/><path class="d" d="M0,1086.1v-54.32c13.36,6.19,24.56,13.68,30.23,24.21v.64c-.37,3.6,.39,7.39-1.29,10.78-5.21,10.32-15.02,15.98-28.94,18.68Z"/><path class="d" d="M1352.45,1281.34c-2.97-2.06-6.6-3.82-9.88-5.74-8.15-4.76-17.45-8.01-28.65-10.4-21.81-4.68-42.6-10.19-60.35-19.87-18.77-10.24-42.19-12.39-67.16-5.52-12.24,3.36-25.29,6.08-39.73,5.32-12.8-.67-28.48-6.92-31.94-14.12-2.78-5.81,5.38-12.97,14.12-16.64,16.33-6.83,32.01-14.21,47.69-21.55,15.94-7.49,32.23-14.59,52.02-18.44,14.05-2.73,27.92-5.73,42.11-8.16,5.75-.98,9.47-2.34,9.88-5.84,.83-6.78,1.29-13.58,2.29-20.36,2.6-17.99,18.01-26.92,45.38-28.25,22.2-1.09,45.01,.92,67.41,2.28,13.83,.85,34.37-1.34,39.48-12.93,6.06-13.77,9.52-27.92,13.56-41.96,3.51-12.16,11.66-21.94,33.2-26.85,11.9-2.72,23-6.61,34.37-10.08,20.52-6.27,38.44-14.31,46.23-27.41,4.75-8,7.77-16.43,10.03-24.79,4.55-16.83,18.53-26.82,44.45-30.54,23.78-3.42,44.48,5.56,41.97,18.46-2.8,14.38-9.08,28.01-24,40.2-10.22,8.36-12.8,17.72-.29,26.65,1.34,.95,2.07,2.18,3.38,3.15,23.93,18.05,47.35,36.35,72.06,54.05,26.29,18.84,49.15,18.26,79.31,8.77,16.58-5.21,32.4-11.75,46.3-19.1,13.44-7.11,23.47-16.64,19.91-27.76-4.33-13.53-10.54-26.93-17.6-40.09-6.5-12.13-19.57-21.51-40.6-26.87-9.3-2.38-18.01-5.64-26.58-8.85-24.1-9.02-47.37-18.84-72.25-27.07-11.66-3.87-19.33-8.33-21.57-15.57-.93-3.01,.97-6.36,1.97-9.51,3.63-11.5,8.08-22.8,26.53-29.91,26.51-10.24,52.24-21.24,79.94-30.28,19.16-6.25,30.65-14.66,34.86-26.43,3.46-9.61,5.09-19.47,6.79-29.25,1.83-10.64,13.51-17.28,32.18-17.11,12.56,.11,25.1,1.19,37.63,1.12,10.35-.06,20.72-.14,31.09-.32v457.79c-2.97-.15-5.94-.35-8.91-.57-14.53-1.12-29.24-4.12-37.42-11.96-5.45-5.25-8.45-11.36-12.42-17.1-4.07-5.88-7.62-12.48-21.03-12.59-15.48-.14-31.01,.45-46.47,1.2-20.69,1.01-41.26,3.05-61.98,3.56-15.17,.38-27.68-3.12-36.78-11.16-13.95-12.34-12.95-25.44-9.64-38.93,2.02-8.26,6.11-16.45,1.1-24.83-8.67-14.48-33.67-22.49-59.79-19.09-19.84,2.58-35.35,9.31-51.12,16.38-22.15,9.93-32.67,22.46-33.06,38.36-.22,8.28-.85,16.58-2.26,24.82-1.63,9.58-4.7,19.07-6.4,28.65-2.6,14.65-12.24,26.27-36.52,33.22-17.11,4.9-34.03,10.29-49.69,16.59-18.91,7.59-38.12,14.7-60.03,18.81-15.73,2.95-31.18,2.67-43.14-5.59Z"/><path class="d" d="M1740.48,2690h-180.65c-12.63-9.06-18.04-19.35-11.08-30.51,5.4-8.67,16.46-15.36,30.48-20.54,28.31-10.47,58.06-19.73,83.23-32.92,11.42-5.98,24.64-10.84,36.22-16.73,6.84-3.49,5.92-7.2,.19-11.37-7.69-5.63-18.09-7.56-29.92-7.6-17.33-.06-34.71,.46-51.97-.17-13.36-.49-26.92-1.69-39.78-3.81-24.05-3.96-28.17-12.8-28.55-24.04-.19-5.29,2.43-10.63,4.16-15.91,4.87-14.68,12.88-28.4,33.08-38.89,17.02-8.85,33.01-18.35,49.98-27.25,8.5-4.45,19.28-6.67,30.84-5.7,16.33,1.34,32.6,3.03,48.69,5.08,16.89,2.16,28.14,6.85,30.43,18.34,3.02,15.12,12.39,29.63,26.36,42.56,13.34,12.34,19.94,25.3,19.5,39.59-.29,9.76-1.29,19.52-2.17,29.28-.46,5.43,2.63,9.86,9.98,13.37,14.48,6.9,32.35,7.91,49.83,9.51,22.86,2.07,46.42,3.36,53.09,19.76v.63c1.58,14.47-4.65,27.76-17.65,40.12-8.91,8.46-26.83,12.17-37.59,10.63-13.97-2.02-27.36-5.38-41.04-8.08-13.88-2.76-28.58-5.48-41.85-.49-10.59,3.99-19.09,8.92-23.83,15.15Z"/><path class="d" d="M1776.22,26.86c-23.37-4.71-39.51-12.83-49.34-25.6h151.95c3.53,5.71,6.82,11.47,10.35,17.18v.64c1.34,6.36-.85,11.95-12.24,14.54-5.5,1.23-11.71,1.81-17.65,1.93-28.75,.6-56.04-3.26-83.06-8.7Z"/><path class="d" d="M1856,2181.83c7.15,.42,12.95-1.93,15.46-6.19,.75-1.27,1.48-2.55,2.21-3.82v-.64c-2.9-3-4.4-6.68-12.17-7.04-7.3-.35-15.09,2.5-16.6,6.41-1.76,4.52,3.64,10.84,11.1,11.28Z"/><path class="d" d="M1693.19,1026.75c10.6,9.74,19.99,19.92,30.02,29.87,5.34,5.3,12.06,9.69,20.81,13.52,21.96,9.63,48.5,5.95,66.68-2.63,17.4-8.21,24.35-18.65,23.14-31.26v-.64c-3.32-6.79-6.23-13.66-10.06-20.35-5.22-9.12-15.79-16.06-29.84-20.96-20.76-7.25-41.96-14.09-63.01-21.06-18.52-6.13-32.98-2.83-42.3,7.55-14.47,16.11-11.7,31,4.57,45.95Z"/><path class="d" d="M1768.55,2443.62c-5.18,3.78-1.9,8.49,6.64,9.55,7.23,.89,15.94-3.11,16.6-7.64v-.64c-10.21-5.78-16.59-6.13-23.24-1.27Z"/><path class="d" d="M1693.42,688.85c-3.39,.93-5.28,3.68-7.86,5.59,3.32,1.27,6.43,3.39,9.99,3.68,20.18,1.66,40.62,4.13,60.77,.68,20.06-3.44,33.25-13.53,33.25-24.09v-.64c-6.4-5.86-16.54-5.73-25.33-3.65-23.95,5.67-47.43,12.02-70.82,18.43Z"/><path class="d" d="M1698.5,1713.48c3.92-9.96,4.77-20.32,6.98-30.51v-.64c-2.21-6.15-4.07-12.36-6.71-18.45-5.49-12.66-17.44-22.64-38.71-27.94-17.56-4.38-35.45-3.73-49.5,3.89-20.84,11.32-40.31,23.49-59.86,35.57-6.69,4.13-8.45,9.84-6.54,15.18,3.97,11.09,8.14,22.19,19.56,31.9,8.43,7.17,20.34,9.91,34.47,8.35,19.71-2.18,39.61-3.43,59.73-.82,19.12,2.48,35.55-3.78,40.57-16.53Z"/><path class="d" d="M606.75,924.25c-23.62,7.83-35.77,20.54-43.1,35-7.55,14.89,7.92,26.21,20.33,37.36,7.69,6.91,19.39,12.61,30.66,17.89,21.83,10.24,40.94,6.84,59.49-1.23,26.93-11.71,35.8-28.41,37.9-47.02,1.2-10.65,3.96-21.25,6.59-31.82,1.12-4.49,11.24-6.31,22.01-5.16,37.88,4.04,50.49,1.03,70.36-14.76,19.93-15.85,44.88-28.24,71.43-39.78,13.54-5.88,29.4-7.16,45.17-2.03,17.59,5.72,35.31,5.5,54.34,2.09,14.96-2.68,31-3.28,46.34-5.36,30.02-4.07,50.87-14.29,62.09-31.1,12.76-19.11,36.57-32.29,70.87-37.22,18.44-2.65,37.72,.88,56.35,3.95,25.96,4.28,48.05,12.48,69.49,21.27,16.54,6.79,34.81,9.48,54.3,11.54,18.59,1.96,38.02,1.94,55.48,7.33,14.17,4.38,20.73,11.06,20.76,19.83,.03,8.7-2.3,17.42-1.78,26.09,.6,9.99,6.89,17.27,20.85,19.57,7.26,1.19,15.85,1.65,23.07,.63,31.38-4.44,62.36-9.17,91.14-18.58,20.81-6.8,44.68-10.5,67.16-15.62,5.22-1.19,10.8-2.13,15.41-3.89,10.47-3.99,17.71-9.21,16.77-17.11-.48-4.01-.08-8.06-.08-12.09v-.64c-6.08-13.54-19.63-24.15-41.13-30.34-14.9-4.29-31.49-6.65-47.4-9.74-23.2-4.52-46.3-9.25-69.78-13.22-9.47-1.6-19.9-2.21-29.78-1.92-29.63,.84-54.94-4.3-77.64-15.3-15.31-7.42-31.96-13.97-48.58-20.43-27.29-10.59-46.2-25.42-64.01-40.84-4.16-3.6-8.23-7.02-16.67-6.26-8.46,.76-11.52,4.71-14.52,8.82-3.95,5.42-8.42,10.73-13.24,15.92-5.84,6.28-16.54,9.06-27.65,10.7-8.97,1.32-17.67-.96-22.92-5.06-6.62-5.17-6.45-11.3-1.27-17.05,2.43-2.7,5.77-5.13,8.77-7.66,10.88-9.18,10.03-11.94-2.06-20.45-10.02-7.05-19.65-14.43-27.54-22.3-8.7-8.67-10.98-18.74-13.51-28.55-5.95-23.07-10.09-46.3-22.05-68.76-6.64-12.48-18.55-22.74-35.56-31.15-11.27-5.57-31.58-5.3-43.22,.56-13.91,6.99-22.57,16.11-31.84,24.94-11.96,11.39-21.43,23.8-23.89,36.9-2.61,13.88-3.28,28.4,9.47,41.3,14.63,14.8,30.07,29.34,45.27,43.95,11.63,11.18,13.21,15.51-4.66,25.34-17.12,9.42-30.56,20.16-41.8,31.97-9.15,9.61-24.29,12.92-42.07,14.05-16.95,1.08-33.85,1.91-49.91,6.18-22.79,6.05-30.51,16.85-31.93,30.05-1.01,9.33-1,18.7-2.39,28-1.89,12.55-16.74,19.62-35.39,23.37-27.81,5.58-47.84,16.51-66.2,28.87-10.73,7.23-21.32,14.58-30.83,22.33-5.64,4.6-9.24,10.05-13.46,15.2-6.74,8.21-10.43,8.67-25.53,7.13-29.98-3.06-60.23-5.02-88.45,4.34Z"/></g></g></g></svg>