<?xml version="1.0" encoding="UTF-8"?><svg xmlns="http://www.w3.org/2000/svg" viewBox="0 0 55.84 60"><defs><style>.d{fill:#d80058;}</style></defs><g id="a"/><g id="b"><g id="c"><path class="d" d="M50.87,30.02c1.39-1.44,2.51-3.08,3.36-4.91,1.07-2.33,1.62-4.82,1.62-7.4,0-4.48-1.67-8.75-4.71-12.03C48.1,2.42,44,.42,39.59,.06c-.48-.04-.97-.06-1.46-.06h-8.17c-4.34,0-8.52,.91-12.43,2.7-3.78,1.73-7.11,4.18-9.89,7.29-.62,.69-1.21,1.42-1.76,2.16-1.87,2.53-3.32,5.31-4.32,8.28-1.03,3.07-1.55,6.28-1.55,9.55,0,3.98,.77,7.84,2.28,11.48,.39,.95,.84,1.88,1.32,2.77,5.25,9.69,15.35,15.72,26.36,15.73h7.17c.32,.02,.64,.03,.97,.03,2.39,0,4.71-.47,6.89-1.39,2.11-.89,4-2.17,5.63-3.8s2.9-3.52,3.8-5.63c.92-2.18,1.39-4.5,1.39-6.89s-.47-4.71-1.39-6.89c-.85-2-2.04-3.81-3.55-5.38ZM39.37,2.7c7.75,.63,13.82,7.23,13.82,15.01,0,3.95-1.55,7.73-4.3,10.53-1.19-.92-2.5-1.68-3.9-2.27-2.18-.92-4.5-1.39-6.89-1.39s-4.63,.45-6.79,1.35V2.65h6.81c.42,0,.83,.02,1.24,.05ZM5.93,42.98c-.44-.82-.85-1.67-1.21-2.53-1.38-3.32-2.08-6.84-2.08-10.47,0-5.9,1.85-11.52,5.35-16.25,.5-.68,1.04-1.34,1.61-1.97C14.5,6.3,21.38,3.04,28.66,2.68V27.3c-1.11,.7-2.14,1.52-3.08,2.47-1.63,1.63-2.9,3.52-3.8,5.63-.92,2.18-1.39,4.5-1.39,6.89s.47,4.71,1.39,6.89c.89,2.11,2.17,4,3.8,5.63,.95,.95,1.99,1.77,3.1,2.48-9.53-.45-18.17-5.85-22.75-14.31Zm32.19,14.37v-.03h-.91c-7.89-.46-14.18-7.03-14.18-15.03s6.76-15.06,15.06-15.06,15.06,6.76,15.06,15.06-6.74,15.04-15.03,15.06Z"/></g></g></svg>